<svg xmlns="http://www.w3.org/2000/svg" width="105" height="140" viewBox="0 0 105 140"><defs><style>.a{fill:#fff;opacity:0;}.b{fill:#c88c64;}.c{fill:#a5dc69;}.d{fill:#46c373;}.e{fill:#d7fa91;}.f{fill:#ff6e37;}</style></defs><g transform="translate(-1212.675 -216.567)"><rect class="a" width="105" height="140" transform="translate(1212.675 216.567)"/><g transform="translate(1219.682 237.061)"><path class="b" d="M107.656,20.9a13.446,13.446,0,0,0-4.461-7.216l3.732-3.712a18.315,18.315,0,0,1,6.418,9.663Z" transform="translate(-87.157 -8.043)"/><path class="c" d="M174.269,15.012s-13.49-11.455-26.059,1.114C159.934,27.85,174.269,15.012,174.269,15.012Z" transform="translate(-123.448 -8.251)"/><path class="d" d="M54.075,63.863h0A11.345,11.345,0,0,1,65.345,73.9L67.13,89.3a68.987,68.987,0,0,0,7.747,24.687h0a23.612,23.612,0,0,1-9.443,31.869h0a23.611,23.611,0,0,1-22.719,0h0a23.612,23.612,0,0,1-9.443-31.869h0A68.985,68.985,0,0,0,41.02,89.3l1.786-15.4a11.345,11.345,0,0,1,11.27-10.038Z" transform="translate(-28.519 -51.486)"/><path class="e" d="M177.975,98.936h0a11.345,11.345,0,0,1,14.778,3.059L202,114.437a68.984,68.984,0,0,0,19.053,17.506h0a23.611,23.611,0,0,1,7.756,32.321h0a23.612,23.612,0,0,1-19.675,11.36h0a23.611,23.611,0,0,1-24.112-22.878h0a68.989,68.989,0,0,0-5.634-25.253l-6.153-14.228a11.344,11.344,0,0,1,4.74-14.328Z" transform="translate(-142.87 -78.535)"/><path class="f" d="M285.658,298.209c5.16,8.937,18.61,10.1,25.027-.607a10.682,10.682,0,0,0,1.513-5.671c-.123-7.128-4.168-12.042-9.278-13.985h0l-16.534-6.725-2.434,17.591.007,0A14.068,14.068,0,0,0,285.658,298.209Z" transform="translate(-232.729 -218.654)"/><path d="M143.839,452.091h-.1a1.934,1.934,0,0,0-.011,3.868h.111a1.934,1.934,0,0,0,0-3.868Z" transform="translate(-118.284 -364.47)"/><path d="M71.574,353.045A13.984,13.984,0,0,1,66,334.228a1.934,1.934,0,1,0-3.408-1.83,17.863,17.863,0,0,0,7.123,24.037,1.934,1.934,0,0,0,1.861-3.391Z" transform="translate(-52.724 -267.153)"/><path d="M111.039,67.521A25.391,25.391,0,0,0,99.648,51.763,67.084,67.084,0,0,1,86.241,40.838a1.934,1.934,0,1,0-2.81,2.658,70.962,70.962,0,0,0,14.18,11.556,21.677,21.677,0,0,1-10.942,40.1c-.158,0-.315.005-.473.005A21.747,21.747,0,0,1,64.532,74.151,70.629,70.629,0,0,0,58.74,48.19L52.587,33.962a9.411,9.411,0,0,1,16.192-9.348l3.51,4.724a1.934,1.934,0,1,0,3.1-2.307l-3.51-4.724A13.279,13.279,0,0,0,57.7,17.427a13.259,13.259,0,0,0-1.916-2.695c.233.009.466.017.7.017a20.77,20.77,0,0,0,6.787-1.207A29.94,29.94,0,0,0,72.559,8.2a1.934,1.934,0,0,0-.039-2.915A25.048,25.048,0,0,0,63.442.733,19.211,19.211,0,0,0,45.617,4.886,20.273,20.273,0,0,0,41.4.4a1.934,1.934,0,0,0-2.545.16L35.121,4.274a1.934,1.934,0,0,0,.129,2.859,11.974,11.974,0,0,1,3.63,5.385,13.263,13.263,0,0,0-6.066,9.674l-1.786,15.4A66.767,66.767,0,0,1,23.5,61.586,25.547,25.547,0,0,0,66.175,89.349a25.869,25.869,0,0,0,2.442,2.665,25.381,25.381,0,0,0,17.569,7.014q.283,0,.568-.006a25.545,25.545,0,0,0,24.286-31.5ZM67.993,6.822a25.794,25.794,0,0,1-6.092,3.1C56.682,11.693,52.044,11,48.088,7.858,56.157,1.132,64.3,4.577,67.993,6.822ZM39.245,5.629l1.065-1.06A17.1,17.1,0,0,1,44.3,10.555a13.223,13.223,0,0,0-1.871.378A15.954,15.954,0,0,0,39.245,5.629ZM56.433,92.674A21.678,21.678,0,0,1,26.9,63.416,70.631,70.631,0,0,0,34.87,38.037l1.786-15.4A9.412,9.412,0,0,1,54.143,19a13.275,13.275,0,0,0-5.106,16.5l6.153,14.228A66.772,66.772,0,0,1,60.665,74.27a25.428,25.428,0,0,0,3.217,11.664A21.725,21.725,0,0,1,56.433,92.674Z" transform="translate(-20.447 0)"/><path d="M315.984,178.417a1.934,1.934,0,0,0,3.105-2.306l-.05-.067a1.934,1.934,0,1,0-3.105,2.306Z" transform="translate(-258.357 -141.294)"/><path d="M277.386,261.5a1.934,1.934,0,0,0-.949,1.41L274,280.5c-.005.037-.009.074-.012.111a16.064,16.064,0,0,0,15.75,18.551h.135c5.9,0,11.151-3.134,14.434-8.613a12.6,12.6,0,0,0,1.788-6.7c-.126-7.282-4.138-13.308-10.475-15.741l-.007,0-16.534-6.725A1.935,1.935,0,0,0,277.386,261.5Zm16.725,10.173.087.036c4.93,1.874,7.932,6.439,8.031,12.211a8.733,8.733,0,0,1-1.238,4.644c-2.567,4.283-6.615,6.733-11.119,6.733h-.1a12.2,12.2,0,0,1-11.939-14.212,1.9,1.9,0,0,0,.024-.214l2.071-14.966Z" transform="translate(-224.695 -210.609)"/></g></g></svg>