<svg xmlns="http://www.w3.org/2000/svg" width="156" height="208" viewBox="0 0 156 208"><defs><style>.a{fill:#fff;opacity:0;}.b{fill:#a5dc69;}.c{fill:#f5b955;}.d{fill:#46c373;}</style></defs><g transform="translate(-550 -498)"><rect class="a" width="156" height="208" transform="translate(550 498)"/><g transform="translate(560 513.368)"><g transform="translate(96.965 30.291)"><rect class="b" width="10.365" height="16.436" transform="translate(6.557 13.275)"/><rect class="b" width="10.365" height="18.713" transform="translate(0 0)"/></g><g transform="translate(2.658 49.004)"><path class="c" d="M32.954,156.993h0a23.5,23.5,0,0,1,3.06.264l9.66,1.48a58.1,58.1,0,0,0,36.432-6.323h0a58.094,58.094,0,0,0,22.1-21.069l7.567-12.529h1.595l-2.98-11H105.1l-8.658,9.489A50.99,50.99,0,0,1,73.814,131.66h0a50.988,50.988,0,0,1-32.443-.795l-8.062-2.928A20.546,20.546,0,0,0,22.843,127l-7.091-2.575-5.778,5.42h0C13.625,136.741,19.486,149.137,32.954,156.993Z" transform="translate(-9.974 -107.818)"/><path class="c" d="M38.334,211.024a23.412,23.412,0,0,1,11.575-3.062h9.773A58.1,58.1,0,0,0,94.736,196.2h0a58.1,58.1,0,0,0,18.651-24.172l5.583-13.531.647-.029-.647-9.383H112.83l-7.567,12.529a58.1,58.1,0,0,1-22.1,21.069h0A58.1,58.1,0,0,1,46.735,189l-9.66-1.48A23.414,23.414,0,0,0,25.169,188.8h0l-8.5-1.3-5.252,7.341h0A58.837,58.837,0,0,0,32.2,211.024h6.135Z" transform="translate(-11.035 -138.083)"/></g><path class="b" d="M414.944,138.77V122.19h8.876l4.625,15.968Z" transform="translate(-304.35 -69.356)"/><path class="c" d="M171.652,182.1l-13.5.612-5.583,13.53a58.1,58.1,0,0,1-18.651,24.172h0a58.1,58.1,0,0,1-35.054,11.767H89.091a23.411,23.411,0,0,0-11.575,3.062h-8.6L64.84,243.3h0A58.84,58.84,0,0,0,88.19,256.26l2.407.687a80,80,0,0,0,54.188-3.716h0a70.269,70.269,0,0,0,29.973-24.977l.68-1.007a34.664,34.664,0,0,0,.924-37.377Z" transform="translate(-47.558 -113.299)"/><path class="d" d="M386.313,60.151,374.529,37.607h-10.72l13.629,22.544Z" transform="translate(-266.844 -7.316)"/><path d="M131.076,75.193l-4.526-7.468-4.527-15.63-.005,0a2.671,2.671,0,0,0-.193-.495L110.041,29.059a2.659,2.659,0,0,0-2.356-1.427H96.965a2.647,2.647,0,0,0-2.647,2.835c-.006.074-.011.148-.011.223V48.871L87.162,56.7A48.218,48.218,0,0,1,74.3,66.719a2.658,2.658,0,1,0,2.511,4.686A53.518,53.518,0,0,0,91.089,60.284l7.868-8.623h1.907V60.8L94.612,71.156A55.438,55.438,0,0,1,38.762,97.3l-9.66-1.48a25.927,25.927,0,0,0-2.677-.266A46.9,46.9,0,0,1,12.978,83.184l2.98-3.868a2.658,2.658,0,1,0-4.211-3.244l-1.9,2.472c-1.535-2.493-2.8-4.873-3.891-6.962l3.112-2.92L14.62,70.68a2.656,2.656,0,0,0,1.354.122,17.923,17.923,0,0,1,9.113.82l8.062,2.928a53.276,53.276,0,0,0,22.54,3.055,2.658,2.658,0,1,0-.419-5.3,48.016,48.016,0,0,1-20.307-2.752L26.9,66.626a23.251,23.251,0,0,0-11.105-1.174L9.343,63.109a2.658,2.658,0,0,0-2.726.56L.84,69.088A2.659,2.659,0,0,0,.309,72.27q.339.641.7,1.343c3.133,5.99,8.039,15.361,17.366,22.8-.626.168-1.246.357-1.858.571L8.7,95.787a2.656,2.656,0,0,0-2.564,1.081L.883,104.21a2.658,2.658,0,0,0,.1,3.224,61.886,61.886,0,0,0,17.33,14.649l-3.4,6.713a2.658,2.658,0,0,0,.587,3.172,61.6,61.6,0,0,0,11.959,8.455,2.639,2.639,0,0,0,.441.236A61.488,61.488,0,0,0,39.9,145.516l2.407.687a82.821,82.821,0,0,0,55.988-3.84,72.952,72.952,0,0,0,31.1-25.921l.681-1.007A37.428,37.428,0,0,0,131.076,75.193Zm-24.9-24.521,1.755,2.9v3.768H106.18Zm7.071,4.821h4.22L120.6,66.3l-7.35.333V55.492Zm-7.176-22.544,9.005,17.228h-2.988L101.678,32.949Zm-6.452,13.4v-6.52l1.263,2.089a2.7,2.7,0,0,0-.022.323v4.109ZM6.41,105.621l3.1-4.332,6.883,1.055a2.663,2.663,0,0,0,1.352-.145A20.789,20.789,0,0,1,28.3,101.07l9.66,1.48A60.754,60.754,0,0,0,99.163,73.9l6.792-11.245h1.981v6.228l-5.382,13.043a55.439,55.439,0,0,1-51.249,34.295H41.532a26.119,26.119,0,0,0-12.258,3.062H24.43a55.99,55.99,0,0,1-6.376-3.586l1.535-3.065a2.658,2.658,0,1,0-4.753-2.381l-1.151,2.3A56.334,56.334,0,0,1,6.41,105.621Zm119.267,6.838L125,113.466A67.645,67.645,0,0,1,96.154,137.5a77.5,77.5,0,0,1-52.387,3.593L41.36,140.4a56.075,56.075,0,0,1-9.162-3.517l1.248-3.616a2.658,2.658,0,1,0-5.025-1.735l-.953,2.762a56.26,56.26,0,0,1-6.881-4.945l2.408-4.751h6.963a2.66,2.66,0,0,0,1.314-.348,20.789,20.789,0,0,1,10.261-2.714h9.773a60.755,60.755,0,0,0,56.163-37.583l4.937-11.965,10.233-.464,3.891,6.42A32.1,32.1,0,0,1,125.677,112.459Z" transform="translate(0)"/><path d="M242.111,192.614a2.662,2.662,0,1,0-.762-5.2l-.014,0a2.655,2.655,0,0,0,.776,5.2Z" transform="translate(-175.621 -117.108)"/><path d="M437.966,323.408a2.658,2.658,0,0,0-3.691.716l-.139.2a2.658,2.658,0,1,0,4.394,2.993l.151-.222A2.658,2.658,0,0,0,437.966,323.408Z" transform="translate(-318.089 -216.61)"/><path d="M286.179,356.285a57.078,57.078,0,0,1-17.49,11.968,66.422,66.422,0,0,1-25.033,5.623,2.658,2.658,0,0,0,.073,5.315h.075a71.717,71.717,0,0,0,27.027-6.072,62.367,62.367,0,0,0,19.112-13.08,2.658,2.658,0,0,0-3.764-3.754Z" transform="translate(-176.82 -240.485)"/></g></g></svg>