<svg xmlns="http://www.w3.org/2000/svg" width="105" height="140" viewBox="0 0 105 140"><defs><style>.a{fill:#fff;opacity:0;}.b{fill:#46c373;}.c{fill:#7d9bff;}.d{fill:#9bbeff;}.e{fill:#a5dc69;}.f{fill:#464b9b;}</style></defs><g transform="translate(-992.125 -778.833)"><rect class="a" width="105" height="140" transform="translate(992.125 778.833)"/><g transform="translate(1001.535 805.246)"><path class="b" d="M185.265,32.854s-.623-9.084,6.4-13.957,13.148-7.2,15.072-8.9c7.48,7.423,7.593,28.615-.873,35.563,0,0-7.513,1.664-11.026,5.744C194.642,40.772,185.265,32.854,185.265,32.854Z" transform="translate(-154.285 -8.301)"/><g transform="translate(1.7 21.759)"><circle class="c" cx="19.69" cy="19.69" r="19.69" transform="translate(0 24.196)"/><path class="c" d="M29.691,152.2a19.656,19.656,0,0,1,15.536,7.593,19.69,19.69,0,1,0-31.072,0A19.656,19.656,0,0,1,29.691,152.2Z" transform="translate(-10.001 -128.002)"/></g><path class="d" d="M237.031,216.35a19.657,19.657,0,0,0-15.62,7.7,19.593,19.593,0,0,1-3.839,8.961c-.009.059-.017.119-.026.178a19.6,19.6,0,0,1,4.1,12.026,19.849,19.849,0,0,1-.206,2.85,19.69,19.69,0,1,0,15.59-31.718Z" transform="translate(-181.567 -179.573)"/><path class="e" d="M357.213,165.12a16.242,16.242,0,0,0-12.917,6.2l.126.122a19.7,19.7,0,0,1,17.287,16.648h0c9.4-7.085,9.4-25.992,9.4-25.992S366.684,165.12,357.213,165.12Z" transform="translate(-286.77 -134.544)"/><g transform="translate(7.471 26.946)"><path class="f" d="M54.668,375.212h0a6.047,6.047,0,0,0,3.572,6.187h0a6.047,6.047,0,0,0-3.572,6.187h0a6.047,6.047,0,0,0-7.144,0h0a6.047,6.047,0,0,0-3.572-6.187h0a6.047,6.047,0,0,0,3.572-6.187h0A6.047,6.047,0,0,0,54.668,375.212Z" transform="translate(-43.952 -338.376)"/><path class="f" d="M301.92,329.966h0a6.767,6.767,0,0,0,4,6.923h0a6.767,6.767,0,0,0-4,6.923h0a6.767,6.767,0,0,0-7.995,0h0a6.767,6.767,0,0,0-4-6.923h0a6.767,6.767,0,0,0,4-6.923h0A6.767,6.767,0,0,0,301.92,329.966Z" transform="translate(-248.115 -300.822)"/><path class="f" d="M94.526,158.518h0a5.238,5.238,0,0,0,3.572,5.423h0a5.238,5.238,0,0,0-3.572,5.423h0a6.745,6.745,0,0,0-7.144,0h0a5.238,5.238,0,0,0-3.572-5.423h0a5.238,5.238,0,0,0,3.572-5.423h0A6.744,6.744,0,0,0,94.526,158.518Z" transform="translate(-77.035 -158.518)"/></g><path d="M50.627,371.543a4.331,4.331,0,0,1-2.568-4.447,1.7,1.7,0,0,0-2.694-1.555,4.33,4.33,0,0,1-5.135,0,1.7,1.7,0,0,0-2.694,1.555,4.331,4.331,0,0,1-2.568,4.447,1.7,1.7,0,0,0,0,3.111,4.331,4.331,0,0,1,2.568,4.447,1.7,1.7,0,0,0,2.694,1.555,4.33,4.33,0,0,1,5.135,0,1.7,1.7,0,0,0,2.694-1.555,4.331,4.331,0,0,1,2.568-4.447,1.7,1.7,0,0,0,0-3.111ZM44.874,376.7a7.7,7.7,0,0,0-4.154,0,7.7,7.7,0,0,0-2.077-3.6,7.7,7.7,0,0,0,2.077-3.6,7.7,7.7,0,0,0,4.154,0,7.7,7.7,0,0,0,2.077,3.6A7.7,7.7,0,0,0,44.874,376.7Z" transform="translate(-28.182 -303.13)"/><path d="M298.3,330.146a1.7,1.7,0,0,0,0-3.111,5.049,5.049,0,0,1-2.993-5.184,1.7,1.7,0,0,0-2.694-1.555,5.049,5.049,0,0,1-5.986,0,1.7,1.7,0,0,0-2.694,1.555,5.049,5.049,0,0,1-2.993,5.184,1.7,1.7,0,0,0,0,3.111,5.048,5.048,0,0,1,2.993,5.184,1.7,1.7,0,0,0,2.694,1.555,5.048,5.048,0,0,1,5.986,0,1.7,1.7,0,0,0,2.694-1.555A5.049,5.049,0,0,1,298.3,330.146Zm-6.209,2.725a8.419,8.419,0,0,0-4.943,0,8.419,8.419,0,0,0-2.471-4.28,8.42,8.42,0,0,0,2.471-4.28,8.422,8.422,0,0,0,4.943,0,8.419,8.419,0,0,0,2.471,4.28A8.419,8.419,0,0,0,292.1,332.871Z" transform="translate(-233.049 -265.576)"/><path d="M90.41,154.055a3.552,3.552,0,0,1-2.5-3.628,1.7,1.7,0,0,0-2.605-1.64,5.059,5.059,0,0,1-5.308,0,1.7,1.7,0,0,0-2.6,1.64,3.552,3.552,0,0,1-2.5,3.628,1.7,1.7,0,0,0,0,3.171,3.552,3.552,0,0,1,2.5,3.628,1.7,1.7,0,0,0,2.6,1.64,5.059,5.059,0,0,1,5.308,0,1.7,1.7,0,0,0,2.6-1.64,3.552,3.552,0,0,1,2.5-3.628,1.7,1.7,0,0,0,0-3.171Zm-5.643,4.55a8.583,8.583,0,0,0-4.227,0,6.791,6.791,0,0,0-1.868-2.964,6.793,6.793,0,0,0,1.868-2.964,8.585,8.585,0,0,0,4.228,0,6.79,6.79,0,0,0,1.868,2.964A6.791,6.791,0,0,0,84.767,158.6Z" transform="translate(-61.263 -123.271)"/><path d="M77.679,401.6a1.7,1.7,0,1,0,1.2.5A1.712,1.712,0,0,0,77.679,401.6Z" transform="translate(-63.065 -333.333)"/><path d="M328.661,364.952a1.7,1.7,0,1,0,1.2.5A1.709,1.709,0,0,0,328.661,364.952Z" transform="translate(-272.046 -302.914)"/><path d="M117.531,180.421a1.7,1.7,0,1,0,1.2.5A1.705,1.705,0,0,0,117.531,180.421Z" transform="translate(-96.377 -149.751)"/><path d="M417.049,392.506a1.7,1.7,0,0,0-2.4.312l-.017.022a1.7,1.7,0,0,0,.3,2.4,1.726,1.726,0,0,0,1.045.351,1.744,1.744,0,0,0,1.079-3.09Z" transform="translate(-344.841 -325.485)"/><path d="M282.491,77.528a1.7,1.7,0,0,0-2.4,0l-.071.071a1.7,1.7,0,1,0,2.413,2.4l.067-.067A1.7,1.7,0,0,0,282.491,77.528Z" transform="translate(-232.576 -63.937)"/><path d="M86.035,27.555a1.7,1.7,0,0,0-.891-1.506,1.655,1.655,0,0,0-1.728.1c-.041.027-4.167,2.73-12.793,2.73a17.739,17.739,0,0,0-13.61,6.237c-.4-.022-.795-.035-1.2-.035-.075,0-.149,0-.223,0,2.256-3.549,3.636-8.443,3.9-14.069.4-8.578-1.874-16.44-5.936-20.518a1.666,1.666,0,0,0-2.3-.067,28.48,28.48,0,0,1-4.215,2.487A96.565,96.565,0,0,0,36.516,9.2c-5.177,3.632-6.587,9.254-6.949,12.631a20.818,20.818,0,0,0-8.421-1.771A21.437,21.437,0,0,0,3.714,53.552,21.429,21.429,0,0,0,21.146,87.034a21.211,21.211,0,0,0,20.177-14.99,20.972,20.972,0,0,0,23.808,3.632A1.709,1.709,0,0,0,65.9,73.4a1.672,1.672,0,0,0-2.249-.776A17.646,17.646,0,0,1,42.162,67.99a21.768,21.768,0,0,0,.128-2.346,21.441,21.441,0,0,0-3.713-12.093,21.22,21.22,0,0,0,3.393-8.37,17.634,17.634,0,0,1,9.794-6.239,1.684,1.684,0,0,0,.2-.044A17.788,17.788,0,0,1,73.6,56.467a18.267,18.267,0,0,1-.55,4.458,1.7,1.7,0,0,0,1.213,2.067,1.667,1.667,0,0,0,.416.053,1.685,1.685,0,0,0,1.627-1.28,21.8,21.8,0,0,0,.543-7.493C85.927,46.383,86.035,28.34,86.035,27.555Zm-64.89,56.08a17.992,17.992,0,0,1,0-35.981,17.992,17.992,0,0,1,0,35.981Zm0-39.381a20.967,20.967,0,0,0-15.2,6.537,18.033,18.033,0,0,1,15.2-27.332,17.908,17.908,0,0,1,17.784,17.99,18.494,18.494,0,0,1-.2,2.707c-.01.053-.018.106-.023.159a17.827,17.827,0,0,1-2.36,6.476A20.968,20.968,0,0,0,21.146,44.254Zm21.176-4.261a27.618,27.618,0,0,1,3.119-18.059,1.71,1.71,0,0,0-.637-2.316,1.67,1.67,0,0,0-2.289.644,31,31,0,0,0-3.476,9.8,21.445,21.445,0,0,0-6.224-6.444c.054-2.171.671-8.157,5.617-11.627A92.349,92.349,0,0,1,48.61,5.922c1.416-.754,2.586-1.377,3.5-1.951,2.783,3.656,4.341,10.069,4.023,16.88-.306,6.552-2.316,12.058-5.4,14.845A20.8,20.8,0,0,0,42.321,39.993Zm27.685.63a12.783,12.783,0,0,1,6.341-1.66,1.7,1.7,0,0,0,0-3.4,16.074,16.074,0,0,0-9.2,2.854,20.918,20.918,0,0,0-6.027-2.658,14.441,14.441,0,0,1,9.5-3.484,33.111,33.111,0,0,0,11.92-1.964c-.354,4.728-1.662,14.4-6.483,19.977A21.468,21.468,0,0,0,70.007,40.623Z" transform="translate(-0.001 0)"/></g></g></svg>