<svg xmlns="http://www.w3.org/2000/svg" width="156" height="208" viewBox="0 0 156 208"><defs><style>.a{fill:#fff;opacity:0;}.b{fill:#46c373;}.c{fill:#ff5a5a;}.d{fill:#a5dc69;}.e{fill:#ff8c8c;}</style></defs><g transform="translate(-1429 -218)"><rect class="a" width="156" height="208" transform="translate(1429 218)"/><g transform="translate(1441.958 257)"><path class="b" d="M397.636,33.283C403.246,25.722,410.214,19,418.88,19V10c-13.314,0-22.246,9.438-28.248,17.48Z" transform="translate(-291.48 -7.461)"/><path class="c" d="M110.567,108.584S77.944,180.6,10.04,180.6c41.861-41.861,44.144-63.679,69.574-97.3l3.62-4.638A19.088,19.088,0,0,1,108.7,74.417h0a19.088,19.088,0,0,1,6.676,24.489Z" transform="translate(-7.461 -53.224)"/><path class="d" d="M318.232,74.418h0a19.088,19.088,0,0,0-25.466,4.251l-1.948,2.5.076.284h4.238A11.164,11.164,0,0,1,306.3,92.614v1.334h3.2a11.164,11.164,0,0,1,11.164,11.164v1.644s.1.043.293.12l3.96-7.968A19.089,19.089,0,0,0,318.232,74.418Z" transform="translate(-216.993 -53.226)"/><g transform="translate(20.068 18.098)"><path class="e" d="M318.41,359.859c-19.343-19.343-30.235-34.406-38.866-48.332A142.973,142.973,0,0,1,256,336.449C271.776,349.4,292.53,359.859,318.41,359.859Z" transform="translate(-211.077 -250.576)"/><path class="e" d="M85.769,108.585a142.567,142.567,0,0,0,14.571,23.689c8.131-13.12,14.255-25.23,23.545-38.957-2.19-3.235-4.554-6.56-7.163-10.008l-3.62-4.638a19.088,19.088,0,0,0-25.466-4.251h0A19.088,19.088,0,0,0,80.96,98.908Z" transform="translate(-78.963 -71.324)"/></g><path class="b" d="M31.285,33.283C25.675,25.722,18.706,19,10.04,19V10c13.314,0,22.246,9.438,28.248,17.48Z" transform="translate(-7.461 -7.461)"/><path class="d" d="M87.636,74.418h0A19.088,19.088,0,0,1,113.1,78.669l1.948,2.5-.076.284h-4.238A11.164,11.164,0,0,0,99.572,92.614v1.334h-3.2a11.164,11.164,0,0,0-11.164,11.164v1.644s-.1.043-.293.12l-3.96-7.968A19.089,19.089,0,0,1,87.636,74.418Z" transform="translate(-58.896 -53.226)"/><path d="M127.4,14.077a2.537,2.537,0,0,0,2.536-2.537v-9A2.537,2.537,0,0,0,127.4,0c-13.8,0-23.076,9.22-29.069,16.91a21.622,21.622,0,0,0-24.558,6.974l-3.62,4.638-.023.03c-1.821,2.408-3.527,4.76-5.139,7.066-1.672-2.39-3.369-4.724-5.14-7.066l-.023-.03-3.62-4.639a21.622,21.622,0,0,0-24.559-6.974C25.655,9.22,16.379,0,2.579,0A2.537,2.537,0,0,0,.042,2.537v9a2.537,2.537,0,0,0,2.536,2.537c6.051,0,11.84,3.775,18.128,11.838a21.619,21.619,0,0,0-.913,20.9l4.79,9.639A142.786,142.786,0,0,0,38.375,79.161C29.983,92.5,19.2,107.173.785,125.587a2.537,2.537,0,0,0,1.794,4.331,95.559,95.559,0,0,0,45.552-11.554A113.088,113.088,0,0,0,64.99,107.227c18.973,15.056,39.96,22.69,62.411,22.69a2.537,2.537,0,0,0,1.794-4.331c-4.7-4.7-9.115-9.369-13.128-13.882a2.537,2.537,0,0,0-3.792,3.372c2.78,3.126,5.748,6.325,8.867,9.555-18.6-1.268-36.107-8.222-52.151-20.716A137.892,137.892,0,0,0,80.17,93.093c2.995-3.24,5.714-6.47,8.165-9.6,3.348,5.253,6.632,10.014,10.185,14.769a2.537,2.537,0,0,0,4.065-3.037C98.754,90.1,95.239,84.963,91.606,79.176A141.874,141.874,0,0,0,105.4,56.45l4.79-9.639a21.619,21.619,0,0,0-.913-20.9C115.561,17.853,121.351,14.08,127.4,14.077ZM5.116,9.17V5.206c9.869,1.03,17.019,7.931,21.934,14.071a21.655,21.655,0,0,0-3.106,2.546C19.5,16.3,13.252,10.241,5.116,9.17Zm20.749,18.16.013-.017a16.508,16.508,0,0,1,4.248-3.993,16.939,16.939,0,0,1,1.734-.985c.05-.022.1-.047.147-.073A16.419,16.419,0,0,1,51.084,25.71,13.722,13.722,0,0,0,38.192,38.186H37.48a13.717,13.717,0,0,0-12.4,7.873l-.748-1.505A16.554,16.554,0,0,1,25.864,27.329Zm2.984,26.3c0-.034.005-.068.005-.1V51.886A8.636,8.636,0,0,1,37.48,43.26h3.2a2.537,2.537,0,0,0,2.537-2.537V39.388a8.636,8.636,0,0,1,8.627-8.627h3.3l.677.867c2.116,2.8,4.125,5.584,6.112,8.476-5.3,7.954-9.593,15.386-13.787,22.65-2.228,3.858-4.473,7.745-6.882,11.728A145.252,145.252,0,0,1,28.849,53.633Zm71.946.68A150.2,150.2,0,0,1,76.443,89.648c-13.919,15.058-36.654,32.827-67.6,34.979a253.086,253.086,0,0,0,34.7-44.157c.041-.06.079-.121.114-.184C46.841,75.151,49.7,70.2,52.534,65.291,58.613,54.765,64.9,43.88,74.165,31.627l.676-.866h3.3a8.636,8.636,0,0,1,8.627,8.627v1.334A2.537,2.537,0,0,0,89.3,43.259h3.2a8.636,8.636,0,0,1,8.627,8.627V53.53c0,.035,0,.068.005.1l-.3.6C100.82,54.258,100.807,54.285,100.795,54.313Zm4.848-9.759-.748,1.505a13.717,13.717,0,0,0-12.4-7.873h-.711A13.722,13.722,0,0,0,78.894,25.709a16.42,16.42,0,0,1,19.083-3.447c.046.024.093.048.14.07a17.1,17.1,0,0,1,1.736.986,16.506,16.506,0,0,1,4.248,3.993l.013.018A16.553,16.553,0,0,1,105.643,44.553Zm.393-22.731a21.654,21.654,0,0,0-3.106-2.546c4.915-6.14,12.065-13.041,21.934-14.071V9.17C116.728,10.241,110.475,16.3,106.036,21.823Z" transform="translate(0)"/><path d="M413.729,405.857a2.538,2.538,0,0,0-.345,3.571l.093.113a2.537,2.537,0,0,0,3.922-3.22l-.1-.119A2.537,2.537,0,0,0,413.729,405.857Z" transform="translate(-308.027 -302.441)"/><path d="M219.634,294.786a2.537,2.537,0,0,0-3.567.385,119.68,119.68,0,0,1-26.056,24.383,2.537,2.537,0,1,0,2.835,4.208,124.73,124.73,0,0,0,27.173-25.409A2.537,2.537,0,0,0,219.634,294.786Z" transform="translate(-140.93 -219.567)"/><path d="M157.646,412.037l-.18.1a2.537,2.537,0,1,0,2.4,4.473l.2-.106a2.537,2.537,0,0,0-2.412-4.464Z" transform="translate(-116.479 -307.257)"/></g></g></svg>