<svg xmlns="http://www.w3.org/2000/svg" width="105" height="140" viewBox="0 0 105 140"><defs><style>.a,.e{fill:#fff;}.a{opacity:0;}.b{fill:#ff9155;}.c{fill:#ffcdac;}.d{fill:#ffe6c3;}</style></defs><g transform="translate(-771.23 -218)"><rect class="a" width="105" height="140" transform="translate(771.23 218)"/><g transform="translate(776.442 240.211)"><path class="b" d="M46.664,10v6.672A18.58,18.58,0,0,0,54.452,31.8l11.816,8.431A26.031,26.031,0,0,1,77.18,61.418v.262a30.117,30.117,0,0,1-14.8,25.933h0A30.116,30.116,0,0,1,47.063,91.8H40.155A30.117,30.117,0,0,1,24.86,87.624l-.023-.014A30.116,30.116,0,0,1,10.016,61.666v-.249a26.031,26.031,0,0,1,10.911-21.19L32.744,31.8a18.58,18.58,0,0,0,7.788-15.125V10Z" transform="translate(-8.148 -8.132)"/><path class="c" d="M240.716,158.668a16.665,16.665,0,0,0-.733,15.241l5.4,11.849a23.348,23.348,0,0,1-1.027,21.353l-.118.2a27.013,27.013,0,0,1-23.13,13.505h0a27.012,27.012,0,0,1-13.77-3.618l-4.786-2.763a27.014,27.014,0,0,1-10.009-10.1l-.012-.021a27.012,27.012,0,0,1,.122-26.8l.112-.193a23.348,23.348,0,0,1,17.979-11.566l12.96-1.25a16.665,16.665,0,0,0,12.833-8.255Z" transform="translate(-154.732 -127.073)"/><path class="d" d="M263.818,231.229a24.076,24.076,0,0,1-6.82,1.689l-12.96,1.25a15.909,15.909,0,0,0-12.227,7.866l-.112.193a19.622,19.622,0,0,0-.088,19.389l.012.021a19.559,19.559,0,0,0,7.241,7.307l4.786,2.763a19.555,19.555,0,0,0,9.772,2.618h.191a19.624,19.624,0,0,0,16.734-9.77l.116-.2a15.909,15.909,0,0,0,.7-14.524l-5.4-11.849A24.086,24.086,0,0,1,263.818,231.229Z" transform="translate(-187.313 -188.047)"/><g transform="translate(49.496 52.208)"><path class="e" d="M270.615,297.235l.008.014.01.018a12.084,12.084,0,0,0,4.474,4.514l4.786,2.763a12.089,12.089,0,0,0,6.037,1.618h.127a12.119,12.119,0,0,0,10.329-6.036l.113-.2a8.43,8.43,0,0,0,.374-7.7l-5.4-11.849q-.186-.409-.361-.822-.445.055-.892.1l-12.96,1.25a8.424,8.424,0,0,0-6.475,4.165l-.114.2A12.118,12.118,0,0,0,270.615,297.235Z" transform="translate(-269.066 -279.561)"/><path class="e" d="M310.389,328.141c4.918,2.751,8.183,2.862,9.591-.854,1.289-3.4-3.976-9.183-3.976-9.183s-7.683-1.46-9.906,1.417C303.669,322.665,305.471,325.39,310.389,328.141Z" transform="translate(-298.309 -310.604)"/></g><path d="M57.6,219.172a1.868,1.868,0,0,0-3.215-1.9,24.053,24.053,0,0,0-3.3,12.245v.2a28.093,28.093,0,0,0,.953,7.268,1.867,1.867,0,0,0,3.608-.967,24.356,24.356,0,0,1-.825-6.3v-.2A20.319,20.319,0,0,1,57.6,219.172Z" transform="translate(-41.55 -175.949)"/><path d="M70.7,351.525a1.867,1.867,0,0,0,3.2-1.933l-.012-.02a1.868,1.868,0,0,0-3.2,1.934Z" transform="translate(-57.278 -283.56)"/><path d="M92.386,57.911,87.045,46.063a14.964,14.964,0,0,1,.644-13.533,1.878,1.878,0,0,0-.676-2.551l-4.139-2.415a1.837,1.837,0,0,0-2.524.684,14.661,14.661,0,0,1-11.275,7.331L56.25,36.827A24.981,24.981,0,0,0,37.036,49.318l-.111.193a29.259,29.259,0,0,0-.132,28.647l.015.027a28.874,28.874,0,0,0,2.4,3.612H31.687A27.749,27.749,0,0,1,17.5,77.885l-.027-.016A28.422,28.422,0,0,1,3.711,53.534v-.249a24.29,24.29,0,0,1,10.023-19.67l11.693-8.431A20.553,20.553,0,0,0,33.908,8.539v-4.8H36.28v4.8a20.554,20.554,0,0,0,8.481,16.645l10.545,7.6a1.835,1.835,0,0,0,2.578-.436,1.88,1.88,0,0,0-.431-2.6l-10.545-7.6a16.8,16.8,0,0,1-6.932-13.6V1.868A1.858,1.858,0,0,0,38.128,0H32.06a1.858,1.858,0,0,0-1.848,1.868V8.54a16.8,16.8,0,0,1-6.932,13.6L11.587,30.575A28.043,28.043,0,0,0,.015,53.285v.249A32.3,32.3,0,0,0,4.184,69.4a31.873,31.873,0,0,0,11.4,11.684l.027.016a31.439,31.439,0,0,0,13.414,4.314v3.541a1.848,1.848,0,1,0,3.7,0V85.532h2.218v8.216a1.848,1.848,0,1,0,3.7,0V85.532h2.218v3.423a1.848,1.848,0,1,0,3.7,0V87.081a28.519,28.519,0,0,0,2.846,1.9l4.736,2.763a28.37,28.37,0,0,0,14.289,3.869H66.7a28.644,28.644,0,0,0,24.47-14.439l.116-.2A25.5,25.5,0,0,0,92.386,57.911Zm-4.3,21.194-.116.2a24.723,24.723,0,0,1-33.99,9.2l-4.736-2.763a25.036,25.036,0,0,1-9.217-9.4l-.015-.027a25.478,25.478,0,0,1,.112-24.947l.111-.193A21.281,21.281,0,0,1,56.6,40.545l12.824-1.25a18.342,18.342,0,0,0,13.116-7.611l1.1.642a18.753,18.753,0,0,0,.036,15.284L89.023,59.46A21.724,21.724,0,0,1,88.088,79.105Z" transform="translate(-0.015)"/><path d="M444.554,323.49l.009.019a1.868,1.868,0,0,0,3.393-1.561l-.009-.019a1.868,1.868,0,0,0-3.393,1.561Z" transform="translate(-362.399 -260.926)"/><path d="M264.57,248.181a1.866,1.866,0,0,0-2.062,1.65,13.921,13.921,0,0,1-1.789,5.456l-.116.2a17.747,17.747,0,0,1-15.132,8.837H245.3a17.7,17.7,0,0,1-8.838-2.368l-4.786-2.763a17.7,17.7,0,0,1-6.552-6.614l-.01-.017a17.746,17.746,0,0,1,.079-17.535l.112-.194a14.037,14.037,0,0,1,10.788-6.941l12.96-1.25a25.882,25.882,0,0,0,5.2-1.046,25.9,25.9,0,0,0,1.692,5.023l1.767,3.88a1.868,1.868,0,1,0,3.4-1.548l-1.767-3.88a22.191,22.191,0,0,1-1.8-6.227,1.868,1.868,0,0,0-2.559-1.478,22.186,22.186,0,0,1-6.291,1.558l-12.96,1.25a17.778,17.778,0,0,0-13.664,8.79l-.112.194a21.5,21.5,0,0,0-.094,21.246l.01.017a21.426,21.426,0,0,0,7.933,8.006l4.786,2.763a21.438,21.438,0,0,0,10.706,2.868h.209a21.5,21.5,0,0,0,18.334-10.705l.116-.2a17.63,17.63,0,0,0,2.266-6.909A1.867,1.867,0,0,0,264.57,248.181Z" transform="translate(-179.186 -179.913)"/><path d="M266.046,295.267l4.785,2.763a13.971,13.971,0,0,0,6.982,1.868h.134a13.992,13.992,0,0,0,11.928-6.971l.113-.2a10.3,10.3,0,0,0,.456-9.4l-5.4-11.849c-.117-.256-.231-.516-.339-.773a1.869,1.869,0,0,0-1.952-1.128q-.42.052-.841.093l-12.96,1.25a10.294,10.294,0,0,0-7.912,5.089l-.115.2a13.994,13.994,0,0,0-.068,13.813l.009.016.01.018A13.95,13.95,0,0,0,266.046,295.267Zm-1.883-17.191.115-.2a6.553,6.553,0,0,1,5.036-3.24l12.518-1.208,5.213,11.444a6.562,6.562,0,0,1-.292,5.99l-.113.2a10.236,10.236,0,0,1-8.722,5.1H277.8a10.222,10.222,0,0,1-5.1-1.367l-4.786-2.763a10.219,10.219,0,0,1-3.784-3.819l-.016-.029,0-.006A10.244,10.244,0,0,1,264.163,278.076Z" transform="translate(-211.457 -219.221)"/><path d="M301.339,321.56h0c2.7,1.509,4.893,2.247,6.74,2.247a5.638,5.638,0,0,0,5.51-4.069c1.613-4.256-3.333-9.995-4.341-11.1a1.867,1.867,0,0,0-1.033-.578c-1.471-.279-8.949-1.491-11.732,2.11a5.907,5.907,0,0,0-1.358,4.9C295.6,317.391,297.573,319.453,301.339,321.56Zm-1.9-9.109c.593-.768,2.395-1.061,4.336-1.061a21.625,21.625,0,0,1,3.126.233c1.787,2.117,3.73,5.382,3.2,6.791-.475,1.254-1.061,1.467-1.253,1.537-.755.274-2.352.211-5.68-1.651h0c-3.328-1.862-4.218-3.19-4.379-3.977C298.743,314.122,298.619,313.512,299.438,312.451Z" transform="translate(-240.644 -250.185)"/></g></g></svg>