<svg xmlns="http://www.w3.org/2000/svg" width="105" height="140" viewBox="0 0 105 140"><defs><style>.a{fill:#fff;opacity:0;}.b{fill:#46c373;}.c{fill:#a5dc69;}.d{fill:#f5b955;}</style></defs><g transform="translate(-549 -215.892)"><rect class="a" width="105" height="140" transform="translate(549 215.892)"/><g transform="translate(567.832 230.118)"><g transform="translate(8.545 16.701)"><path class="b" d="M255.906,90.778C260.455,82.3,269.975,76.464,281,76.464a45.132,45.132,0,0,0-11.646,15.352Z" transform="translate(-230.835 -76.464)"/><path class="b" d="M152.767,91.816a45.135,45.135,0,0,0-11.646-15.352c11.022,0,20.542,5.832,25.091,14.314Z" transform="translate(-141.121 -76.464)"/></g><g transform="translate(14.567 2.184)"><path class="c" d="M224.845,23.537c0-7.483,4.909-13.537,6.808-13.537,1.607,0,6.776,6.054,6.776,13.537l-6.762,7.313Z" transform="translate(-212.581 -10)"/><path class="c" d="M176.406,46.866a37.945,37.945,0,0,0-7.71-12.3c10.549,0,19.085,9.681,19.085,21.645Z" transform="translate(-168.696 -29.197)"/><path class="c" d="M255.942,56.208c0-11.964,8.536-21.645,19.085-21.645a37.949,37.949,0,0,0-7.71,12.3Z" transform="translate(-236.886 -29.198)"/></g><path class="d" d="M137.553,142h11.8A25.553,25.553,0,0,1,174.9,167.553v27.523A25.553,25.553,0,0,1,149.35,220.63h-11.8A25.553,25.553,0,0,1,112,195.076V167.553A25.553,25.553,0,0,1,137.553,142Z" transform="translate(-109.816 -110.985)"/><path d="M217.131,375.479a12.133,12.133,0,0,0,6.292-4.671,12.131,12.131,0,0,0,6.292,4.671,2.184,2.184,0,0,0,1.333-4.16,7.766,7.766,0,0,1-4.782-4.364L225.434,365a2.184,2.184,0,0,0-4.021,0l-.832,1.959a7.768,7.768,0,0,1-4.783,4.364,2.184,2.184,0,0,0,1.333,4.16Z" transform="translate(-189.757 -284.235)"/><path d="M232.661,292.975a6.873,6.873,0,0,1-4.232-3.861l-.757-1.782a2.184,2.184,0,0,0-4.021,0l-.757,1.783a6.872,6.872,0,0,1-4.231,3.861,2.184,2.184,0,0,0,1.333,4.16,11.237,11.237,0,0,0,5.666-4.1,11.237,11.237,0,0,0,5.666,4.1,2.184,2.184,0,0,0,1.333-4.16Z" transform="translate(-191.995 -223.534)"/><path d="M217.025,213.838a12.163,12.163,0,0,0,6.315-4.692,12.163,12.163,0,0,0,6.315,4.692,2.184,2.184,0,1,0,1.333-4.16,7.8,7.8,0,0,1-4.8-4.383l-.834-1.965a2.184,2.184,0,0,0-4.021,0l-.834,1.965a7.8,7.8,0,0,1-4.8,4.383,2.184,2.184,0,0,0,1.333,4.16Z" transform="translate(-189.673 -157.879)"/><path d="M178.85,276.45a2.184,2.184,0,1,0-1.37,4.148l.088.029a2.184,2.184,0,0,0,1.337-4.159Z" transform="translate(-159.822 -215.982)"/><path d="M166.672,180.509a2.185,2.185,0,0,0,.669-4.264,5.776,5.776,0,0,1-3.551-3.251l-.663-1.568a2.184,2.184,0,0,0-2.008-1.334h0a2.184,2.184,0,0,0-2.009,1.327l-.668,1.566a5.775,5.775,0,0,1-3.561,3.24,2.184,2.184,0,0,0,1.326,4.162,10.137,10.137,0,0,0,4.9-3.406A10.142,10.142,0,0,0,166,180.4,2.181,2.181,0,0,0,166.672,180.509Z" transform="translate(-142.139 -132.942)"/><path d="M289.861,180.509a2.177,2.177,0,0,0,.67-.106,10.138,10.138,0,0,0,4.894-3.422,10.14,10.14,0,0,0,4.9,3.406,2.184,2.184,0,0,0,1.326-4.162,5.776,5.776,0,0,1-3.561-3.24l-.668-1.566a2.184,2.184,0,0,0-2.009-1.327h0a2.184,2.184,0,0,0-2.008,1.334l-.663,1.568a5.775,5.775,0,0,1-3.551,3.251,2.185,2.185,0,0,0,.669,4.264Z" transform="translate(-247.122 -132.942)"/><path d="M328.459,478.995l-.035.021a2.187,2.187,0,0,0,1.162,4.038,2.161,2.161,0,0,0,1.16-.338l.034-.021a2.184,2.184,0,1,0-2.322-3.7Z" transform="translate(-278.172 -374.111)"/><path d="M152.032,30.9A44.3,44.3,0,0,1,162.076,18.4a2.184,2.184,0,0,0-1.369-3.886,32.539,32.539,0,0,0-9.441,1.392A35.513,35.513,0,0,1,156.249,9.1a2.184,2.184,0,0,0-1.541-3.732,19.511,19.511,0,0,0-11.3,3.654A21.49,21.49,0,0,0,140.624,3.7C139.4,2.012,137.546,0,135.639,0c-2.74,0-6.1,4.021-7.826,8.977a19.5,19.5,0,0,0-11.245-3.612A2.184,2.184,0,0,0,115.027,9.1a34.975,34.975,0,0,1,4.994,6.823,32.529,32.529,0,0,0-9.476-1.4,2.185,2.185,0,0,0-1.371,3.885,44.288,44.288,0,0,1,10.05,12.5A27.78,27.78,0,0,0,102,56.568V84.092a27.769,27.769,0,0,0,27.738,27.738h11.8a28.117,28.117,0,0,0,3.469-.215,2.184,2.184,0,0,0-.541-4.335,23.72,23.72,0,0,1-2.928.181h-11.8A23.334,23.334,0,0,1,111.6,98.806a13.622,13.622,0,0,0,4.777-4.532,13.628,13.628,0,0,0,7.34,5.657,2.184,2.184,0,0,0,1.333-4.16,9.266,9.266,0,0,1-5.705-5.206l-.957-2.254a2.184,2.184,0,0,0-4.021,0l-.957,2.254a9.264,9.264,0,0,1-4.246,4.6,23.224,23.224,0,0,1-2.792-11.068v-2.3a13.623,13.623,0,0,0,6.041-5.163,13.627,13.627,0,0,0,7.34,5.657,2.184,2.184,0,1,0,1.333-4.16,9.265,9.265,0,0,1-5.705-5.206l-.957-2.254a2.184,2.184,0,0,0-4.021,0l-.957,2.254a9.266,9.266,0,0,1-3.073,3.869V64.152a13.625,13.625,0,0,0,6.092-5.244,2.185,2.185,0,0,0,3.386-2.679,9.26,9.26,0,0,1-.469-.95l-.957-2.254a2.184,2.184,0,0,0-4.021,0l-.957,2.254a9.266,9.266,0,0,1-3.073,3.869V56.568A23.4,23.4,0,0,1,129.738,33.2h11.8A23.4,23.4,0,0,1,164.9,56.568v2.579a9.265,9.265,0,0,1-3.073-3.869l-.957-2.254a2.184,2.184,0,0,0-4.021,0l-.957,2.254a9.265,9.265,0,0,1-5.705,5.206,2.184,2.184,0,0,0,1.333,4.16,13.629,13.629,0,0,0,7.34-5.657,13.624,13.624,0,0,0,6.04,5.163V76.79a9.264,9.264,0,0,1-3.073-3.869l-.957-2.254a2.184,2.184,0,0,0-4.021,0l-.957,2.254a9.265,9.265,0,0,1-5.705,5.206,2.184,2.184,0,0,0,1.333,4.16,13.629,13.629,0,0,0,7.34-5.657,13.624,13.624,0,0,0,6.041,5.163v2.3a23.282,23.282,0,0,1-2.783,11.073,9.264,9.264,0,0,1-4.255-4.6l-.957-2.254a2.184,2.184,0,0,0-4.021,0l-.957,2.254a9.268,9.268,0,0,1-5.706,5.206,2.184,2.184,0,0,0,1.333,4.16,13.628,13.628,0,0,0,7.34-5.657,13.627,13.627,0,0,0,4.787,4.537q-.6.739-1.265,1.436a2.184,2.184,0,0,0,3.156,3.02,27.609,27.609,0,0,0,7.7-19.175V56.568A27.78,27.78,0,0,0,152.032,30.9Zm-6.845-12.415c-.184.1-.37.2-.552.309a29.778,29.778,0,0,0-6.075,4.668c1.605-5.98,5.649-10.738,10.79-12.722A39.627,39.627,0,0,0,145.187,18.481ZM135.581,4.559a15.724,15.724,0,0,1,4.22,7.655,24.05,24.05,0,0,0-4.164,6.437,24.041,24.041,0,0,0-4.2-6.482A14.843,14.843,0,0,1,135.581,4.559Zm-13.655,6.177c5.15,1.987,9.2,6.76,10.8,12.755a29.778,29.778,0,0,0-6.108-4.7c-.172-.1-.347-.195-.521-.292A39.644,39.644,0,0,0,121.926,10.735Zm1.511,18.818a45.5,45.5,0,0,0-6.892-10.038,25.7,25.7,0,0,1,15.083,9.315h-1.891A27.711,27.711,0,0,0,123.437,29.553Zm16.185-.722a25.7,25.7,0,0,1,15.083-9.315,45.5,45.5,0,0,0-6.89,10.033,27.715,27.715,0,0,0-6.282-.718Z" transform="translate(-102)"/></g></g></svg>