<svg xmlns="http://www.w3.org/2000/svg" width="105" height="140" viewBox="0 0 105 140"><defs><style>.a{fill:#fff;opacity:0;}.b{fill:#46c373;}.c{fill:#a5dc69;}.d{fill:#ff5a5a;}</style></defs><g transform="translate(-550.11 -778.814)"><rect class="a" width="105" height="140" transform="translate(550.11 778.814)"/><g transform="translate(554.79 800.509)"><path class="b" d="M287.085,103.575c4.434-4,11.247-7.626,21.2-7.159a34.948,34.948,0,0,1-6.937,21.291s-10.052-1.734-18.341,3.312C286.811,110.227,287.085,103.575,287.085,103.575Z" transform="translate(-230.458 -78.479)"/><g transform="translate(33.431 1.884)"><path class="c" d="M280.968,213.974s14.514-9.659,23.415-.758c7.994,7.994,13.8,8.764,18.214,5.663-3.857,8-10.409,12.588-15.443,13.357,0,0-2.448-7.827-12.3-5.053-6.215-5.513-10.928-5.107-10.928-5.107A16.723,16.723,0,0,0,280.968,213.974Z" transform="translate(-262.481 -172.138)"/><path class="c" d="M201.092,52.981s9.659-14.514.758-23.415c-7.994-7.994-8.764-13.8-5.663-18.214-8.066,3.887-12.658,10.51-13.374,15.559,0,0,7.7,3.049,6,13.174,3.576,1.337,5.1,4.23,4.9,9.878A12,12,0,0,1,201.092,52.981Z" transform="translate(-182.812 -11.352)"/></g><g transform="translate(1.883 16.808)"><circle class="d" cx="9.408" cy="9.408" r="9.408" transform="translate(34.033 25.097)"/><path class="d" d="M121.144,240.658a9.4,9.4,0,0,1-8.744-4.372,9.406,9.406,0,1,0,10.272,12.758A9.413,9.413,0,0,1,121.144,240.658Z" transform="translate(-86.72 -208.846)"/><path class="d" d="M193.819,320.39a9.489,9.489,0,0,1-.908-.8,9.385,9.385,0,0,1-2.721-7.429,9.4,9.4,0,0,1-9.179-2.205,9.409,9.409,0,1,0,12.809,10.43Z" transform="translate(-144.056 -268.645)"/><path class="d" d="M259.2,369.112l-.055-.052a9.38,9.38,0,0,1-1.954-2.854l.01-.006a9.416,9.416,0,0,1-10.179-.847,9.4,9.4,0,0,1-6.309,7.213,9.406,9.406,0,0,0,18.487-3.454Z" transform="translate(-197.264 -313.605)"/><path class="d" d="M122.044,106.38a9.409,9.409,0,0,1,10.451-1.954,9.409,9.409,0,1,0-12.1,4.182A9.4,9.4,0,0,1,122.044,106.38Z" transform="translate(-95.049 -90.594)"/><path class="d" d="M151.252,174.6a9.368,9.368,0,0,1,5.875-2.721,9.411,9.411,0,1,0-8.239,6.68A9.364,9.364,0,0,1,151.252,174.6Z" transform="translate(-114.465 -146.75)"/><path class="d" d="M330.435,311.322a9.409,9.409,0,0,0,1.954-10.451,9.409,9.409,0,1,1-4.182,12.1A9.4,9.4,0,0,0,330.435,311.322Z" transform="translate(-268.276 -260.372)"/><path class="d" d="M258.769,282.111a9.368,9.368,0,0,0,2.721-5.875,9.411,9.411,0,1,1-6.68,8.239A9.366,9.366,0,0,0,258.769,282.111Z" transform="translate(-208.677 -240.954)"/><path class="d" d="M145.852,182.331c.08-.133.164-.264.251-.393C146.016,182.068,145.932,182.2,145.852,182.331Z" transform="translate(-120.266 -164.734)"/><path class="d" d="M82.22,183.418a9.416,9.416,0,0,1-.214-9.637c-.04.071-.085.14-.123.212a9.382,9.382,0,0,1-2.854-1.954,9.537,9.537,0,0,1-.673-.749,9.405,9.405,0,0,0-3.544,18.471,9.4,9.4,0,0,1,7.407-6.342Z" transform="translate(-56.54 -155.978)"/><path class="d" d="M106.032,327.136q-.294-.358-.627-.692t-.692-.627a9.413,9.413,0,0,1-9.061-1.6A9.408,9.408,0,1,0,107.637,336.2,9.413,9.413,0,0,1,106.032,327.136Z" transform="translate(-74.402 -280.213)"/><path class="d" d="M175,395.354c-.112-.1-.223-.206-.331-.315a9.361,9.361,0,0,1-2.553-4.719l.045-.016a9.36,9.36,0,0,1-10.352-3.077c.031.038.058.079.089.117a9.422,9.422,0,0,1-5.261,5.582A9.406,9.406,0,1,0,175,395.354Z" transform="translate(-128.668 -331.359)"/><path class="d" d="M46.1,267.8a9.36,9.36,0,0,1-3.077-10.352c-.005.015-.011.03-.016.045a9.362,9.362,0,0,1-4.719-2.553q-.162-.162-.315-.331A9.406,9.406,0,1,0,40.4,272.97a9.421,9.421,0,0,1,5.582-5.261C46.024,267.74,46.064,267.768,46.1,267.8Z" transform="translate(-24.735 -223.71)"/><path class="d" d="M41.048,415.4a9.408,9.408,0,0,1-12.3.873A9.408,9.408,0,0,0,40.175,427.7,9.409,9.409,0,0,1,41.048,415.4Z" transform="translate(-24.988 -354.23)"/><path class="d" d="M97.626,419.086a9.4,9.4,0,0,1-2.315-9.493,9.408,9.408,0,0,1-10.064-1.831,9.408,9.408,0,1,0,13.3,12.13A9.461,9.461,0,0,1,97.626,419.086Z" transform="translate(-67.337 -348.027)"/><path class="d" d="M25.668,338.2a9.384,9.384,0,0,1-10.3-3.236,9.407,9.407,0,1,0,12.13,13.3A9.408,9.408,0,0,1,25.668,338.2Z" transform="translate(-10 -288.94)"/></g><path d="M94.771,48.539a1.849,1.849,0,0,0-2.278-.1c-1.487,1.056-6.011,4.271-15.635-5.454a14.42,14.42,0,0,0-3.506-2.618,37.815,37.815,0,0,0,6.277-21.056,1.875,1.875,0,0,0-1.777-1.9A30.441,30.441,0,0,0,56.925,23.86a14.523,14.523,0,0,0-2.693-3.744,1.85,1.85,0,0,0-2.636,0,1.9,1.9,0,0,0,0,2.664c6.682,6.752.946,17.754-.618,20.437A10.98,10.98,0,0,0,47.913,41.8a12.665,12.665,0,0,0,.544-14.632,1.852,1.852,0,0,0-2.573-.578,1.9,1.9,0,0,0-.572,2.6A9.114,9.114,0,0,1,46,37.87a11.252,11.252,0,0,0-4.7-6.712,11.412,11.412,0,0,0-2.693-11.575,11.15,11.15,0,0,0-2.4-1.844,20.509,20.509,0,0,1,7.6-10.18,11.359,11.359,0,0,0,.163,2.914,1.865,1.865,0,1,0,3.666-.683,6.967,6.967,0,0,1,1.2-5.472,1.9,1.9,0,0,0-.1-2.3,1.85,1.85,0,0,0-2.23-.478C38.775,5.3,34.207,11.4,32.689,16.461A11.094,11.094,0,0,0,22.8,19.582,11.391,11.391,0,0,0,20.26,31.569a11.132,11.132,0,0,0-6.3,3.182,11.4,11.4,0,0,0-2.22,12.782,11.152,11.152,0,0,0-5.083,2.935A11.391,11.391,0,0,0,4.591,63.56a11.365,11.365,0,0,0-1.318,17.1c.092.093.186.18.28.269a11.433,11.433,0,0,0,3.161,9.559,11.176,11.176,0,0,0,7.928,3.3,11.016,11.016,0,0,0,1.532-.108c.088.095.175.191.266.283a11.1,11.1,0,0,0,15.8,0,11.273,11.273,0,0,0,1.128-1.335A11.1,11.1,0,0,0,46.324,90.55a11.327,11.327,0,0,0,2.9-5.137A11.1,11.1,0,0,0,61.877,83.17a11.338,11.338,0,0,0,3.086-5.978,11.111,11.111,0,0,0,12.628-2.247A11.367,11.367,0,0,0,80.633,64.7a21,21,0,0,0,6.906-3.877,29.439,29.439,0,0,0,7.706-10.034A1.9,1.9,0,0,0,94.771,48.539ZM75.843,21.131a32.842,32.842,0,0,1-6.135,17.9,19.818,19.818,0,0,0-9.551.5l-.121.035L64.6,34.959a1.9,1.9,0,0,0,0-2.664,1.85,1.85,0,0,0-2.636,0l-4.212,4.256a20.4,20.4,0,0,0,.453-8.864A25.858,25.858,0,0,1,75.843,21.131Zm-11.6,41.325a7.515,7.515,0,0,1-2.181,5.32,7.4,7.4,0,0,1-9.777.663l0,0a7.487,7.487,0,0,1-2.91-5.45,11.108,11.108,0,0,0,3.384-2.34A11.247,11.247,0,0,0,55.786,55a7.394,7.394,0,0,1,6.274,2.132A7.513,7.513,0,0,1,64.241,62.456ZM44.335,75.316c-.03.009-.06.019-.089.03A7.4,7.4,0,0,1,36.693,73.5a7.559,7.559,0,0,1,1.472-11.8,11.075,11.075,0,0,0,6.689,2.243c.288,0,.576-.014.864-.037a11.311,11.311,0,0,0,3.177,6.527c.041.042.085.08.126.121a7.494,7.494,0,0,1-1.8,2.942A7.4,7.4,0,0,1,44.335,75.316ZM31.228,76.362a7.435,7.435,0,0,1-2.348,1.605c-.032.013-.064.027-.1.041a7.394,7.394,0,0,1-7.933-1.5c-.1-.1-.2-.2-.3-.3a7.6,7.6,0,0,1-1.481-8.021c.013-.029.026-.059.037-.089a7.521,7.521,0,0,1,1.59-2.376,7.4,7.4,0,0,1,1.943-1.414A11.1,11.1,0,0,0,31,65.941a11.521,11.521,0,0,0-.22,2.242A11.3,11.3,0,0,0,32.627,74.4a7.474,7.474,0,0,1-1.4,1.962ZM27.261,48.581a11.158,11.158,0,0,0,6.46,3.206A11.4,11.4,0,0,0,35.3,58.525,7.489,7.489,0,0,1,34.057,60.2a7.4,7.4,0,0,1-10.531,0,7.515,7.515,0,0,1-2.181-5.32,7.615,7.615,0,0,1,.356-2.3c.013-.037.026-.073.036-.111a7.5,7.5,0,0,1,1.789-2.906,7.375,7.375,0,0,1,2.968-1.836A11.469,11.469,0,0,0,27.261,48.581ZM52.3,52.664a7.515,7.515,0,0,1-2.181,5.32h0a7.4,7.4,0,0,1-10.364.16l-.018-.017c-.05-.048-.1-.094-.149-.143a7.589,7.589,0,0,1,0-10.641,7.392,7.392,0,0,1,10.531,0A7.515,7.515,0,0,1,52.3,52.664ZM42.537,41.616a11.062,11.062,0,0,0-5.585,3.063A11.233,11.233,0,0,0,34.636,48.1,7.435,7.435,0,0,1,29.9,45.917a7.577,7.577,0,0,1-1.025-1.293c-.013-.021-.026-.042-.04-.063A7.587,7.587,0,0,1,29.9,35.277a7.392,7.392,0,0,1,10.531,0A7.614,7.614,0,0,1,42.537,41.616Zm-17.1-19.371a7.4,7.4,0,0,1,10.531,0,7.6,7.6,0,0,1,1.894,7.391,11.114,11.114,0,0,0-10.6,2.976,11.422,11.422,0,0,0-.916,1.051,7.478,7.478,0,0,1-.906-.777A7.589,7.589,0,0,1,25.439,22.246ZM16.6,37.414a7.41,7.41,0,0,1,5.922-2.168c.094.1.187.2.286.3A11.2,11.2,0,0,0,24.568,37a11.478,11.478,0,0,0,.067,7.4,11.1,11.1,0,0,0-3.745,2.5,11.314,11.314,0,0,0-2,2.738,7.421,7.421,0,0,1-2.3-1.577q-.128-.129-.248-.264l-.012-.014A7.582,7.582,0,0,1,16.6,37.414Zm-7.3,15.717a7.427,7.427,0,0,1,4.9-2.189,11.115,11.115,0,0,0,3.547,2.285,11.578,11.578,0,0,0-.118,1.651,11.284,11.284,0,0,0,2.2,6.733,11.275,11.275,0,0,0-3.766,4.206,7.37,7.37,0,0,1-6.76-2.045,7.647,7.647,0,0,1-.617-.709l-.034-.044a7.581,7.581,0,0,1,.651-9.888ZM5.909,67.36a7.488,7.488,0,0,1,.9-.776,11.071,11.071,0,0,0,7.732,3.161c.107,0,.215,0,.322-.006a11.614,11.614,0,0,0-.076,1.3,11.286,11.286,0,0,0,2.05,6.518c-.128.152-.26.3-.4.442a7.4,7.4,0,0,1-9.719.709L6.7,78.7a7.574,7.574,0,0,1-.8-11.337ZM9.35,87.829a7.5,7.5,0,0,1-2.15-4.6,11.079,11.079,0,0,0,6.195.512A11.472,11.472,0,0,0,13.9,90,7.355,7.355,0,0,1,9.35,87.829Zm9.726,3.477a7.519,7.519,0,0,1-.688-.8l-.013-.017a7.594,7.594,0,0,1,.7-9.821c.14-.141.287-.275.437-.4a11.011,11.011,0,0,0,6.45,2.072,11.2,11.2,0,0,0,1.288-.077,11.313,11.313,0,0,0,3.122,8.139,7.534,7.534,0,0,1-.767.911A7.4,7.4,0,0,1,19.075,91.306Zm14.805-2.78-.012-.009a7.508,7.508,0,0,1-2.736-7.461A11.25,11.25,0,0,0,35.3,77.249a11.014,11.014,0,0,0,6.663,2.225h0a11.228,11.228,0,0,0,1.634-.12,11.261,11.261,0,0,0,2.262,3.585,7.575,7.575,0,0,1-2.167,4.947A7.4,7.4,0,0,1,33.88,88.526Zm25.361-8.019a7.392,7.392,0,0,1-10.531,0,7.5,7.5,0,0,1-1.561-2.321,11.29,11.29,0,0,0,5.034-5.447,11.1,11.1,0,0,0,8.167.417,11.242,11.242,0,0,0,1.036,1.358A7.588,7.588,0,0,1,59.241,80.507Zm15.714-8.225a7.4,7.4,0,0,1-10.482.046h0l-.052-.051a7.5,7.5,0,0,1-.765-.911,11.258,11.258,0,0,0,4.314-8.91,11.487,11.487,0,0,0-.328-2.731,7.377,7.377,0,0,1,7.314,1.915A7.59,7.59,0,0,1,74.956,72.281Zm4.335-11.1a11.258,11.258,0,0,0-1.7-2.206,11.067,11.067,0,0,0-11.455-2.721,11.362,11.362,0,0,0-1.44-1.784,11.11,11.11,0,0,0-7.467-3.3,8.893,8.893,0,0,1,4.636-1.2,7.493,7.493,0,0,1,5.554,2.545,1.85,1.85,0,0,0,2.631.17,1.9,1.9,0,0,0,.168-2.658,11.166,11.166,0,0,0-8.264-3.823,12.586,12.586,0,0,0-6.885,1.878,11.212,11.212,0,0,0-1.026-1.843c2.734-1.619,13.535-7.311,20.179-.6,5.538,5.6,10.584,8.231,15.074,7.88A20.014,20.014,0,0,1,79.29,61.183Z" transform="translate(0 -1.351)"/><path d="M249.056,67.436a1.883,1.883,0,0,0-.566,2.6l.04.062a1.883,1.883,0,0,0,3.159-2.052l-.03-.047A1.883,1.883,0,0,0,249.056,67.436Z" transform="translate(-201.952 -54.746)"/><path d="M356.573,141.33a1.884,1.884,0,1,0-1.332-.552A1.9,1.9,0,0,0,356.573,141.33Z" transform="translate(-288.609 -111.909)"/></g></g></svg>