<svg xmlns="http://www.w3.org/2000/svg" width="156" height="208" viewBox="0 0 156 208"><defs><style>.a{fill:#fff;opacity:0;}.b{fill:#ff5a5a;}.c{fill:#a5dc69;}</style></defs><g transform="translate(-1420 -484)"><rect class="a" width="156" height="208" transform="translate(1420 484)"/><g transform="translate(1431.981 522.001)"><path class="b" d="M85.623,120.491h0a80.21,80.21,0,0,1-23.983,0h0A44.624,44.624,0,0,0,21.7,134.875l-.323.362a44.623,44.623,0,0,0-11.354,29.738h0a44.622,44.622,0,0,0,16.867,34.94l.347.275a87.6,87.6,0,0,0,46.392,18.634h.008a87.6,87.6,0,0,0,46.395-18.635l.345-.274a44.623,44.623,0,0,0,16.867-34.94h0a44.622,44.622,0,0,0-11.353-29.738l-.323-.362A44.625,44.625,0,0,0,85.623,120.491Z" transform="translate(-7.416 -88.96)"/><g transform="translate(29.504 2.57)"><path class="c" d="M150.745,142.569c9.329-6.17,8.106-14.068,8.106-14.068s3.212,3.085,9.635,2.221,12.847,3.578,12.847,3.578S179.8,122.084,169.1,117.4c7.8-1.6,8.412-6.664,18.353-9.872-16.517-10.242-36.706.169-36.706.169s-20.188-10.411-36.706-.169c9.941,3.208,10.553,8.268,18.353,9.872-10.706,4.689-12.235,16.906-12.235,16.906s6.423-4.442,12.847-3.578,9.635-2.221,9.635-2.221S141.416,136.4,150.745,142.569Z" transform="translate(-114.039 -78.946)"/><path class="c" d="M235.99,42.169V37.175a26.188,26.188,0,0,1,9.473-20.16l7.037-5.834a5.384,5.384,0,0,1,7.03.136h0a5.384,5.384,0,0,1-.217,8.2L256.6,21.7a26.188,26.188,0,0,0-9.765,20.4h0Z" transform="translate(-204.454 -9.941)"/></g><path d="M120.4,44.554l-.324-.363a47.23,47.23,0,0,0-15.246-11.314,2.576,2.576,0,0,0-.552-3.928c-8.012-4.968-19.317-6.625-27.493-4.436a23.572,23.572,0,0,1,6.487-8.166l2.713-2.184A7.97,7.97,0,1,0,75.9,1.819L68.863,7.653A28.677,28.677,0,0,0,58.731,25.8c-8.686-2.529-19.066-4-30.589,3.145a2.576,2.576,0,0,0-.553,3.926,47.166,47.166,0,0,0-6.75,3.853,2.586,2.586,0,1,0,2.926,4.266A42.019,42.019,0,0,1,33.909,35.9a34.674,34.674,0,0,1,4.007,2.84,30.656,30.656,0,0,0,4.053,2.84c-7.575,6.077-8.854,15.55-8.913,16.022a2.586,2.586,0,0,0,4.037,2.448c.056-.039,5.747-3.853,11.031-3.142a16.742,16.742,0,0,0,7.705-.652c.744,3.388,2.919,8.1,8.954,12.092a2.587,2.587,0,0,0,2.853,0c6.035-3.991,8.21-8.7,8.954-12.092a16.748,16.748,0,0,0,7.705.652c5.326-.716,10.979,3.107,11.031,3.142A2.586,2.586,0,0,0,99.365,57.6c-.059-.472-1.338-9.945-8.913-16.022a30.687,30.687,0,0,0,4.053-2.84A34.67,34.67,0,0,1,98.516,35.9a42.063,42.063,0,0,1,17.7,11.738l.324.363a42.037,42.037,0,0,1-5.195,60.928l-.394.313a84.588,84.588,0,0,1-44.744,18.024A84.806,84.806,0,0,1,21.427,109.2l-.347-.275A41.814,41.814,0,0,1,5.191,76.013,42.249,42.249,0,0,1,9.664,57.145a2.586,2.586,0,0,0-4.622-2.321,47.21,47.21,0,0,0,12.822,58.155l.347.275A89.905,89.905,0,0,0,65.971,132.39q.119.011.239.011t.237-.011a89.693,89.693,0,0,0,47.725-19.1l.394-.313A47.209,47.209,0,0,0,120.4,44.554Zm-29.1-9.876c-2.223,1.75-3.979,3.133-7.263,3.808a2.586,2.586,0,0,0-.516,4.9,18.03,18.03,0,0,1,9.109,9.594,19.316,19.316,0,0,0-9.028-1.2c-4.812.647-7.262-1.323-7.513-1.538a2.531,2.531,0,0,0-2.963-.468,2.608,2.608,0,0,0-1.371,2.743c.009.059.769,5.53-5.55,10.487-6.093-4.786-5.6-10.091-5.548-10.5a2.555,2.555,0,0,0-4.335-2.262c-.251.215-2.7,2.184-7.513,1.538a19.329,19.329,0,0,0-9.053,1.208,17.987,17.987,0,0,1,9.134-9.6,2.586,2.586,0,0,0-.516-4.9c-3.284-.675-5.04-2.058-7.263-3.808a36.289,36.289,0,0,0-5.521-3.76c8.11-3.314,15.935-1.92,22.728.111.044.013.087.021.131.032V34.8a2.586,2.586,0,0,0,5.172,0V29.8a23.531,23.531,0,0,1,8.538-18.169L79.2,5.8a2.815,2.815,0,0,1,3.653.07,2.8,2.8,0,0,1-.113,4.263l-2.713,2.184A28.644,28.644,0,0,0,69.3,34.732a2.586,2.586,0,0,0,5.172,0,23.837,23.837,0,0,1,.323-3.913c.026-.013.054-.025.08-.039,2.859-1.595,7.292-2.3,12.161-1.947a34.284,34.284,0,0,1,9.691,2.14A36.449,36.449,0,0,0,91.305,34.678Z"/><path d="M44.789,172.445a2.587,2.587,0,0,0,3.652-.206l.324-.363A2.586,2.586,0,0,0,44.9,168.44l-.315.353A2.586,2.586,0,0,0,44.789,172.445Z" transform="translate(-32.552 -124.24)"/><path d="M290.071,407.633a2.6,2.6,0,0,0,.63-.078,79.01,79.01,0,0,0,30.165-14.894l.395-.313a2.586,2.586,0,0,0-3.216-4.051l-.4.314a73.869,73.869,0,0,1-28.2,13.927,2.586,2.586,0,0,0,.626,5.1Z" transform="translate(-213.128 -287.468)"/><path d="M244.9,457.462q.12,0,.241-.011l.222-.021a2.586,2.586,0,0,0-.494-5.149l-.2.019a2.586,2.586,0,0,0,.235,5.162Z" transform="translate(-179.64 -335.313)"/></g></g></svg>