<svg xmlns="http://www.w3.org/2000/svg" width="156" height="208" viewBox="0 0 156 208"><defs><style>.a{fill:#fff;opacity:0;}.b{fill:#46c373;}.c{fill:#a5dc69;}.d{fill:#d7fa91;}.e{fill:#ff5a5a;}</style></defs><g transform="translate(-1523 -722)"><rect class="a" width="156" height="208" transform="translate(1523 722)"/><g transform="translate(1534 758.981)"><circle class="b" cx="56.361" cy="56.361" r="56.361" transform="translate(2.609 18.282)"/><g transform="translate(32.786 18.281)"><path class="c" d="M125.645,126.364C125.645,95.237,137.368,70,151.829,70s26.184,25.233,26.184,56.361-11.723,56.361-26.184,56.361S125.645,157.491,125.645,126.364Z" transform="translate(-125.645 -70.003)"/><path class="c" d="M190.261,228.826l-16.009,16.009a50.1,50.1,0,0,0,70.85-70.85l-1.517,1.517-41.112,41.112" transform="translate(-161.568 -146.852)"/></g><path class="d" d="M209.844,242.057l-13.392,13.392a41.907,41.907,0,0,0,59.265-59.265l-1.269,1.269-34.39,34.39" transform="translate(-145.189 -144.977)"/><path class="e" d="M230.213,255.822,219.545,266.49a33.384,33.384,0,0,0,47.212-47.212l-1.011,1.011-27.4,27.4" transform="translate(-162.256 -162.045)"/><path d="M72.526,434.121a2.609,2.609,0,0,0-3.558,3.818h0a2.609,2.609,0,0,0,3.6-3.781Z" transform="translate(-50.365 -320.309)"/><path d="M117.311,203.022a118.4,118.4,0,0,0-1.666,20.049c0,13.057,1.986,25.4,5.742,35.688a2.609,2.609,0,1,0,4.9-1.789c-3.549-9.723-5.425-21.445-5.425-33.9a113.162,113.162,0,0,1,1.59-19.163,2.609,2.609,0,0,0-5.143-.887Z" transform="translate(-85.468 -148.43)"/><path d="M133.327,163.892a2.607,2.607,0,0,0,3.246-1.756l.075-.248a2.609,2.609,0,0,0-4.99-1.527l-.087.286A2.609,2.609,0,0,0,133.327,163.892Z" transform="translate(-97.158 -117.137)"/><path d="M118.165,43.569a2.609,2.609,0,0,0-3.69,0l-3.413,3.413A58.969,58.969,0,0,0,67.145,16.237a11.405,11.405,0,0,0,2.009-3.819A9.665,9.665,0,0,0,62.723.376,8.254,8.254,0,0,0,52.438,5.868a2.609,2.609,0,1,0,4.993,1.517,3.03,3.03,0,0,1,3.775-2.016A4.44,4.44,0,0,1,64.161,10.9a6.2,6.2,0,0,1-7.729,4.128A8.374,8.374,0,0,1,50.608,8.5a2.609,2.609,0,1,0-5.133.939A13.605,13.605,0,0,0,49.1,16.49,58.987,58.987,0,0,0,11.179,109.2a2.609,2.609,0,1,0,4.226-3.061A53.761,53.761,0,0,1,45.12,22.7a41.3,41.3,0,0,0-6.013,8.9,2.609,2.609,0,0,0,4.64,2.387c4.347-8.45,9.754-13.1,15.223-13.1,5.835,0,11.721,5.466,16.149,15,4.789,10.308,7.426,24.071,7.426,38.754a2.6,2.6,0,0,0,.11.748l-39.031,39.03a2.609,2.609,0,0,0,0,3.69,52.464,52.464,0,0,0,14.524,10.276,53.592,53.592,0,0,1-27.608-8.117,2.609,2.609,0,1,0-2.764,4.426,59.126,59.126,0,0,0,42.7,7.793,53.1,53.1,0,0,0,10.42,1.035,52.691,52.691,0,0,0,37.27-89.953Zm-60.809,64.5A35.993,35.993,0,0,0,108.124,57.3l2.348-2.348a39.306,39.306,0,0,1-55.465,55.465ZM104.423,61a30.774,30.774,0,0,1-43.365,43.365ZM72.845,22.736a54.115,54.115,0,0,1,34.341,28.122l-19.5,19.5C86.992,49.524,81.234,31.993,72.845,22.736Zm41.63,91.683a47.551,47.551,0,0,1-65.265,1.8l2.1-2.1a44.525,44.525,0,0,0,62.86-62.86l2.1-2.1a47.492,47.492,0,0,1-1.8,65.266Z" transform="translate(0 0)"/><path d="M329.658,333.081a2.609,2.609,0,0,0,3.69-3.69l-.807-.807a2.609,2.609,0,1,0-3.69,3.69Z" transform="translate(-242.475 -242.264)"/><path d="M294.624,366.5l.807.806a2.609,2.609,0,0,0,3.69-3.69l-.807-.806a2.609,2.609,0,0,0-3.69,3.691Z" transform="translate(-217.179 -267.56)"/><path d="M338.163,375.215a2.61,2.61,0,0,0,0,3.69l.807.807a2.609,2.609,0,0,0,3.69-3.69l-.807-.807A2.609,2.609,0,0,0,338.163,375.215Z" transform="translate(-249.357 -276.726)"/><path d="M371.462,340.289a2.609,2.609,0,0,0,0,3.69l.807.806a2.609,2.609,0,0,0,3.69-3.69l-.807-.806A2.609,2.609,0,0,0,371.462,340.289Z" transform="translate(-273.967 -250.914)"/><path d="M361.411,301.326a2.609,2.609,0,0,0,3.69-3.69l-.807-.807a2.609,2.609,0,0,0-3.69,3.69Z" transform="translate(-265.943 -218.795)"/></g></g></svg>