<svg xmlns="http://www.w3.org/2000/svg" xmlns:xlink="http://www.w3.org/1999/xlink" width="1920" height="1080" viewBox="0 0 1920 1080"><defs><style>.a{fill:#fff;}.b{clip-path:url(#a);}.c{fill:#aa59ab;}.d{opacity:0.1;mix-blend-mode:screen;isolation:isolate;}.e{fill:#fbeff9;}.f{opacity:0.04;}</style><clipPath id="a"><rect class="a" width="1920" height="1080"/></clipPath></defs><g class="b"><g transform="translate(-444)"><rect class="c" width="2808" height="1080" transform="translate(0 0)"/><g transform="translate(0.011)"><g class="d"><path class="e" d="M234.651,0Q180.975,150.174,127.407,300.276,80.643,431.064,33.879,561.888,16.977,609.354,0,656.856V80.784L15.339,0Z" transform="translate(-0.003)"/></g><g class="d" transform="translate(0 910.548)"><path class="e" d="M29.631,363.522c-12.96,1.26-20.88,3.492-29.628,9.432V252.93Q14.853,308.226,29.631,363.522Z" transform="translate(-0.003 -252.93)"/></g></g></g><g class="f" transform="translate(-29.294 -112)"><rect class="c" width="1949" height="1392" transform="translate(0)"/><path class="a" d="M78.8,213.821c7.6-20.639-3.5-32.573-20.762-42.236C39.129,161,19.66,150.66,0,140.945v9.412c6.457,3.477,12.885,6.954,19.306,10.287,11.3,5.868,24.112,10.793,34.622,17.977,24.76,16.919,19.393,36.854,2.387,53.856C41.047,247.742,21.144,256.47,0,262.227V270.3C32.836,261.6,66.94,246.044,78.8,213.821Z" transform="translate(0 419.756)"/><path class="a" d="M433.075,189.445a337.017,337.017,0,0,1-35.561-7.737c-12.559-3.5-15.654-.9-15.105-15.3.573-15.053,3.437-11.33,16.4-11.572,28.289-.525,56.812,1.476,85.125,1.651a3210.147,3210.147,0,0,0,323.086-14.294q29.782-2.828,59.7-6.083v-8.239c-22.668,2.741-45.379,5.239-68.178,7.356A3239.086,3239.086,0,0,1,441.37,148.6c-8.887-.159-95.4-9.75-74.666,26.339,7.415,12.913,31.988,14.791,44.6,17.631,26.733,6.015,54.115,8.7,81.445,9.965,119.552,5.522,240.758-.736,360.289-5.024q6.838-.245,13.689-.5v-8q-134.77,5.46-269.659,6.83C542.53,196.351,487.091,198.372,433.075,189.445Z" transform="translate(1082.573 380.807)"/><path class="a" d="M1371.933,73.74c-165.487.716-331-1.627-496.354-8.454C711.373,58.507,547.859,44.62,384.023,32.323,257.617,22.839,127.8,14.044,0,22.056v13c110.744-4.694,221.265-2.49,332.733,5.16C494.9,51.343,656.622,66.929,819.026,74.794c329.3,15.952,659.216,12.953,988.658,3.266q70.795-2.083,141.61-4.38v-13.7C1756.919,66.687,1564.535,72.9,1371.933,73.74Z" transform="translate(0 56.358)"/><path class="a" d="M1507.059,92.58c-140.751,4.189-281.55-1.448-422.193-6.659C796.307,75.223,503.435,78.763,219.4,20.877,188.016,14.48,156.779,7.451,125.642,0H88.534c163.108,40.319,329.041,67.43,498.2,76.5,148.421,7.96,297.124,11.839,445.653,17.377,142.875,5.331,285.862,11.978,428.873,9.782,73.938-1.134,149.427-4,224.364-11.553V79.782C1626.551,86.358,1567.153,90.789,1507.059,92.58Z" transform="translate(263.668)"/><path class="a" d="M941.609,140.6c-127.675,4.905-254.7,22.846-382.6,22.492-64.526-.179-129.218-5.1-192.312-19.115-13-2.888-27.016-5.494-39.551-10.045l-9.886-4.288q-9.571-14.823,4.277-17.6c5.613-5.916,18.8-8.2,26.494-10.988,29.8-10.813,61.073-17.233,92.512-20.905,57.739-6.743,116.059-4.619,174.036-3.6A1897.011,1897.011,0,0,0,804.5,70.533c81.663-6.739,162.921-15.948,244.31-23.9V36.949c-75.943,7.463-151.755,17.906-227.328,24.6-68.87,6.106-137.763,9.09-206.9,7.9-60.766-1.046-121.922-3.238-182.354,4.73-30.481,4.022-60.667,10.653-89.489,21.486-11.334,4.257-42.435,10.1-40.267,25.973,2.749,20.114,40.394,23.933,54.441,27.238A766.606,766.606,0,0,0,449.69,164.52c136.323,14.827,273.379-2.431,409.427-11.93,63.471-4.432,126.378-5.6,189.694-4.249v-6.823C1013.116,140.441,977.416,139.227,941.609,140.6Z" transform="translate(900.482 110.04)"/><path class="a" d="M1752.714,243.241c-80.021,3.417-160.1,6.1-240.2,6.087-80.036-.02-161.231-3.222-238.343-26.626-70.584-21.426-135.1-58.192-203.769-84.564-69.021-26.506-141.917-38.628-215.238-45.606C695.19,77.3,534.134,70.183,373.8,59.478,249.263,51.164,124.659,42.177,0,34.734v8.641C265.772,63.989,532.149,78.14,797.969,97.354c78.238,5.653,157.057,13.5,232.252,37.013,70.56,22.059,135.154,58.893,204.1,85.081,142.975,54.31,304.022,41.719,453.967,36.4,87.03-3.091,174.016-7.455,261-11.549V232.93C1883.718,236.6,1818.166,240.448,1752.714,243.241Z" transform="translate(0 103.443)"/><path class="a" d="M685.976,128.372c-8.469-5.776-78.087-32.032-228.5-48.637-35.179-2.777-70.346-4.654-105.206-5.959-53.363-2-106.929-2.411-160.3-.195-40.9,1.7-82.041,6.982-116.584,30.6a4.134,4.134,0,0,0,.971,7.447c80.442,27.549,164.568,39.181,248.861,47.543,86.274,8.557,173.475,19.712,260.163,22.222a521.246,521.246,0,0,0,63.451-1.639c13.709-1.277,34.5-.967,46.413-8.43C714.8,159.075,700.079,137.991,685.976,128.372Zm-13.16,39.42c-21.824,3.664-44.122,4.909-66.224,5.056-35.441.239-70.8-2.848-106.065-6.023-137.851-12.408-281.136-16.76-413.589-60.341,37.339-22.111,81.218-24.2,123.955-25.305q77.1-2,154.225,1.384C449.185,86.212,651.76,120.9,669.3,129.657c6.126,3.059,17.106,7.773,20.667,13.844C702.927,165.611,683.168,166.053,672.817,167.792Z" transform="translate(218.771 214.692)"/><path class="a" d="M858.9,93.882c-66.59-13.176-168.363-34.272-396.49-30.7-181.42,2.844-329.148,24.279-386.465,48.84-18.017,7.722-55.591,18.387-49.329,44.957,6.222,26.419,42.053,39.089,63.642,48.179,68.778,28.965,143.5,39.4,217.3,46.155,86.254,7.893,172.887,12.165,259.483,13.39,79.289,1.122,160.546,2.912,239.337-7.491,55.989-7.4,129.246-25.762,163.948-75.3C1010.25,124.943,891.936,100.418,858.9,93.882Zm108.321,77.968c-2.952,5.927-10.63,13.669-15.459,18.113a192.138,192.138,0,0,1-41.389,28.686c-25.771,13.418-54.079,21.494-82.559,26.717-65.707,12.058-134.143,10.976-200.69,11.354q-111.593.633-223.047-6.13c-71.066-4.336-143-9.007-212.887-23.232-33.285-6.775-66.113-15.988-97.481-29.1-14.839-6.2-30.715-12.595-43.5-22.5C36.5,165.11,32.981,144.344,49.057,132.983c6.882-4.861,16.123-8.028,23.805-11.441,88.108-39.149,317.9-50.344,364.192-52,28.7.736,214.689,1.742,296.551,12.046q57.757,7.262,114.953,18.343c32.4,6.278,67.995,11.572,96.263,29.729C949.07,132.386,977.275,151.68,967.226,171.849Z" transform="translate(77.206 186.98)"/><path class="a" d="M1766.45,107.585c-84.082,3.31-168.224,5.191-252.374,4.893-82.1-.294-165.185-7.045-247.047,1.134-76.846,7.678-148.218,35.585-221.675,57.441-79.121,23.543-160.224,31.618-242.488,33.651-82.638,2.045-165.376,1.719-248.034,2.359-81.624.637-163.59,3.457-245.189.788-46.266-1.516-92.77-6.011-137.326-19.139-43.247-12.742-82.189-34.94-121.055-57.254C34.642,121.914,17.536,112.271,0,103.471v8.808c20.567,10.741,40.649,22.584,60.36,34.1,63.555,37.12,127.357,60.826,201.032,67.788,79.945,7.554,161.314,3.135,241.494,2.494,83.346-.664,166.7-1.158,250.043-2.013,77.8-.8,156.222-2.936,232.654-18.864,75.5-15.734,146.5-47.4,221.726-64.1,82.2-18.256,166.688-12.579,250.182-11.354,82.686,1.217,165.4.223,248.054-2.279q121.761-3.688,243.749-10.272V97.711C1888.385,101.618,1827.455,105.182,1766.45,107.585Z" transform="translate(0 290.998)"/><path class="a" d="M1720.073,130.657c-162.989,8.088-326.419,10.128-488.875,26.765-165.129,16.907-326.368,62.779-492.38,70.915-168.312,8.247-340.025-8.577-506.952-29.578-47.646-6-95.046-14.174-141.189-27.676C60.13,162.148,30.142,151.462,0,141.258v8.489c66.539,21.737,131.816,42.948,201.808,53.188,79.921,11.688,160.9,18.077,241.362,24.848,84.074,7.073,168.463,12.01,252.867,10.268,166.147-3.433,325.711-47.575,489.905-67.342,162.129-19.521,325.576-22.524,488.553-29.661,90.587-3.966,183.146-8.2,274.8-18.347v-9.424C1873.129,121.785,1796.6,126.857,1720.073,130.657Z" transform="translate(0 337.353)"/><g transform="translate(0 790.556)"><path class="a" d="M495.6,347.211c-17.265,9.667-28.36,21.6-20.762,42.236,7.471,20.285,23.774,33.941,43.012,43.461h20.36c-15.28-5.6-29.406-13.327-40.883-24.8-17.007-17-22.373-36.937,2.387-53.856,10.51-7.185,23.324-12.109,34.622-17.977,2.689-1.392,5.375-2.821,8.064-4.257v-9.854C526.567,330.221,510.905,338.646,495.6,347.211Z" transform="translate(1406.894 168.888)"/><path class="a" d="M1454.687,350.527c-83.12,7.26-165.272,14.608-248.841,12.257-168.745-4.754-336.13-32.939-505.118-32.227-85.14.362-168.9,12.034-253.412,20.806-84.142,8.736-167.337,7.606-251.59,1.118C130.567,347.46,65.353,340.884,0,339.452v8.808c82.539,1.731,164.747,11.728,247.155,16.394C417.845,374.317,585.21,334.662,755.9,339.7c170.138,5.024,338.947,33.623,509.37,32.12,82.467-.728,163.916-12.869,246.152-17.07,85.232-4.356,166.386,5.319,243.757,43.02,6.779,3.3,13.486,6.719,20.173,10.176H1792c-34.853-18.789-70.334-36.138-108.783-46.879C1608.892,340.3,1530.741,343.88,1454.687,350.527Z" transform="translate(0 193.853)"/><path class="a" d="M385.22,383.376c27.334-1.265,54.715-3.954,81.445-9.969,12.611-2.84,37.18-4.718,44.6-17.627,20.738-36.094-65.779-26.5-74.662-26.343A3237.191,3237.191,0,0,1,79.42,316.054C52.854,313.592,26.4,310.632,0,307.334v8.322q35.529,4,70.942,7.368a3210.218,3210.218,0,0,0,323.086,14.293c28.316-.175,56.836-2.176,85.128-1.651,12.961.243,15.829-3.477,16.4,11.572.549,14.409-2.546,11.807-15.105,15.3a336.829,336.829,0,0,1-35.561,7.738c-54.015,8.927-109.455,6.906-163.987,6.4Q140.391,375.374,0,369.373v8.056q12.466.453,24.931.919C144.463,382.636,265.669,388.894,385.22,383.376Z" transform="translate(0 124.731)"/><path class="a" d="M1576.518,212.165c-163.84,12.3-327.354,26.184-491.556,32.963-165.356,6.826-330.871,9.17-496.358,8.454-196.354-.851-392.48-7.288-588.6-14.15v13.657q76.428,2.542,152.853,4.814c329.443,9.687,659.359,12.686,988.658-3.262,162.4-7.869,324.124-23.455,486.293-34.582,107.7-7.391,214.51-9.707,321.49-5.629V201.177C1825.128,194.363,1699.212,202.959,1576.518,212.165Z" transform="translate(0 -198.724)"/><path class="a" d="M200.936,333.253c136.049,9.5,273.1,26.761,409.427,11.93a767.242,767.242,0,0,0,92.778-15.63c14.047-3.31,51.692-7.129,54.441-27.242,2.168-15.869-28.933-21.717-40.267-25.973-28.822-10.833-59.008-17.464-89.489-21.486-60.428-7.968-121.588-5.776-182.354-4.73-69.14,1.185-138.034-1.8-206.9-7.9C159.269,235.187,79.7,224,0,216.474v9.774c85.148,8.175,170.134,17.9,255.552,24.947a1897.05,1897.05,0,0,0,189.921,6.027c57.978-1.022,116.3-3.147,174.036,3.6,31.439,3.672,62.712,10.093,92.512,20.905,7.69,2.789,20.881,5.072,26.495,10.988q13.85,2.781,4.277,17.6-4.941,2.148-9.886,4.288c-12.535,4.551-26.55,7.157-39.551,10.045-63.094,14.023-127.786,18.936-192.312,19.115-127.9.354-254.924-17.587-382.6-22.492-39.567-1.524-79,.123-118.445,1.249v6.719C67.119,327.48,133.71,328.558,200.936,333.253Z" transform="translate(0 -145.864)"/><path class="a" d="M1586.734,238.759c-160.332,10.705-321.387,17.822-481.356,33.055-73.321,6.982-146.217,19.1-215.238,45.605-68.671,26.371-133.185,63.137-203.769,84.564-77.113,23.4-158.3,26.61-238.343,26.626-80.1.016-160.184-2.669-240.2-6.087C138.631,419.57,69.327,415.441,0,411.594v11.453l.823.036c90.463,4.233,180.918,8.828,271.421,12.042,149.945,5.323,310.992,17.914,453.971-36.4,68.949-26.188,133.539-63.018,204.1-85.081,75.2-23.515,154.014-31.36,232.253-37.013,262.069-18.944,524.686-32.883,786.727-53.025v-8.887C1828.386,222.019,1707.53,230.7,1586.734,238.759Z" transform="translate(0 -151.078)"/><path class="a" d="M889.986,284c-34.542-23.622-75.68-28.905-116.584-30.6-53.367-2.216-106.937-1.806-160.3.2-34.861,1.3-70.024,3.182-105.206,5.959-150.41,16.6-220.027,42.865-228.5,48.637-14.1,9.619-28.826,30.7-9.273,42.952,11.915,7.463,32.7,7.153,46.413,8.43a521.29,521.29,0,0,0,63.455,1.639c86.688-2.506,173.885-13.665,260.163-22.222,84.289-8.362,168.415-19.994,248.857-47.543A4.131,4.131,0,0,0,889.986,284Zm-425.137,62.64c-35.266,3.175-70.624,6.262-106.066,6.027-22.1-.151-44.4-1.4-66.224-5.06-10.351-1.739-30.111-2.18-17.15-24.291,3.56-6.071,14.54-10.785,20.67-13.844,17.536-8.764,220.111-43.445,304.177-47.093q77.061-3.348,154.225-1.384c42.741,1.106,86.616,3.194,123.955,25.3C745.985,329.876,602.7,334.228,464.849,346.636Z" transform="translate(776.39 -40.36)"/><path class="a" d="M1129.974,291.837c-57.321-24.561-205.046-46-386.465-48.84-228.131-3.576-329.9,17.52-396.494,30.7-33.027,6.536-151.341,31.061-111.424,88.036,34.7,49.536,107.959,67.9,163.952,75.3,78.787,10.4,160.045,8.617,239.333,7.491,86.6-1.225,173.229-5.5,259.483-13.391,73.8-6.751,148.52-17.193,217.3-46.154,21.589-9.09,57.421-21.76,63.642-48.179C1185.561,310.224,1147.987,299.558,1129.974,291.837Zm25.727,63.726c-12.782,9.91-28.659,16.3-43.493,22.5-31.372,13.112-64.2,22.325-97.485,29.1-69.884,14.222-141.821,18.9-212.887,23.232q-111.384,6.791-223.047,6.13c-66.547-.378-134.983.7-200.69-11.354-28.48-5.223-56.788-13.3-82.559-26.717a192.012,192.012,0,0,1-41.385-28.686c-4.833-4.444-12.511-12.185-15.463-18.113C228.645,331.491,256.85,312.2,261.1,309.468c28.265-18.156,63.865-23.451,96.259-29.729q57.148-11.075,114.953-18.347c81.866-10.3,267.849-11.306,296.555-12.042,46.29,1.659,276.08,12.853,364.188,52,7.682,3.413,16.927,6.58,23.805,11.441C1172.938,324.155,1169.418,344.921,1155.7,355.563Z" transform="translate(677.411 -68.072)"/><path class="a" d="M1909.274,311.823c-38.866,22.313-77.809,44.511-121.055,57.254-44.555,13.128-91.056,17.623-137.326,19.139-81.6,2.669-163.562-.151-245.189-.788-82.658-.641-165.4-.314-248.034-2.359-82.26-2.033-163.367-10.108-242.488-33.651-73.457-21.856-144.825-49.763-221.671-57.441-81.866-8.179-164.954-1.428-247.051-1.134-84.15.3-168.292-1.583-252.37-4.893C129.33,285.4,64.653,281.537,0,277.336v10.2q127.508,7.22,254.992,10.876c82.654,2.5,165.368,3.5,248.054,2.283,83.493-1.229,167.977-6.906,250.182,11.35,75.231,16.708,146.229,48.37,221.726,64.1,76.432,15.929,154.85,18.069,232.654,18.868,83.346.851,166.7,1.345,250.043,2.009,80.18.641,161.549,5.06,241.494-2.494,73.675-6.962,137.477-30.668,201.036-67.788,16.1-9.4,32.454-19.039,49.114-28.106v-9.042C1935.673,296.761,1922.326,304.328,1909.274,311.823Z" transform="translate(0 35.393)"/><path class="a" d="M1869.859,351.832c-46.143,13.5-93.542,21.681-141.189,27.676-166.923,21-338.64,37.824-506.952,29.578-166.012-8.131-327.251-54.007-492.38-70.915-162.456-16.633-325.882-18.677-488.871-26.765C160.168,307.42,79.873,302.069,0,292.772v9.436c95.324,11.059,191.751,15.459,286.041,19.588,162.977,7.137,326.423,10.14,488.553,29.661,164.2,19.771,323.758,63.909,489.905,67.342,84.4,1.742,168.793-3.194,252.867-10.268,80.462-6.771,161.441-13.16,241.362-24.852,66.045-9.659,127.894-29.092,190.566-49.52v-8.322C1922.927,334.845,1896.608,344.007,1869.859,351.832Z" transform="translate(0 81.363)"/></g><path class="a" d="M1742.908,200.305c-157.785-11.8-311.943-51.784-471.077-45.45-81.568,3.242-162.579,14.194-244.024,19.278-77.709,4.849-155.617,5.132-233.45,4.511-156.441-1.253-313.741-6.667-469.322,13.518-84.21,10.924-165.372,31.825-246.562,56.2C52.444,256.178,26.3,264.007,0,271.247v7.769c84.17-22.174,167.027-51.485,252.565-67.41,156.473-29.128,316.458-27.028,474.944-25.011,77.916.991,155.868,2.025,233.768-.5,79.5-2.578,158.4-11.246,237.627-17.7,79.34-6.464,157.948-7.037,237.165,1.444,77.642,8.314,154.531,22.246,232.006,31.873,93.188,11.58,187.339,9.436,281.22,9.866v-8C1880.4,203.909,1811.392,205.425,1742.908,200.305Z" transform="translate(0 459.169)"/><path class="a" d="M1732.732,182.99c-153.425-12.587-306.326-7.475-459.6,4.706-155.255,12.336-310.077,28.11-465.686,35.676-154.885,7.531-309.914,12.483-464.867,18.447-114.1,4.392-228.39,7.586-342.575,12.173v10.184c93.928-3.537,187.848-7.992,281.7-11.517,156.449-5.872,312.933-11.31,469.35-18,155.812-6.671,310.805-20.277,466.14-33.643,154.408-13.287,309.592-23.38,464.529-13.812,88.7,5.478,178.138,16.859,267.574,23.133v-9.217C1877.194,196.182,1805.154,188.93,1732.732,182.99Z" transform="translate(0 523.263)"/></g></g></svg>