<svg xmlns="http://www.w3.org/2000/svg" xmlns:xlink="http://www.w3.org/1999/xlink" width="1920" height="1080" viewBox="0 0 1920 1080"><defs><style>.a{fill:#fff;}.b{clip-path:url(#a);}.c{fill:#aa59ab;}.d{opacity:0.1;mix-blend-mode:screen;isolation:isolate;}.e{fill:#fbeff9;}.f{fill:#184655;}.g{fill:#13375b;}.h{fill:#466eb6;}.i{fill:#ffc131;}.j{fill:#7e047f;}.k{fill:#2a1536;}.l{fill:#220301;}</style><clipPath id="a"><rect class="a" width="1920" height="1080"/></clipPath></defs><g class="b"><g transform="translate(-444)"><rect class="c" width="2808" height="1080" transform="translate(0 0)"/><g transform="translate(0.011)"><g transform="translate(390.082 0.011)"><g class="d" transform="translate(288.986)"><path class="e" d="M602.572,0Q548.9,150.145,495.324,300.254q-46.737,130.8-93.514,261.63Q365.485,663.717,329.069,765.55q-20.606,57.769-41.256,115.51-28.82,80.838-57.733,161.676c-15.012-11.765-23.508-14.987-41.447-15.908q24.57-129.681,49.14-259.366,18.981-100.343,38.048-200.653v-.032q23.792-125.8,47.678-251.568Q353.308,157.566,383.26,0Z" transform="translate(-188.633 -0.003)"/></g><g class="d"><path class="e" d="M606.275,1021.121c-17.845,1.735-26.1,5.35-40.172,17.788q-34.765-78.927-69.577-157.849-25-56.819-50.04-113.6Q402.3,667.065,358.073,566.7,301.427,438.3,244.828,309.787,176.572,154.861,108.359,0H332.535Q375.016,158.385,417.5,316.871,451,441.822,484.534,566.809,511.156,666.2,537.781,765.55,572.05,893.32,606.275,1021.121Z" transform="translate(-108.359 -0.003)"/></g></g><g class="d"><path class="e" d="M234.651,0Q180.975,150.174,127.407,300.276,80.643,431.064,33.879,561.888,16.977,609.354,0,656.856V80.784L15.339,0Z" transform="translate(-0.003)"/></g><g class="d" transform="translate(0 910.548)"><path class="e" d="M29.631,363.522c-12.96,1.26-20.88,3.492-29.628,9.432V252.93Q14.853,308.226,29.631,363.522Z" transform="translate(-0.003 -252.93)"/></g><g transform="translate(2146.388 0.011)"><g class="d" transform="translate(288.969 0.148)"><path class="e" d="M1048.4.044v117.5q-32.638,91.33-65.2,182.6-46.769,130.788-93.5,261.648Q853.364,663.61,816.945,765.433,796.322,823.213,775.7,880.95q-28.815,80.843-57.751,161.687c-15-11.761-23.5-15-41.454-15.9q24.57-129.692,49.176-259.387,18.927-100.31,38.016-200.653v-.036Q787.464,440.882,811.365,315.1,841.211,157.54,871.1.044Z" transform="translate(-676.491 -0.044)"/></g><g class="d"><path class="e" d="M1094.134,1021.121c-17.842,1.735-26.1,5.35-40.169,17.788q-34.77-78.927-69.581-157.849-25-56.819-50.036-113.6-44.183-100.4-88.416-200.758Q789.286,438.3,732.687,309.787,664.431,154.861,596.222,0H820.394q42.487,158.382,84.971,316.868,33.491,124.951,67.029,249.937,26.628,99.392,53.248,198.742Q1059.914,893.32,1094.134,1021.121Z" transform="translate(-596.222 -0.003)"/></g></g><g transform="translate(1257.721 0.011)"><g class="d" transform="translate(288.99)"><path class="e" d="M843.58,0Q789.909,150.145,736.333,300.254q-46.732,130.8-93.514,261.63Q606.5,663.717,570.077,765.55q-20.606,57.769-41.256,115.51Q500,961.9,471.088,1042.736c-15.008-11.765-23.508-14.987-41.443-15.908q24.57-129.681,49.14-259.366Q497.76,667.119,516.83,566.809v-.032q23.793-125.8,47.678-251.568Q594.316,157.566,624.268,0Z" transform="translate(-429.645 -0.003)"/></g><g class="d"><path class="e" d="M847.286,1021.121c-17.842,1.735-26.1,5.35-40.172,17.788q-34.765-78.927-69.577-157.849-25-56.819-50.036-113.6-44.188-100.4-88.416-200.758Q542.438,438.3,485.839,309.787,417.583,154.861,349.37,0H573.545q42.487,158.382,84.971,316.868,33.491,124.951,67.028,249.937Q752.167,666.2,778.792,765.55,813.061,893.32,847.286,1021.121Z" transform="translate(-349.37 -0.003)"/></g></g></g></g><g transform="translate(-182.298 148.116)"><g transform="translate(324.774 31.028)"><g transform="translate(-443.541 -463.506)"><path class="f" d="M2131.224,400.326c-2.976,8.473-6.479,17.532-10.521,26.593-9.251,20.727-19.474,37.4-30.381,49.542-13.421,14.947-27.9,23-43.033,23.946-14.61.9-28.734-6.062-42.024-20.718-1.59-1.754-3.166-3.63-4.731-5.6q.854-1.844,1.7-3.729c13.734-30.789,21.3-61.542,23.22-69.893l-4.59.006c-2.214,9.442-9.641,38.777-22.741,68.128-.219.492-.443.971-.664,1.458-7.994-10.907-15.627-24.651-22.772-41.037-4.207-9.649-7.868-19.366-10.984-28.473l-4.719.006c3.25,9.607,7.11,19.938,11.58,30.2,7.713,17.7,16.018,32.415,24.761,43.916-8.5,17.928-17.762,32.541-27.582,43.477-13.423,14.946-27.9,23-43.034,23.946-14.607.907-28.735-6.063-42.024-20.719-10.852-11.971-21.143-29.016-30.583-50.667-4.438-10.179-8.269-20.434-11.493-29.967a167.074,167.074,0,0,0,16.944-30.128c1.484-3.325,2.87-6.649,4.163-9.923l-4.875.006c-4.75,11.772-10.726,24.12-17.989,34.74-4.89-15.068-8.162-27.8-9.821-34.7l-4.6.005c1.693,7.148,5.42,21.841,11.186,39.186-10.018,13.215-22.259,22.881-36.849,23.79-26.68,1.66-45.979-32.272-57.885-62.864l-4.84.006c1.428,3.736,2.962,7.529,4.61,11.309,7.263,16.665,15.226,29.839,23.666,39.153,10.2,11.256,21.159,16.941,32.61,16.926q1.055,0,2.117-.067c12.435-.775,24.216-7.268,35.014-19.3q1.656-1.844,3.281-3.867c3.045,8.809,6.589,18.148,10.633,27.425,9.637,22.111,20.192,39.579,31.375,51.919,13.432,14.822,27.837,22.309,42.865,22.289q1.381,0,2.769-.089c16.353-1.018,31.866-9.579,46.106-25.446,9.731-10.843,18.9-25.128,27.324-42.534,1.168,1.419,2.34,2.793,3.523,4.1,13.431,14.821,27.837,22.308,42.864,22.288.921,0,1.845-.031,2.769-.089,16.354-1.018,31.866-9.579,46.106-25.446,11.222-12.5,21.7-29.578,31.143-50.747,4.321-9.688,8.031-19.372,11.147-28.357Z" transform="translate(-123.513 -12.236)"/><path class="f" d="M980.434,401.857c-11.384,32.51-31.675,73.727-61.021,71.966-14.593-.87-26.86-10.5-36.912-23.692a450.641,450.641,0,0,0,12.129-43.87l-4.378-.908c-.053.256-3.706,17.639-10.994,40.3-9.17-13.332-16.316-29.4-21.534-43.63l-4.8.006c2.174,6.045,4.694,12.447,7.571,18.85a167.125,167.125,0,0,0,17.024,30.082c-3.2,9.542-7,19.809-11.414,30-9.382,21.675-19.627,38.749-30.448,50.748-13.251,14.692-27.37,21.7-41.968,20.831-15.135-.9-29.636-8.92-43.1-23.831-9.85-10.911-19.15-25.5-27.7-43.4,8.711-11.524,16.977-26.262,24.644-43.982a402.93,402.93,0,0,0,14.4-39.172l-4.688.006a395.589,395.589,0,0,1-13.84,37.448c-7.1,16.405-14.7,30.169-22.663,41.1-.221-.487-.445-.965-.667-1.455-15.922-35.423-23.563-70.843-23.638-71.2l-4.374.931c.077.357,7.8,36.183,23.9,72.035q.848,1.885,1.705,3.724c-1.559,1.975-3.131,3.855-4.716,5.612-13.251,14.693-27.372,21.7-41.969,20.832-15.135-.9-29.635-8.92-43.1-23.831-10.942-12.118-21.207-28.76-30.513-49.462a366.317,366.317,0,0,1-13.644-35.5l-4.7.006a373.5,373.5,0,0,0,14.236,37.266c9.5,21.143,20.022,38.189,31.278,50.665,14.282,15.828,29.817,24.348,46.172,25.322q1.389.082,2.769.081c15.026-.02,29.415-7.546,42.805-22.4,1.179-1.307,2.349-2.685,3.513-4.106,8.468,17.383,17.676,31.643,27.437,42.461,14.282,15.828,29.818,24.348,46.173,25.322q1.388.083,2.769.081c15.026-.02,29.414-7.546,42.805-22.4,11.15-12.37,21.658-29.866,31.236-52,4.018-9.288,7.537-18.638,10.56-27.454q1.632,2.014,3.292,3.859c10.83,12,22.628,18.464,35.065,19.206q1.061.063,2.118.061c11.448-.015,22.395-5.73,32.564-17.012,8.416-9.338,16.344-22.532,23.562-39.215,2.965-6.853,5.568-13.749,7.812-20.268Z" transform="translate(-23.401 -12.368)"/><g transform="translate(308.596 258.913)"><path class="g" d="M1055.572,284.363l54.476,52.07,53.306-51.223,5.559,5.312-53.306,51.224,53.443,51.081-5.545,5.327-53.442-51.081-53.822,51.719-5.559-5.313L1104.5,341.76l-54.477-52.07Z" transform="translate(-372.751 -261.115)"/><path class="g" d="M1176.845,284.2l44.964,52.082,43.975-51.211,4.588,5.314L1226.4,341.6l44.111,51.094-4.574,5.326-44.111-51.093-44.4,51.706-4.588-5.314,44.4-51.707-44.965-52.083Z" transform="translate(-383.328 -261.101)"/><path class="g" d="M933.329,284.526,987.805,336.6l53.306-51.223,5.559,5.313-53.307,51.223,53.443,51.081-5.545,5.328-53.442-51.081L934,398.955l-5.559-5.313,53.823-51.719-54.476-52.07Z" transform="translate(-362.173 -261.129)"/><path class="g" d="M811.086,284.689l54.476,52.07,53.306-51.223,5.559,5.313L871.12,342.071l53.443,51.081-5.545,5.327L865.576,347.4l-53.822,51.719-5.559-5.313,53.822-51.719-54.477-52.07Z" transform="translate(-351.596 -261.143)"/><path class="g" d="M688.842,284.851l54.477,52.07L796.625,285.7l5.559,5.313-53.306,51.223,53.443,51.081-5.545,5.327-53.442-51.081L689.51,399.28l-5.559-5.313,53.823-51.719L683.3,290.179Z" transform="translate(-341.018 -261.157)"/><path class="g" d="M566.6,285.014l54.477,52.069,53.306-51.223,5.559,5.313L626.634,342.4l53.442,51.081-5.545,5.327L621.09,347.724l-53.822,51.719-5.559-5.313,53.822-51.719-54.476-52.07Z" transform="translate(-330.441 -261.171)"/><path class="g" d="M444.356,285.177l54.476,52.07,53.306-51.223,5.559,5.313L504.39,342.56l53.443,51.081-5.545,5.327-53.443-51.081-53.822,51.719-5.559-5.313,53.823-51.719L438.81,290.5Z" transform="translate(-319.863 -261.185)"/><path class="g" d="M322.112,285.339l54.476,52.07,53.306-51.223,5.559,5.313-53.306,51.224L435.59,393.8l-5.545,5.327L376.6,348.05l-53.822,51.719-5.559-5.313,53.822-51.719-54.476-52.07Z" transform="translate(-309.286 -261.199)"/><g transform="translate(0.158 22.906)"><rect class="g" width="855.554" height="7.525" transform="translate(0 1.139) rotate(-0.076)"/><rect class="g" width="879.554" height="7.525" transform="translate(-23.857 108.796) rotate(-0.076)"/></g><path class="g" d="M1896.425,283.244l54.477,52.07,53.3-51.223,5.559,5.313-53.306,51.223,53.443,51.081-5.545,5.328-53.442-51.081-53.822,51.719-5.559-5.313,53.823-51.719-54.476-52.07Z" transform="translate(-445.508 -261.018)"/><path class="g" d="M1774.182,283.406l54.477,52.07,53.306-51.223,5.559,5.313-53.306,51.224,53.442,51.081-5.544,5.327-53.442-51.081-53.822,51.719-5.56-5.313,53.823-51.719-54.477-52.07Z" transform="translate(-434.93 -261.032)"/><path class="g" d="M2143.948,282.914l54.476,52.07,53.306-51.223,5.559,5.313L2203.984,340.3l53.441,51.081-5.545,5.327-53.442-51.081-53.821,51.719-5.56-5.313,53.823-51.719-54.477-52.07Z" transform="translate(-466.925 -260.989)"/><path class="g" d="M2021.705,283.077l54.476,52.07,53.307-51.223,5.558,5.313-53.307,51.224,53.443,51.081-5.545,5.327L2076.2,345.787l-53.822,51.719-5.559-5.313,53.823-51.719L2016.16,288.4Z" transform="translate(-456.348 -261.003)"/><path class="g" d="M2269.227,282.747l54.477,52.07,53.306-51.223,5.559,5.313-53.306,51.224,53.442,51.081-5.545,5.327-53.442-51.081L2269.9,397.176l-5.56-5.313,53.823-51.719-54.476-52.07Z" transform="translate(-477.765 -260.975)"/><path class="g" d="M1651.938,283.569l54.476,52.07,53.306-51.223,5.558,5.313-53.306,51.224,53.443,51.081-5.544,5.327-53.443-51.081L1652.607,398l-5.558-5.313,53.823-51.719-54.476-52.07Z" transform="translate(-424.353 -261.046)"/><path class="g" d="M1529.7,283.732l54.476,52.069,53.306-51.223,5.558,5.313-53.306,51.223,53.443,51.081-5.545,5.328-53.442-51.081-53.823,51.719-5.558-5.313,53.822-51.719-54.476-52.07Z" transform="translate(-413.775 -261.06)"/><path class="g" d="M1407.452,283.894l54.476,52.07,53.306-51.223,5.558,5.313-53.306,51.224,53.443,51.081-5.545,5.327-53.442-51.081-53.823,51.719-5.559-5.313,53.823-51.719-54.476-52.07Z" transform="translate(-403.198 -261.074)"/><path class="g" d="M1285.208,284.057l54.477,52.07,53.307-51.223,5.558,5.313-53.306,51.224,53.442,51.081-5.545,5.327L1339.7,346.768l-53.822,51.719-5.56-5.313,53.823-51.719-54.476-52.07Z" transform="translate(-392.621 -261.088)"/><g transform="translate(855.712 21.509)"><rect class="g" width="1048.734" height="7.525" transform="matrix(1, -0.001, 0.001, 1, 0, 1.397)"/><rect class="g" width="1084.734" height="7.525" transform="translate(0.143 109.021) rotate(-0.076)"/></g><rect class="g" width="2140.483" height="30.59" transform="translate(-144.066 2.727) rotate(-0.076)"/></g><g transform="translate(360.615 393.988)"><path class="h" d="M365.542,491.8l1.826,11.315,54.4,54.251,1.8-7.7-8.645-33.035Z" transform="translate(-365.542 -414.139)"/><path class="g" d="M365.542,487.335l47.018-47.143,21.729-.029,49.859,47.014L423.565,545.2Z" transform="translate(-365.542 -409.671)"/><path class="h" d="M531.2,535.185l-11,11.274-8-6.722-8.136,9.517,5.837,7.761L487.269,580.2l-6.721-9.638L473.323,583.7l4.537,6.141-8.592,8.8,21.326,36.64,81.372-84.762Z" transform="translate(-374.518 -417.893)"/><path class="g" d="M419.55,590.936,412.8,624.444l30.354,17.615,14.89-37.141-31.72-23.5Z" transform="translate(-369.632 -421.894)"/><path class="g" d="M429.582,568.3,461.3,593.152l62.838-65.272-29.006-24.86Z" transform="translate(-371.084 -415.11)"/><path class="g" d="M517.464,485.3l30.789-15.05,24.481,26.223L536.1,521.416l-25.836-24.411Z" transform="translate(-378.065 -412.274)"/><path class="h" d="M488.877,490.983l-60.584,58.026-8.1,33.51L520.557,484.15Z" transform="translate(-370.271 -413.477)"/><path class="g" d="M522.684,523.4l9.494-9.519,4.083,6.785-9.949,8.162Z" transform="translate(-379.14 -416.05)"/><path class="g" d="M446.964,600.253c.451-.453,15.823-15.413,15.823-15.413l-1.793,13.131s-9.945,10.878-9.946,10.425S446.964,600.253,446.964,600.253Z" transform="translate(-372.588 -422.19)"/><path class="i" d="M474.4,542.172c-14.3,14.341-22.043,29.813-17.287,34.556s20.206-3.037,34.509-17.379,22.043-29.812,17.287-34.556S488.7,527.831,474.4,542.172Z" transform="translate(-373.345 -416.874)"/><rect class="g" width="6.388" height="74.095" transform="matrix(1, -0.001, 0.001, 1, 6.921, 0.119)"/><rect class="g" width="6.388" height="74.096" transform="translate(89.961 0.008) rotate(-0.076)"/></g><g transform="translate(1992.707 391.69)"><path class="h" d="M2362.742,489.137l-1.8,11.319-54.252,54.4-1.82-7.693,8.557-33.058Z" transform="translate(-2165.44 -411.611)"/><path class="g" d="M2356.988,484.683l-47.142-47.018-21.73.029-49.733,47.146,60.738,57.865Z" transform="translate(-2159.687 -407.157)"/><path class="h" d="M2192.955,532.976l11.033,11.245,7.986-6.743,8.162,9.5-5.818,7.777,22.69,23.125,6.7-9.656,7.26,13.119-4.521,6.153,8.614,8.78-21.228,36.7-81.6-84.546Z" transform="translate(-2152.232 -415.404)"/><path class="g" d="M2310.2,588.416l6.834,33.49-30.307,17.7-14.988-37.1,31.657-23.582Z" transform="translate(-2162.573 -419.379)"/><path class="g" d="M2295.437,565.817l-31.655,24.94-63.011-65.1,28.939-24.937Z" transform="translate(-2156.433 -412.613)"/><path class="g" d="M2210.375,483.043l-30.829-14.968-24.411,26.289,36.7,24.849,25.771-24.48Z" transform="translate(-2152.483 -409.788)"/><path class="h" d="M2235.38,488.67l60.738,57.864,8.194,33.489-100.63-98.1Z" transform="translate(-2156.685 -410.986)"/><path class="g" d="M2209.882,521.155l-9.52-9.494-4.064,6.8,9.97,8.135Z" transform="translate(-2156.045 -413.56)"/><path class="g" d="M2285.594,597.807c-.454-.452-15.865-15.371-15.865-15.371l1.828,13.127s9.973,10.851,9.973,10.4S2285.594,597.807,2285.594,597.807Z" transform="translate(-2162.399 -419.684)"/><path class="i" d="M2254.328,539.809c14.343,14.3,22.123,29.753,17.379,34.509s-20.214-2.983-34.555-17.287-22.123-29.754-17.38-34.51S2239.986,525.5,2254.328,539.809Z" transform="translate(-2157.956 -414.378)"/><rect class="g" width="6.388" height="74.096" transform="matrix(-1, 0.001, -0.001, -1, 190.27, 74.096)"/><rect class="g" width="6.388" height="74.096" transform="translate(107.233 74.206) rotate(179.924)"/></g></g><path class="j" d="M1948.915,815.622V920.205a78.53,78.53,0,0,1-17.653,49.7H331.625a78.53,78.53,0,0,1-17.653-49.7V815.622c0-433.315,351.243-784.594,784.557-784.594h65.791C1597.635,31.028,1948.915,382.308,1948.915,815.622Z" transform="translate(-313.972 -31.028)"/><path class="k" d="M1813.415,867.589l-1476.57.434V759.583c0-389.8,315.989-705.79,705.786-705.79h64.993c389.8,0,705.79,315.992,705.79,705.79Z" transform="translate(-252.018 30.634)"/><g transform="translate(22.37 14.642)"><g transform="translate(773.862)"><path class="i" d="M573.4,56.145a22.379,22.379,0,1,1-23.561-21.135A22.375,22.375,0,0,1,573.4,56.145Z" transform="translate(-528.67 -34.976)"/><g transform="translate(3.854 25.012)"><path class="l" d="M544.046,55.778a.957.957,0,0,1-.271-.041,22.375,22.375,0,0,1-14-12.735.928.928,0,0,1,1.717-.7,20.474,20.474,0,0,0,12.821,11.664.929.929,0,0,1-.271,1.817Z" transform="translate(-529.709 -41.72)"/></g></g><g transform="translate(626.692 12.284)"><path class="i" d="M533.168,55.6A22.38,22.38,0,1,1,506.3,38.877,22.38,22.38,0,0,1,533.168,55.6Z" transform="translate(-488.987 -38.288)"/><g transform="translate(4.744 28.017)"><path class="l" d="M506.517,57.384a.56.56,0,0,1-.111-.007,22.377,22.377,0,0,1-16-10.11.927.927,0,1,1,1.565-.994,20.493,20.493,0,0,0,14.653,9.264.927.927,0,0,1-.111,1.847Z" transform="translate(-490.266 -45.843)"/></g></g><g transform="translate(478.639 50.916)"><path class="i" d="M492.036,62.308a22.38,22.38,0,1,1-29.369-11.8A22.379,22.379,0,0,1,492.036,62.308Z" transform="translate(-449.065 -48.705)"/><g transform="translate(6.142 30.823)"><path class="l" d="M467.349,65.775a22.377,22.377,0,0,1-16.385-7.206.927.927,0,1,1,1.369-1.25,20.535,20.535,0,0,0,16.04,6.575.913.913,0,0,1,.975.875.927.927,0,0,1-.883.975C468.095,65.764,467.72,65.775,467.349,65.775Z" transform="translate(-450.722 -57.016)"/></g></g><g transform="translate(348.365 118.519)"><circle class="i" cx="22.379" cy="22.379" r="22.379" transform="translate(0 44.666) rotate(-86.312)"/><g transform="translate(9.385 34.728)"><path class="l" d="M430.419,82.543a22.389,22.389,0,0,1-13.588-4.58.928.928,0,1,1,1.131-1.472A20.49,20.49,0,0,0,434.9,80.184a.912.912,0,0,1,1.113.693.93.93,0,0,1-.694,1.113A21.859,21.859,0,0,1,430.419,82.543Z" transform="translate(-416.469 -76.298)"/></g></g><g transform="translate(232.658 206.39)"><path class="i" d="M421.455,97.713a22.38,22.38,0,1,1-31.631-1.046A22.377,22.377,0,0,1,421.455,97.713Z" transform="translate(-382.738 -90.627)"/><g transform="translate(10.258 35.494)"><path class="l" d="M396.28,104.441a22.271,22.271,0,0,1-10.28-2.5.925.925,0,0,1-.389-1.25.937.937,0,0,1,1.253-.393,20.506,20.506,0,0,0,17.323.7.919.919,0,0,1,1.216.49.932.932,0,0,1-.493,1.216A22.17,22.17,0,0,1,396.28,104.441Z" transform="translate(-385.504 -100.198)"/></g></g><g transform="translate(125.147 318.645)"><circle class="i" cx="22.379" cy="22.379" r="22.379" transform="translate(0 42.431) rotate(-71.438)"/><g transform="translate(18.829 40.754)"><path class="l" d="M366.1,137.139a21.89,21.89,0,0,1-6.627-1.016.925.925,0,1,1,.556-1.765,20.512,20.512,0,0,0,17.182-2.325.933.933,0,0,1,1.283.274.922.922,0,0,1-.278,1.279A22.3,22.3,0,0,1,366.1,137.139Z" transform="translate(-358.826 -131.885)"/></g></g><g transform="translate(56.188 467.965)"><path class="i" d="M367.662,163.584a22.38,22.38,0,1,1-30.084,9.839A22.378,22.378,0,0,1,367.662,163.584Z" transform="translate(-335.155 -161.159)"/><g transform="translate(15.741 32.967)"><path class="l" d="M343.056,177.593a22.333,22.333,0,0,1-2.852-.185.93.93,0,0,1,.245-1.843,20.483,20.483,0,0,0,16.514-5.27.928.928,0,1,1,1.265,1.357A22.4,22.4,0,0,1,343.056,177.593Z" transform="translate(-339.399 -170.049)"/></g></g><g transform="translate(12.677 620.582)"><path class="i" d="M352.312,203.282a22.379,22.379,0,1,1-27.919,14.912A22.378,22.378,0,0,1,352.312,203.282Z" transform="translate(-323.422 -202.311)"/><g transform="translate(18.783 30.785)"><path class="l" d="M329.415,220.9a.928.928,0,0,1-.037-1.854,20.512,20.512,0,0,0,15.35-8.059.927.927,0,1,1,1.48,1.116,22.394,22.394,0,0,1-16.752,8.8Z" transform="translate(-328.487 -210.612)"/></g></g><g transform="translate(0 777.803)"><path class="i" d="M345.071,244.869a22.38,22.38,0,1,1-24.9,19.533A22.379,22.379,0,0,1,345.071,244.869Z" transform="translate(-320.004 -244.705)"/><g transform="translate(21.907 28.321)"><path class="l" d="M326.835,265.279a.927.927,0,0,1-.2-1.832,20.494,20.494,0,0,0,13.714-10.6.928.928,0,0,1,1.654.842,22.377,22.377,0,0,1-14.968,11.571A.98.98,0,0,1,326.835,265.279Z" transform="translate(-325.911 -252.341)"/></g></g><g transform="translate(922.326 12.284)"><path class="i" d="M569.291,55.6a22.381,22.381,0,1,0,26.873-16.718A22.38,22.38,0,0,0,569.291,55.6Z" transform="translate(-568.702 -38.288)"/><g transform="translate(22.847 28.02)"><path class="l" d="M575.79,57.383a.927.927,0,0,1-.111-1.847,20.493,20.493,0,0,0,14.653-9.264.927.927,0,1,1,1.565.994,22.378,22.378,0,0,1-16,10.11A.56.56,0,0,1,575.79,57.383Z" transform="translate(-574.863 -45.844)"/></g></g><g transform="translate(1070.378 50.916)"><path class="i" d="M610.424,62.308a22.38,22.38,0,1,0,29.369-11.8A22.378,22.378,0,0,0,610.424,62.308Z" transform="translate(-608.623 -48.705)"/><g transform="translate(20.002 30.823)"><path class="l" d="M616.017,65.775c-.371,0-.746-.011-1.12-.03a.926.926,0,0,1-.879-.975.908.908,0,0,1,.975-.875,20.539,20.539,0,0,0,16.043-6.575.927.927,0,1,1,1.368,1.25A22.391,22.391,0,0,1,616.017,65.775Z" transform="translate(-614.017 -57.016)"/></g></g><g transform="translate(1199.269 119.91)"><path class="i" d="M647.013,77.467a22.38,22.38,0,1,0,30.971-6.523A22.382,22.382,0,0,0,647.013,77.467Z" transform="translate(-643.378 -67.309)"/><g transform="translate(17.203 33.342)"><path class="l" d="M653.633,82.54a21.859,21.859,0,0,1-4.9-.553.927.927,0,1,1,.419-1.806,20.478,20.478,0,0,0,16.937-3.694.928.928,0,1,1,1.131,1.472A22.388,22.388,0,0,1,653.633,82.54Z" transform="translate(-648.017 -76.299)"/></g></g><g transform="translate(1316.371 206.39)"><path class="i" d="M681,97.713a22.38,22.38,0,1,0,31.631-1.046A22.376,22.376,0,0,0,681,97.713Z" transform="translate(-674.953 -90.627)"/><g transform="translate(14.528 35.493)"><path class="l" d="M688.068,104.441a22.172,22.172,0,0,1-8.63-1.736.929.929,0,0,1-.493-1.216.915.915,0,0,1,1.217-.49,20.506,20.506,0,0,0,17.323-.7.928.928,0,0,1,.864,1.643A22.282,22.282,0,0,1,688.068,104.441Z" transform="translate(-678.871 -100.198)"/></g></g><g transform="translate(1417.922 324.604)"><path class="i" d="M711.281,126.986a22.379,22.379,0,1,0,31.334,4.461A22.38,22.38,0,0,0,711.281,126.986Z" transform="translate(-702.336 -122.503)"/><g transform="translate(12.071 34.795)"><path class="l" d="M718.134,137.139a22.273,22.273,0,0,1-12.116-3.553.922.922,0,0,1-.278-1.279.933.933,0,0,1,1.283-.274,20.514,20.514,0,0,0,17.182,2.325.925.925,0,1,1,.556,1.765A21.889,21.889,0,0,1,718.134,137.139Z" transform="translate(-705.591 -131.885)"/></g></g><g transform="translate(1492.833 467.965)"><path class="i" d="M734.795,163.584a22.38,22.38,0,1,0,30.084,9.839A22.381,22.381,0,0,0,734.795,163.584Z" transform="translate(-722.535 -161.159)"/><g transform="translate(9.902 32.966)"><path class="l" d="M740.673,177.594a22.4,22.4,0,0,1-15.172-5.941.929.929,0,0,1,1.268-1.357,20.479,20.479,0,0,0,16.511,5.27.911.911,0,0,1,1.042.8.931.931,0,0,1-.8,1.046A22.328,22.328,0,0,1,740.673,177.594Z" transform="translate(-725.205 -170.048)"/></g></g><g transform="translate(1536.339 620.582)"><path class="i" d="M750.149,203.282a22.379,22.379,0,1,0,27.919,14.912A22.378,22.378,0,0,0,750.149,203.282Z" transform="translate(-734.266 -202.311)"/><g transform="translate(8.084 30.786)"><path class="l" d="M753.421,220.9h-.041a22.367,22.367,0,0,1-16.744-8.8.925.925,0,1,1,1.476-1.116,20.507,20.507,0,0,0,15.35,8.059.928.928,0,0,1-.041,1.854Z" transform="translate(-736.446 -210.612)"/></g></g><g transform="translate(1549.024 777.803)"><path class="i" d="M757.384,244.869a22.38,22.38,0,1,0,24.9,19.533A22.378,22.378,0,0,0,757.384,244.869Z" transform="translate(-737.687 -244.705)"/><g transform="translate(6.662 28.321)"><path class="l" d="M754.751,265.279a.946.946,0,0,1-.2-.022,22.393,22.393,0,0,1-14.968-11.571.928.928,0,0,1,1.654-.842,20.511,20.511,0,0,0,13.715,10.6.927.927,0,0,1-.2,1.832Z" transform="translate(-739.483 -252.341)"/></g></g></g></g><path class="k" d="M1952.659,271.718H333.111a23.124,23.124,0,0,0-23.127,23.123h0a23.124,23.124,0,0,0,23.127,23.123H1952.659a23.123,23.123,0,0,0,23.123-23.123h0A23.123,23.123,0,0,0,1952.659,271.718Z" transform="translate(0 651.936)"/><g transform="translate(351.213 922.29)"><path class="l" d="M322.028,274.076a.927.927,0,1,1,0-1.854l1544.111-.872a.927.927,0,1,1,0,1.854Z" transform="translate(-321.101 -271.35)"/></g></g></g></svg>