<svg xmlns="http://www.w3.org/2000/svg" xmlns:xlink="http://www.w3.org/1999/xlink" width="640" height="1108" viewBox="0 0 640 1108"><defs><style>.a{fill:#fff;}.b{clip-path:url(#a);}.c{fill:#aa59ab;}.d{opacity:0.1;mix-blend-mode:screen;isolation:isolate;}.e{fill:#fbeff9;}.f{fill:#184655;}.g{fill:#13375b;}.h{fill:#466eb6;}.i{fill:#ffc131;}.j{fill:#7e047f;}.k{fill:#2a1536;}.l{fill:#220301;}</style><clipPath id="a"><rect class="a" width="640" height="1108" transform="translate(440.797 -4.225)"/></clipPath></defs><g class="b" transform="translate(-440.797 4.225)"><g transform="translate(-353.177 -20.961)"><g transform="translate(0 20.293)"><rect class="c" width="2226" height="856" transform="translate(0.974 0.443)"/><g transform="translate(309.549 0.009)"><g class="d" transform="translate(229.325)"><path class="e" d="M517.114,0q-42.59,119.145-85.106,238.264Q394.92,342.063,357.8,445.884q-28.826,80.81-57.724,161.62-16.352,45.843-32.739,91.663-22.87,64.149-45.814,128.3c-11.913-9.336-18.655-11.893-32.89-12.624l39-205.82q15.062-79.627,30.193-159.228v-.026q18.88-99.832,37.835-199.632Q319.311,125.037,343.079,0Z" transform="translate(-188.633 -0.003)"/></g><g class="d"><path class="e" d="M503.48,810.312c-14.161,1.377-20.715,4.245-31.879,14.115q-27.588-62.632-55.213-125.261-19.836-45.089-39.709-90.146-35.061-79.67-70.16-159.311-44.952-101.9-89.866-203.877Q162.489,122.89,108.359,0H286.254q33.711,125.684,67.426,251.451,26.581,99.155,53.193,198.338Q428,528.665,449.127,607.5,476.321,708.895,503.48,810.312Z" transform="translate(-108.359 -0.003)"/></g></g><g class="d"><path class="e" d="M186.208,0q-42.595,119.171-85.1,238.284-37.11,103.787-74.219,207.6Q13.473,483.553,0,521.248V64.106L12.173,0Z" transform="translate(-0.003)"/></g><g class="d" transform="translate(0 722.566)"><path class="e" d="M23.514,340.69c-10.284,1-16.569,2.771-23.511,7.485V252.93Q11.787,296.81,23.514,340.69Z" transform="translate(-0.003 -252.93)"/></g><g transform="translate(1703.267 0.009)"><g class="d" transform="translate(229.311 0.117)"><path class="e" d="M971.619.044V93.286q-25.9,72.475-51.736,144.9-37.114,103.787-74.2,207.631-28.835,80.8-57.736,161.6-16.365,45.851-32.733,91.668Q732.35,763.24,709.387,827.394c-11.907-9.333-18.646-11.9-32.9-12.619q19.5-102.917,39.023-205.837,15.02-79.6,30.168-159.228v-.029q18.872-99.81,37.838-199.623Q807.2,125.025,830.923.044Z" transform="translate(-676.491 -0.044)"/></g><g class="d"><path class="e" d="M991.341,810.312c-14.158,1.377-20.714,4.245-31.876,14.115q-27.592-62.632-55.216-125.261-19.836-45.089-39.706-90.146-35.062-79.67-70.163-159.311-44.952-101.9-89.866-203.877Q650.349,122.89,596.222,0H774.114q33.716,125.684,67.428,251.451,26.577,99.155,53.191,198.338,21.13,78.873,42.255,157.711Q964.185,708.895,991.341,810.312Z" transform="translate(-596.222 -0.003)"/></g></g><g transform="translate(998.065 0.009)"><g class="d" transform="translate(229.328)"><path class="e" d="M758.123,0q-42.59,119.145-85.106,238.264-37.084,103.8-74.208,207.616-28.822,80.81-57.724,161.62-16.352,45.843-32.739,91.663-22.87,64.149-45.814,128.3c-11.91-9.336-18.655-11.893-32.887-12.624q19.5-102.908,39-205.82,15.058-79.627,30.19-159.228v-.026q18.881-99.832,37.835-199.632Q560.32,125.037,584.088,0Z" transform="translate(-429.645 -0.003)"/></g><g class="d"><path class="e" d="M744.491,810.312c-14.158,1.377-20.715,4.245-31.879,14.115Q685.025,761.795,657.4,699.166q-19.836-45.089-39.706-90.146-35.066-79.67-70.163-159.311-44.951-101.9-89.866-203.877Q403.5,122.89,349.37,0H527.265q33.716,125.684,67.429,251.451,26.577,99.155,53.19,198.338,21.126,78.873,42.255,157.711Q717.332,708.895,744.491,810.312Z" transform="translate(-349.37 -0.003)"/></g></g></g><g transform="translate(243.98)"><g transform="translate(0)"><g transform="translate(0)"><path class="f" d="M2049.638,400.325c-2.362,6.724-5.141,13.913-8.349,21.1-7.341,16.448-15.454,29.675-24.109,39.314-10.651,11.861-22.14,18.254-34.149,19-11.594.718-22.8-4.81-33.348-16.441-1.262-1.392-2.512-2.881-3.754-4.444q.677-1.463,1.345-2.959a325.059,325.059,0,0,0,18.426-55.463l-3.643.005A321.519,321.519,0,0,1,1944.01,454.5c-.174.391-.351.771-.526,1.157-6.344-8.655-12.4-19.562-18.071-32.565-3.338-7.657-6.243-15.368-8.717-22.595l-3.745.005c2.579,7.624,5.642,15.822,9.189,23.962,6.121,14.045,12.711,25.723,19.649,34.85-6.746,14.227-14.095,25.823-21.888,34.5-10.652,11.861-22.14,18.254-34.149,19-11.592.72-22.8-4.811-33.349-16.442-8.612-9.5-16.778-23.026-24.269-40.207-3.522-8.077-6.562-16.216-9.121-23.781a132.589,132.589,0,0,0,13.446-23.908c1.177-2.639,2.278-5.276,3.3-7.874l-3.868.005a146.987,146.987,0,0,1-14.275,27.568c-3.88-11.957-6.477-22.057-7.794-27.538l-3.646,0c1.344,5.672,4.3,17.332,8.877,31.1-7.95,10.487-17.664,18.157-29.242,18.878-21.172,1.317-36.487-25.609-45.935-49.886l-3.841.005c1.133,2.965,2.351,5.975,3.658,8.974,5.763,13.225,12.082,23.678,18.78,31.07,8.095,8.932,16.791,13.444,25.878,13.431q.838,0,1.68-.053c9.867-.615,19.216-5.767,27.786-15.315q1.313-1.464,2.6-3.068c2.417,6.99,5.229,14.4,8.437,21.763,7.647,17.546,16.024,31.408,24.9,41.2,10.659,11.762,22.09,17.7,34.015,17.687q1.1,0,2.2-.07c12.977-.808,25.287-7.6,36.587-20.192,7.722-8.6,15-19.94,21.683-33.753.927,1.126,1.857,2.216,2.8,3.252,10.658,11.761,22.09,17.7,34.015,17.687.731,0,1.465-.025,2.2-.07,12.978-.807,25.287-7.6,36.587-20.192,8.906-9.923,17.221-23.472,24.714-40.27,3.429-7.688,6.373-15.373,8.845-22.5Z" transform="translate(-586.982 -297.719)"/><path class="f" d="M897.565,401.856c-9.034,25.8-25.136,58.506-48.423,57.109-11.58-.69-21.315-8.336-29.291-18.8a357.624,357.624,0,0,0,9.625-34.813L826,404.63c-.042.2-2.941,14-8.724,31.978-7.277-10.58-12.947-23.333-17.088-34.623l-3.812.005c1.725,4.8,3.725,9.877,6.008,14.959a132.618,132.618,0,0,0,13.509,23.871c-2.539,7.572-5.556,15.719-9.057,23.806-7.445,17.2-15.575,30.749-24.162,40.271-10.515,11.659-21.72,17.222-33.3,16.53-12.011-.716-23.517-7.079-34.2-18.911-7.817-8.658-15.2-20.234-21.979-34.443,6.912-9.145,13.472-20.84,19.556-34.9a319.753,319.753,0,0,0,11.426-31.085l-3.72.005a313.872,313.872,0,0,1-10.983,29.717c-5.635,13.018-11.663,23.941-17.984,32.613-.175-.386-.353-.765-.529-1.155a319.305,319.305,0,0,1-18.758-56.5l-3.471.739a323.247,323.247,0,0,0,18.97,57.163q.673,1.5,1.353,2.955c-1.237,1.567-2.485,3.059-3.742,4.454-10.515,11.66-21.721,17.22-33.3,16.531-12.011-.716-23.517-7.078-34.2-18.911-8.683-9.616-16.829-22.822-24.214-39.25a290.643,290.643,0,0,1-10.827-28.174l-3.73.005a296.366,296.366,0,0,0,11.3,29.573c7.537,16.778,15.888,30.305,24.821,40.205,11.334,12.56,23.661,19.321,36.64,20.094q1.1.065,2.2.065c11.924-.016,23.342-5.988,33.968-17.778.935-1.037,1.864-2.13,2.787-3.258,6.719,13.795,14.027,25.11,21.773,33.695,11.333,12.56,23.662,19.321,36.641,20.095q1.1.066,2.2.064c11.923-.016,23.341-5.988,33.968-17.778,8.848-9.816,17.187-23.7,24.787-41.266,3.189-7.371,5.981-14.79,8.38-21.786q1.295,1.6,2.613,3.062c8.594,9.525,17.956,14.652,27.826,15.241q.841.05,1.68.048c9.085-.012,17.771-4.547,25.841-13.5,6.678-7.41,12.97-17.88,18.7-31.119,2.353-5.438,4.418-10.91,6.2-16.084Z" transform="translate(-268.675 -298.14)"/><path class="g" d="M1054.428,284.363l43.23,41.32,42.3-40.648,4.411,4.216-42.3,40.649,42.409,40.536-4.4,4.227-42.409-40.535-42.71,41.041-4.411-4.216,42.711-41.042-43.23-41.32Z" transform="translate(-398.251 -265.817)"/><path class="g" d="M1175.9,284.2l35.681,41.33,34.9-40.638,3.641,4.217-34.9,40.639,35,40.545-3.63,4.226-35-40.545-35.234,41.031-3.641-4.217,35.234-41.032-35.682-41.33Z" transform="translate(-431.882 -265.773)"/><path class="g" d="M932.184,284.526l43.23,41.319,42.3-40.648,4.411,4.216-42.3,40.648,42.41,40.536-4.4,4.228L975.425,334.29l-42.711,41.042-4.411-4.216,42.711-41.042-43.23-41.32Z" transform="translate(-364.62 -265.862)"/><path class="g" d="M809.941,284.689l43.23,41.32,42.3-40.648,4.412,4.216-42.3,40.648,42.409,40.536-4.4,4.228-42.409-40.536-42.711,41.042-4.411-4.216,42.711-41.042-43.23-41.32Z" transform="translate(-330.989 -265.907)"/><path class="g" d="M687.7,284.851l43.23,41.32,42.3-40.648,4.412,4.216-42.3,40.648,42.409,40.536-4.4,4.228-42.409-40.535-42.711,41.041-4.411-4.216L726.528,330.4l-43.23-41.32Z" transform="translate(-297.358 -265.951)"/><path class="g" d="M565.454,285.014l43.23,41.32,42.3-40.648L655.4,289.9,613.1,330.55,655.5,371.086l-4.4,4.228L608.7,334.778l-42.71,41.042-4.411-4.216,42.71-41.042-43.23-41.32Z" transform="translate(-263.728 -265.996)"/><path class="g" d="M443.211,285.177,486.44,326.5l42.3-40.648,4.411,4.216-42.3,40.648,42.409,40.536-4.4,4.228-42.409-40.536-42.71,41.042-4.412-4.216,42.711-41.042-43.23-41.32Z" transform="translate(-230.097 -266.041)"/><path class="g" d="M320.968,285.339l43.229,41.32,42.3-40.648,4.411,4.216-42.3,40.648,42.409,40.536-4.4,4.228L364.208,335.1,321.5,376.145l-4.411-4.216L359.8,330.887l-43.23-41.32Z" transform="translate(-196.466 -266.086)"/><g transform="translate(95.517 18.274)"><rect class="g" width="678.925" height="5.971" transform="translate(18.932 0.904) rotate(-0.076)"/><rect class="g" width="697.971" height="5.971" transform="translate(0 86.335) rotate(-0.076)"/></g><path class="g" d="M1895.28,283.244l43.23,41.32,42.3-40.648,4.411,4.216-42.3,40.648,42.409,40.536-4.4,4.228-42.409-40.536-42.711,41.042-4.411-4.216,42.711-41.042-43.23-41.32Z" transform="translate(-629.581 -265.509)"/><path class="g" d="M1773.037,283.406l43.23,41.32,42.3-40.648,4.412,4.216-42.3,40.648,42.409,40.536-4.4,4.228-42.409-40.536-42.71,41.042L1769.156,370l42.711-41.042-43.231-41.32Z" transform="translate(-595.95 -265.554)"/><path class="g" d="M2142.8,282.914l43.23,41.32,42.3-40.648,4.412,4.216-42.3,40.648,42.408,40.536-4.4,4.228-42.409-40.536-42.71,41.042-4.412-4.216,42.712-41.042-43.23-41.32Z" transform="translate(-697.678 -265.419)"/><path class="g" d="M2020.56,283.077l43.229,41.32,42.3-40.648,4.41,4.216-42.3,40.648,42.41,40.536-4.4,4.228L2063.8,332.841l-42.711,41.041-4.412-4.216,42.711-41.042-43.23-41.32Z" transform="translate(-664.047 -265.463)"/><path class="g" d="M2268.082,282.747l43.23,41.32,42.3-40.648,4.411,4.216-42.3,40.648,42.409,40.536-4.4,4.228-42.409-40.535-42.71,41.041-4.411-4.216,42.71-41.042-43.23-41.32Z" transform="translate(-732.144 -265.373)"/><path class="g" d="M1650.794,283.569l43.23,41.32,42.3-40.648,4.411,4.216-42.3,40.649,42.41,40.535-4.4,4.228-42.409-40.535-42.711,41.041-4.411-4.216,42.711-41.042-43.23-41.32Z" transform="translate(-562.32 -265.599)"/><path class="g" d="M1528.551,283.732l43.23,41.32,42.3-40.648,4.411,4.216-42.3,40.648L1618.6,369.8l-4.4,4.228L1571.792,333.5l-42.711,41.042-4.411-4.216,42.71-41.042-43.23-41.32Z" transform="translate(-528.689 -265.644)"/><path class="g" d="M1406.308,283.894l43.23,41.32,42.3-40.648,4.411,4.216-42.3,40.649,42.409,40.536-4.4,4.227-42.408-40.535L1406.838,374.7l-4.412-4.216,42.711-41.042-43.23-41.32Z" transform="translate(-495.058 -265.688)"/><path class="g" d="M1284.064,284.057l43.23,41.32,42.3-40.648,4.41,4.216-42.3,40.649,42.409,40.536-4.4,4.228-42.409-40.535-42.711,41.041-4.412-4.216,42.711-41.042-43.23-41.32Z" transform="translate(-461.427 -265.733)"/><g transform="translate(793.374 17.166)"><rect class="g" width="832.223" height="5.971" transform="matrix(1, -0.001, 0.001, 1, 0, 1.108)"/><rect class="g" width="860.791" height="5.971" transform="translate(0.114 86.514) rotate(-0.076)"/></g><rect class="g" width="1698.581" height="24.274" transform="translate(0 2.261) rotate(-0.076)"/><g transform="translate(155.603 107.286)"><path class="h" d="M365.542,491.8l1.449,8.979,43.166,43.051,1.429-6.109-6.861-26.215Z" transform="translate(-365.542 -430.173)"/><path class="g" d="M365.542,477.6l37.311-37.411,17.243-.023,39.566,37.308-48.077,46.046Z" transform="translate(-365.542 -415.966)"/><path class="h" d="M518.417,535.186l-8.732,8.947-6.351-5.334-6.456,7.553,4.632,6.159-17.956,18.4-5.333-7.648-5.734,10.426,3.6,4.873-6.818,6.986,16.923,29.076,64.573-67.263Z" transform="translate(-394.079 -442.108)"/><path class="g" d="M418.158,588.971,412.8,615.562l24.087,13.978,11.816-29.473L423.536,581.42Z" transform="translate(-378.545 -454.828)"/><path class="g" d="M429.582,554.82l25.173,19.724,49.865-51.8L481.6,503.021Z" transform="translate(-383.161 -433.259)"/><path class="g" d="M515.977,482.189l24.432-11.943,19.426,20.81-29.072,19.8-20.5-19.371Z" transform="translate(-405.357 -424.242)"/><path class="h" d="M474.7,489.573,426.62,535.619l-6.431,26.592,79.647-78.06Z" transform="translate(-380.577 -428.068)"/><path class="g" d="M522.684,521.435l7.534-7.554,3.24,5.384-7.895,6.477Z" transform="translate(-408.774 -436.247)"/><path class="g" d="M446.964,597.071c.358-.36,12.556-12.231,12.556-12.231L458.1,595.26s-7.892,8.632-7.893,8.273S446.964,597.071,446.964,597.071Z" transform="translate(-387.943 -455.769)"/><path class="i" d="M470.544,538.3c-11.35,11.381-17.492,23.658-13.718,27.422s16.035-2.41,27.385-13.791,17.492-23.657,13.718-27.422S481.894,526.917,470.544,538.3Z" transform="translate(-390.35 -438.867)"/><rect class="g" width="5.069" height="58.798" transform="matrix(1, -0.001, 0.001, 1, 5.492, 0.095)"/><rect class="g" width="5.069" height="58.799" transform="translate(71.389 0.007) rotate(-0.076)"/></g><g transform="translate(1450.75 105.463)"><path class="h" d="M2350.8,489.137l-1.425,8.982-43.052,43.166-1.445-6.1,6.791-26.233Z" transform="translate(-2194.226 -427.616)"/><path class="g" d="M2332.5,474.977l-37.411-37.311-17.243.023L2238.383,475.1l48.2,45.919Z" transform="translate(-2175.934 -413.455)"/><path class="h" d="M2184.548,532.976l8.755,8.923,6.337-5.351,6.477,7.535-4.617,6.171,18.005,18.35,5.314-7.662,5.761,10.41-3.587,4.883,6.836,6.968-16.845,29.121-64.752-67.091Z" transform="translate(-2152.232 -439.677)"/><path class="g" d="M2302.26,586.456l5.424,26.576-24.05,14.043-11.894-29.442,25.122-18.714Z" transform="translate(-2185.111 -452.316)"/><path class="g" d="M2275.893,552.377l-25.12,19.792-50-51.663,22.965-19.789Z" transform="translate(-2165.586 -430.801)"/><path class="g" d="M2198.97,479.953l-24.465-11.878-19.371,20.862,29.125,19.719,20.45-19.426Z" transform="translate(-2153.031 -421.822)"/><path class="h" d="M2228.836,487.277l48.2,45.918,6.5,26.575-79.855-77.848Z" transform="translate(-2166.387 -425.631)"/><path class="g" d="M2207.077,519.2l-7.554-7.534-3.225,5.393,7.912,6.456Z" transform="translate(-2164.355 -433.813)"/><path class="g" d="M2282.318,594.634c-.36-.359-12.59-12.2-12.59-12.2l1.451,10.417s7.915,8.611,7.915,8.252S2282.318,594.634,2282.318,594.634Z" transform="translate(-2184.557 -453.284)"/><path class="i" d="M2246.907,535.95c11.381,11.35,17.555,23.61,13.791,27.385s-16.041-2.367-27.421-13.718-17.556-23.611-13.792-27.385S2235.526,524.6,2246.907,535.95Z" transform="translate(-2170.431 -436.415)"/><rect class="g" width="5.069" height="58.799" transform="matrix(-1, 0.001, -0.001, -1, 150.989, 58.799)"/><rect class="g" width="5.069" height="58.799" transform="translate(85.095 58.886) rotate(179.924)"/></g></g><path class="j" d="M1611.382,653.643v82.992a62.318,62.318,0,0,1-14.009,39.436H327.981a62.317,62.317,0,0,1-14.009-39.436V653.643c0-343.857,278.729-622.615,622.586-622.615h52.209C1332.623,31.028,1611.382,309.786,1611.382,653.643Z" transform="translate(-92.563 131.425)"/><path class="k" d="M1537.6,1105.135,336.845,969.294V613.873c0-309.324,250.753-560.08,560.077-560.08H948.5c309.324,0,560.08,250.756,560.08,560.08Z" transform="translate(-48.121 175.656)"/><g transform="translate(239.161 174.071)"><g transform="translate(614.098)"><path class="i" d="M564.162,51.774A17.759,17.759,0,1,1,545.466,35,17.755,17.755,0,0,1,564.162,51.774Z" transform="translate(-528.67 -34.976)"/><g transform="translate(3.058 19.848)"><path class="l" d="M541.086,52.876a.759.759,0,0,1-.215-.032,17.756,17.756,0,0,1-11.107-10.106.736.736,0,0,1,1.363-.559A16.246,16.246,0,0,0,541.3,51.434a.737.737,0,0,1-.215,1.442Z" transform="translate(-529.709 -41.72)"/></g></g><g transform="translate(497.311 9.748)"><path class="i" d="M524.047,52.022a17.76,17.76,0,1,1-21.325-13.267A17.76,17.76,0,0,1,524.047,52.022Z" transform="translate(-488.987 -38.288)"/><g transform="translate(3.765 22.233)"><path class="l" d="M503.162,55a.445.445,0,0,1-.088-.006,17.758,17.758,0,0,1-12.693-8.023.736.736,0,1,1,1.242-.789,16.263,16.263,0,0,0,11.628,7.352A.735.735,0,0,1,503.162,55Z" transform="translate(-490.266 -45.843)"/></g></g><g transform="translate(379.824 40.405)"><path class="i" d="M483.165,59.5a17.759,17.759,0,1,1-23.305-9.365A17.758,17.758,0,0,1,483.165,59.5Z" transform="translate(-449.065 -48.705)"/><g transform="translate(4.874 24.459)"><path class="l" d="M463.916,63.967a17.757,17.757,0,0,1-13-5.718A.735.735,0,1,1,452,57.257a16.3,16.3,0,0,0,12.728,5.218.724.724,0,0,1,.774.695.736.736,0,0,1-.7.774C464.508,63.958,464.211,63.967,463.916,63.967Z" transform="translate(-450.722 -57.016)"/></g></g><g transform="translate(276.445 94.051)"><circle class="i" cx="17.759" cy="17.759" r="17.759" transform="translate(0 35.445) rotate(-86.312)"/><g transform="translate(7.447 27.559)"><path class="l" d="M427.539,81.254a17.766,17.766,0,0,1-10.783-3.635.737.737,0,1,1,.9-1.168,16.26,16.26,0,0,0,13.44,2.931.724.724,0,0,1,.883.55.738.738,0,0,1-.55.883A17.347,17.347,0,0,1,427.539,81.254Z" transform="translate(-416.469 -76.298)"/></g></g><g transform="translate(184.626 163.781)"><path class="i" d="M413.462,96.25a17.759,17.759,0,1,1-25.1-.83A17.757,17.757,0,0,1,413.462,96.25Z" transform="translate(-382.738 -90.627)"/><g transform="translate(8.14 28.166)"><path class="l" d="M394.055,103.565a17.673,17.673,0,0,1-8.158-1.981.734.734,0,0,1-.309-.992.743.743,0,0,1,.995-.312,16.273,16.273,0,0,0,13.747.553.729.729,0,0,1,.965.388.74.74,0,0,1-.391.965A17.593,17.593,0,0,1,394.055,103.565Z" transform="translate(-385.504 -100.198)"/></g></g><g transform="translate(99.311 252.861)"><circle class="i" cx="17.759" cy="17.759" r="17.759" transform="translate(0 33.671) rotate(-71.438)"/><g transform="translate(14.942 32.34)"><path class="l" d="M364.6,136.055a17.372,17.372,0,0,1-5.259-.806.734.734,0,1,1,.442-1.4A16.277,16.277,0,0,0,373.417,132a.74.74,0,0,1,1.018.218.732.732,0,0,1-.221,1.015A17.7,17.7,0,0,1,364.6,136.055Z" transform="translate(-358.826 -131.885)"/></g></g><g transform="translate(44.588 371.354)"><path class="i" d="M360.951,163.083a17.76,17.76,0,1,1-23.873,7.808A17.758,17.758,0,0,1,360.951,163.083Z" transform="translate(-335.155 -161.159)"/><g transform="translate(12.491 26.161)"><path class="l" d="M342.3,176.036a17.721,17.721,0,0,1-2.263-.147.738.738,0,0,1,.194-1.463,16.255,16.255,0,0,0,13.105-4.182.736.736,0,1,1,1,1.077A17.772,17.772,0,0,1,342.3,176.036Z" transform="translate(-339.399 -170.049)"/></g></g><g transform="translate(10.06 492.463)"><path class="i" d="M346.347,203.082a17.759,17.759,0,1,1-22.155,11.834A17.758,17.758,0,0,1,346.347,203.082Z" transform="translate(-323.422 -202.311)"/><g transform="translate(14.905 24.43)"><path class="l" d="M329.223,218.772a.736.736,0,0,1-.029-1.471,16.278,16.278,0,0,0,12.181-6.4.735.735,0,1,1,1.174.886,17.771,17.771,0,0,1-13.293,6.981Z" transform="translate(-328.487 -210.612)"/></g></g><g transform="translate(0 617.226)"><path class="i" d="M339.9,244.835a17.76,17.76,0,1,1-19.762,15.5A17.759,17.759,0,0,1,339.9,244.835Z" transform="translate(-320.004 -244.705)"/><g transform="translate(17.384 22.474)"><path class="l" d="M326.644,262.608a.736.736,0,0,1-.156-1.454,16.263,16.263,0,0,0,10.883-8.414.736.736,0,0,1,1.313.668,17.758,17.758,0,0,1-11.878,9.182A.778.778,0,0,1,326.644,262.608Z" transform="translate(-325.911 -252.341)"/></g></g><g transform="translate(731.912 9.748)"><path class="i" d="M569.169,52.022a17.76,17.76,0,1,0,21.325-13.267A17.76,17.76,0,0,0,569.169,52.022Z" transform="translate(-568.702 -38.288)"/><g transform="translate(18.131 22.235)"><path class="l" d="M575.6,55a.735.735,0,0,1-.088-1.466,16.262,16.262,0,0,0,11.628-7.352.736.736,0,1,1,1.242.789,17.758,17.758,0,0,1-12.693,8.023A.446.446,0,0,1,575.6,55Z" transform="translate(-574.863 -45.844)"/></g></g><g transform="translate(849.399 40.405)"><path class="i" d="M610.053,59.5a17.759,17.759,0,1,0,23.305-9.365A17.758,17.758,0,0,0,610.053,59.5Z" transform="translate(-608.623 -48.705)"/><g transform="translate(15.873 24.459)"><path class="l" d="M615.6,63.967c-.294,0-.592-.009-.889-.024a.735.735,0,0,1-.7-.774.72.72,0,0,1,.774-.695,16.3,16.3,0,0,0,12.731-5.218.735.735,0,1,1,1.086.992A17.768,17.768,0,0,1,615.6,63.967Z" transform="translate(-614.017 -57.016)"/></g></g><g transform="translate(951.68 95.154)"><path class="i" d="M646.263,75.37a17.76,17.76,0,1,0,24.577-5.177A17.761,17.761,0,0,0,646.263,75.37Z" transform="translate(-643.378 -67.309)"/><g transform="translate(13.652 26.459)"><path class="l" d="M652.474,81.251a17.346,17.346,0,0,1-3.888-.438.736.736,0,1,1,.332-1.433,16.251,16.251,0,0,0,13.441-2.931.737.737,0,1,1,.9,1.168A17.767,17.767,0,0,1,652.474,81.251Z" transform="translate(-648.017 -76.299)"/></g></g><g transform="translate(1044.607 163.781)"><path class="i" d="M679.749,96.25a17.759,17.759,0,1,0,25.1-.83A17.757,17.757,0,0,0,679.749,96.25Z" transform="translate(-674.953 -90.627)"/><g transform="translate(11.529 28.166)"><path class="l" d="M686.169,103.565a17.6,17.6,0,0,1-6.848-1.377.737.737,0,0,1-.391-.965.726.726,0,0,1,.965-.388,16.273,16.273,0,0,0,13.747-.553.736.736,0,0,1,.686,1.3A17.682,17.682,0,0,1,686.169,103.565Z" transform="translate(-678.871 -100.198)"/></g></g><g transform="translate(1125.192 257.59)"><path class="i" d="M709.435,126.061A17.759,17.759,0,1,0,734.3,129.6,17.76,17.76,0,0,0,709.435,126.061Z" transform="translate(-702.336 -122.503)"/><g transform="translate(9.579 27.611)"><path class="l" d="M715.544,136.055a17.674,17.674,0,0,1-9.615-2.819.732.732,0,0,1-.221-1.015.74.74,0,0,1,1.018-.218,16.279,16.279,0,0,0,13.635,1.845.734.734,0,1,1,.442,1.4A17.37,17.37,0,0,1,715.544,136.055Z" transform="translate(-705.591 -131.885)"/></g></g><g transform="translate(1184.639 371.354)"><path class="i" d="M732.264,163.083a17.76,17.76,0,1,0,23.873,7.808A17.76,17.76,0,0,0,732.264,163.083Z" transform="translate(-722.535 -161.159)"/><g transform="translate(7.858 26.16)"><path class="l" d="M737.479,176.036a17.778,17.778,0,0,1-12.04-4.715.737.737,0,0,1,1.007-1.077,16.251,16.251,0,0,0,13.1,4.182.722.722,0,0,1,.827.633.739.739,0,0,1-.633.83A17.729,17.729,0,0,1,737.479,176.036Z" transform="translate(-725.205 -170.048)"/></g></g><g transform="translate(1219.162 492.463)"><path class="i" d="M746.87,203.082a17.759,17.759,0,1,0,22.155,11.834A17.758,17.758,0,0,0,746.87,203.082Z" transform="translate(-734.266 -202.311)"/><g transform="translate(6.415 24.43)"><path class="l" d="M749.917,218.772h-.033a17.75,17.75,0,0,1-13.288-6.981.734.734,0,1,1,1.171-.886,16.273,16.273,0,0,0,12.181,6.4.736.736,0,0,1-.032,1.471Z" transform="translate(-736.446 -210.612)"/></g></g><g transform="translate(1229.229 617.226)"><path class="i" d="M753.318,244.835a17.76,17.76,0,1,0,19.762,15.5A17.758,17.758,0,0,0,753.318,244.835Z" transform="translate(-737.687 -244.705)"/><g transform="translate(5.287 22.474)"><path class="l" d="M751.6,262.608a.749.749,0,0,1-.159-.018,17.771,17.771,0,0,1-11.878-9.182.736.736,0,0,1,1.312-.668,16.277,16.277,0,0,0,10.883,8.414.736.736,0,0,1-.159,1.454Z" transform="translate(-739.483 -252.341)"/></g></g></g></g><path class="k" d="M1613.529,271.718H328.336c-10.136,0-18.352,99.45-18.352,222.167h0c0,122.717,8.217,222.165,18.352,222.165H1613.529c10.133,0,18.349-99.448,18.349-222.165h0C1631.878,371.168,1623.662,271.718,1613.529,271.718Z" transform="translate(-100.311 585.566)"/><g transform="translate(1468.455 870.362)"><path class="l" d="M1267.549,271.937a.736.736,0,0,1-.736.736S1267.549,271.531,1267.549,271.937Z" transform="translate(-1266.813 -271.85)"/></g></g></g></g></svg>