<svg xmlns="http://www.w3.org/2000/svg" xmlns:xlink="http://www.w3.org/1999/xlink" width="640" height="1105" viewBox="0 0 640 1105"><defs><style>.a{fill:#fff;}.b{clip-path:url(#a);}.c{fill:#aa59ab;}.d{opacity:0.1;mix-blend-mode:screen;isolation:isolate;}.e{fill:#fbeff9;}.f{fill:#184655;}.g{fill:#13375b;}.h{fill:#466eb6;}.i{fill:#ffc131;}.j{fill:#7e047f;}.k{fill:#2a1536;}.l{fill:#220301;}</style><clipPath id="a"><rect class="a" width="640" height="1105" transform="translate(662.222 155.919)"/></clipPath></defs><g class="b" transform="translate(-662.222 -155.919)"><g transform="translate(-455.635 -27.032)"><g transform="translate(0 26.193)"><rect class="c" width="2874" height="1105" transform="translate(0.857 0.758)"/><g transform="translate(399.549 0.011)"><g class="d" transform="translate(296)"><path class="e" d="M612.618,0Q557.645,153.789,502.768,307.541,454.9,441.515,406.985,575.521q-37.207,104.3-74.507,208.61Q311.371,843.3,290.22,902.444q-29.519,82.8-59.134,165.6c-15.376-12.05-24.079-15.35-42.453-16.294Q213.8,918.921,238.966,786.089q19.442-102.778,38.972-205.523v-.033q24.37-128.857,48.836-257.674Q357.3,161.39,387.984,0Z" transform="translate(-188.633 -0.003)"/></g><g class="d"><path class="e" d="M618.36,1045.905c-18.278,1.777-26.737,5.479-41.148,18.219Q541.6,983.282,505.947,902.444q-25.6-58.2-51.254-116.355-45.255-102.834-90.558-205.63Q306.113,448.936,248.14,317.305,178.227,158.619,108.359,0H337.976Q381.488,162.229,425,324.562q34.309,127.983,68.659,256,27.268,101.8,54.54,203.565Q583.3,915,618.36,1045.905Z" transform="translate(-108.359 -0.003)"/></g></g><g class="d"><path class="e" d="M240.346,0Q185.367,153.819,130.5,307.564,82.6,441.526,34.7,575.526,17.389,624.144,0,672.8V82.745L15.711,0Z" transform="translate(-0.003)"/></g><g class="d" transform="translate(0 932.648)"><path class="e" d="M30.35,366.206C17.076,367.5,8.963,369.783,0,375.867V252.93Q15.213,309.568,30.35,366.206Z" transform="translate(-0.003 -252.93)"/></g><g transform="translate(2198.484 0.011)"><g class="d" transform="translate(295.982 0.151)"><path class="e" d="M1057.426.044V120.4Q1024,213.943,990.648,307.424q-47.9,133.962-95.772,268Q857.657,679.716,820.354,784.01,799.231,843.192,778.1,902.33q-29.513,82.806-59.153,165.611c-15.369-12.047-24.067-15.362-42.46-16.287q25.166-132.839,50.369-265.683Q746.247,683.226,765.8,580.448v-.037q24.359-128.83,48.839-257.663,30.57-161.385,61.185-322.7Z" transform="translate(-676.491 -0.044)"/></g><g class="d"><path class="e" d="M1106.219,1045.905c-18.274,1.777-26.737,5.479-41.144,18.219q-35.614-80.842-71.27-161.681-25.6-58.2-51.25-116.355Q897.3,683.255,851.993,580.459,793.972,448.936,736,317.305,666.087,158.619,596.222,0H825.835q43.518,162.226,87.033,324.559,34.3,127.983,68.656,256,27.274,101.8,54.54,203.565Q1071.169,915,1106.219,1045.905Z" transform="translate(-596.222 -0.003)"/></g></g><g transform="translate(1288.247 0.011)"><g class="d" transform="translate(296.004)"><path class="e" d="M853.627,0Q798.654,153.789,743.776,307.541q-47.866,133.973-95.783,267.98-37.2,104.3-74.507,208.61Q552.379,843.3,531.229,902.444q-29.519,82.8-59.134,165.6c-15.373-12.05-24.078-15.35-42.449-16.294q25.166-132.828,50.333-265.661,19.436-102.778,38.968-205.523v-.033q24.37-128.857,48.836-257.674Q598.313,161.39,628.992,0Z" transform="translate(-429.645 -0.003)"/></g><g class="d"><path class="e" d="M859.371,1045.905c-18.275,1.777-26.737,5.479-41.147,18.219q-35.609-80.842-71.266-161.681-25.6-58.2-51.251-116.355-45.261-102.834-90.562-205.63Q547.124,448.936,489.151,317.305,419.238,158.619,349.37,0H578.986q43.519,162.226,87.033,324.559,34.3,127.983,68.655,256,27.268,101.8,54.54,203.565Q824.315,915,859.371,1045.905Z" transform="translate(-349.37 -0.003)"/></g></g></g><g transform="translate(314.917)"><g transform="translate(0)"><g transform="translate(0)"><path class="f" d="M2140.815,400.327c-3.048,8.679-6.636,17.958-10.777,27.238-9.475,21.23-19.947,38.3-31.119,50.745-13.747,15.31-28.577,23.561-44.077,24.527-14.965.926-29.431-6.209-43.044-21.221-1.628-1.8-3.242-3.718-4.846-5.737q.874-1.889,1.736-3.819c14.068-31.537,21.815-63.035,23.783-71.589l-4.7.007c-2.268,9.671-9.876,39.718-23.293,69.781-.225.5-.453.995-.68,1.493-8.188-11.172-16.007-25.249-23.325-42.033-4.309-9.883-8.058-19.836-11.251-29.164l-4.834.006c3.329,9.84,7.282,20.422,11.861,30.929,7.9,18.129,16.407,33.2,25.361,44.982-8.707,18.363-18.193,33.33-28.251,44.532-13.749,15.309-28.577,23.561-44.078,24.527-14.962.929-29.433-6.21-43.045-21.222-11.115-12.262-21.656-29.721-31.325-51.9-4.547-10.426-8.47-20.93-11.772-30.695a171.133,171.133,0,0,0,17.355-30.859c1.52-3.406,2.94-6.811,4.264-10.164l-4.993.007c-4.865,12.058-10.986,24.706-18.426,35.583-5.008-15.433-8.36-28.47-10.06-35.545l-4.707.006c1.734,7.321,5.551,22.371,11.458,40.137-10.261,13.536-22.8,23.436-37.744,24.367-27.328,1.7-47.095-33.055-59.29-64.39l-4.958.007c1.462,3.827,3.034,7.712,4.722,11.583,7.439,17.07,15.595,30.563,24.24,40.1,10.448,11.529,21.673,17.353,33.4,17.337q1.081,0,2.169-.068c12.736-.793,24.8-7.444,35.865-19.767q1.7-1.889,3.36-3.961c3.12,9.022,6.749,18.588,10.891,28.091,9.871,22.647,20.682,40.539,32.137,53.179,13.758,15.182,28.513,22.85,43.905,22.83q1.415,0,2.835-.091c16.75-1.043,32.64-9.812,47.225-26.063,9.968-11.106,19.36-25.738,27.987-43.566,1.2,1.453,2.4,2.86,3.608,4.2,13.757,15.181,28.512,22.849,43.9,22.829.944,0,1.891-.032,2.836-.091,16.751-1.042,32.639-9.811,47.225-26.063,11.495-12.808,22.228-30.3,31.9-51.979,4.426-9.923,8.226-19.842,11.417-29.045Z" transform="translate(-252.9 -267.888)"/><path class="f" d="M990.176,401.858c-11.66,33.3-32.444,75.517-62.5,73.713-14.947-.891-27.512-10.759-37.807-24.267a461.557,461.557,0,0,0,12.423-44.935l-4.484-.93c-.054.262-3.8,18.067-11.261,41.276-9.393-13.656-16.711-30.117-22.057-44.689l-4.921.007c2.227,6.192,4.808,12.749,7.755,19.308a171.177,171.177,0,0,0,17.437,30.811c-3.277,9.774-7.172,20.289-11.691,30.727-9.61,22.2-20.1,39.689-31.187,51.98-13.573,15.049-28.035,22.229-42.986,21.336-15.5-.924-30.355-9.137-44.143-24.409-10.089-11.175-19.615-26.117-28.37-44.457,8.922-11.8,17.389-26.9,25.241-45.049a412.706,412.706,0,0,0,14.749-40.123l-4.8.007a405.139,405.139,0,0,1-14.176,38.357c-7.274,16.8-15.053,30.9-23.213,42.095-.226-.5-.456-.988-.683-1.49-16.308-36.282-24.135-72.563-24.212-72.925l-4.48.953c.079.366,7.989,37.061,24.485,73.783q.869,1.931,1.747,3.815c-1.6,2.023-3.207,3.948-4.831,5.749-13.573,15.05-28.037,22.227-42.987,21.337-15.5-.924-30.354-9.137-44.143-24.409-11.207-12.412-21.722-29.458-31.253-50.662A375.149,375.149,0,0,1,583.85,402.4l-4.814.007a382.533,382.533,0,0,0,14.582,38.171c9.729,21.656,20.507,39.116,32.037,51.895,14.629,16.212,30.54,24.939,47.293,25.937q1.423.084,2.836.083c15.391-.021,30.129-7.729,43.844-22.947,1.207-1.339,2.406-2.75,3.6-4.206,8.673,17.805,18.105,32.411,28.1,43.492,14.629,16.212,30.541,24.938,47.294,25.937q1.422.086,2.836.083c15.39-.02,30.128-7.729,43.844-22.946,11.42-12.671,22.184-30.591,31.994-53.264,4.116-9.514,7.72-19.09,10.816-28.121q1.671,2.063,3.372,3.952c11.093,12.294,23.177,18.912,35.916,19.672q1.086.065,2.169.063c11.726-.015,22.938-5.869,33.355-17.425,8.62-9.564,16.741-23.079,24.134-40.167,3.037-7.019,5.7-14.082,8-20.76Z" transform="translate(-178.439 -267.986)"/><path class="g" d="M1055.707,284.363l55.8,53.333,54.6-52.466,5.694,5.441-54.6,52.467,54.74,52.321-5.679,5.456-54.74-52.32-55.128,52.974-5.694-5.442,55.129-52.974-55.8-53.333Z" transform="translate(-208.75 -260.425)"/><path class="g" d="M1176.956,284.2l46.056,53.346,45.042-52.453,4.7,5.443-45.042,52.454,45.181,52.334-4.685,5.455-45.182-52.333-45.478,52.961-4.7-5.443L1218.327,343l-46.056-53.347Z" transform="translate(-216.617 -260.415)"/><path class="g" d="M933.464,284.526l55.8,53.333,54.6-52.466,5.694,5.442-54.6,52.466,54.74,52.321-5.679,5.457-54.739-52.321-55.129,52.974-5.694-5.442,55.129-52.974-55.8-53.333Z" transform="translate(-200.883 -260.436)"/><path class="g" d="M811.22,284.689l55.8,53.333,54.6-52.466L927.313,291l-54.6,52.467,54.74,52.321-5.679,5.457-54.74-52.321L811.9,401.9l-5.694-5.442,55.129-52.975-55.8-53.334Z" transform="translate(-193.015 -260.446)"/><path class="g" d="M688.977,284.851l55.8,53.333,54.6-52.466,5.694,5.442-54.6,52.467,54.739,52.321-5.68,5.457L744.79,349.084l-55.129,52.974-5.694-5.442L739.1,343.642l-55.8-53.333Z" transform="translate(-185.148 -260.456)"/><path class="g" d="M566.733,285.014l55.8,53.333,54.6-52.466,5.694,5.442-54.6,52.466,54.739,52.321-5.679,5.457-54.739-52.321-55.128,52.974-5.694-5.442L616.853,343.8l-55.8-53.333Z" transform="translate(-177.281 -260.467)"/><path class="g" d="M444.49,285.177l55.8,53.334,54.6-52.466,5.694,5.442-54.6,52.467,54.74,52.321-5.679,5.457L500.3,349.409l-55.128,52.974-5.694-5.442,55.129-52.975-55.8-53.334Z" transform="translate(-169.414 -260.477)"/><path class="g" d="M322.247,285.339l55.8,53.333,54.6-52.466,5.694,5.442-54.6,52.467,54.74,52.321-5.68,5.457L378.06,349.572l-55.129,52.974-5.694-5.442,55.129-52.975-55.8-53.334Z" transform="translate(-161.547 -260.488)"/><g transform="translate(123.289 23.587)"><rect class="g" width="876.319" height="7.707" transform="translate(24.436 1.166) rotate(-0.076)"/><rect class="g" width="900.902" height="7.707" transform="translate(0 111.436) rotate(-0.076)"/></g><path class="g" d="M1896.56,283.244l55.8,53.333,54.6-52.466,5.694,5.442-54.6,52.466,54.74,52.321-5.68,5.457-54.739-52.321-55.128,52.974-5.694-5.442,55.129-52.974-55.8-53.334Z" transform="translate(-262.865 -260.353)"/><path class="g" d="M1774.317,283.406l55.8,53.333,54.6-52.466,5.694,5.442-54.6,52.467,54.739,52.321-5.679,5.457-54.74-52.321L1775,400.613l-5.694-5.442,55.129-52.975-55.8-53.334Z" transform="translate(-254.998 -260.364)"/><path class="g" d="M2144.082,282.914l55.8,53.333,54.6-52.466,5.695,5.442-54.6,52.467,54.739,52.321-5.679,5.457-54.74-52.321-55.128,52.974-5.7-5.442L2194.2,341.7l-55.8-53.334Z" transform="translate(-278.794 -260.332)"/><path class="g" d="M2021.839,283.077l55.8,53.334,54.6-52.467,5.693,5.442-54.6,52.467,54.74,52.321-5.68,5.457-54.739-52.321-55.129,52.974-5.694-5.442,55.129-52.974-55.8-53.334Z" transform="translate(-270.927 -260.342)"/><path class="g" d="M2269.361,282.747l55.8,53.333,54.6-52.466,5.694,5.442-54.6,52.467,54.74,52.321-5.679,5.457-54.74-52.321-55.128,52.974-5.694-5.442,55.128-52.974-55.8-53.333Z" transform="translate(-286.857 -260.321)"/><path class="g" d="M1652.073,283.569l55.8,53.333,54.6-52.466,5.693,5.442-54.6,52.467,54.74,52.321-5.679,5.457-54.74-52.321-55.129,52.974-5.693-5.442,55.129-52.975-55.8-53.333Z" transform="translate(-247.13 -260.374)"/><path class="g" d="M1529.83,283.732l55.8,53.333,54.6-52.466,5.694,5.442-54.6,52.466,54.74,52.321-5.68,5.457-54.739-52.321-55.129,52.974-5.694-5.442,55.128-52.974-55.8-53.333Z" transform="translate(-239.263 -260.385)"/><path class="g" d="M1407.587,283.894l55.8,53.334,54.6-52.466,5.693,5.442-54.6,52.467,54.739,52.321-5.68,5.457L1463.4,348.127,1408.271,401.1l-5.694-5.442,55.129-52.974-55.8-53.334Z" transform="translate(-231.396 -260.395)"/><path class="g" d="M1285.343,284.057l55.8,53.333,54.6-52.466,5.693,5.442-54.6,52.467,54.74,52.321-5.68,5.457-54.739-52.321-55.128,52.974-5.694-5.442,55.129-52.974-55.8-53.333Z" transform="translate(-223.529 -260.405)"/><g transform="translate(1024.043 22.157)"><rect class="g" width="1074.188" height="7.707" transform="matrix(1, -0.001, 0.001, 1, 0, 1.43)"/><rect class="g" width="1111.061" height="7.707" transform="translate(0.147 111.667) rotate(-0.076)"/></g><rect class="g" width="2192.435" height="31.332" transform="translate(0 2.919) rotate(-0.076)"/><g transform="translate(200.844 138.479)"><path class="h" d="M365.542,491.8l1.87,11.589,55.716,55.568,1.844-7.885-8.855-33.837Z" transform="translate(-365.542 -412.254)"/><path class="g" d="M365.542,488.48,413.7,440.192l22.257-.029,51.069,48.155-62.055,59.434Z" transform="translate(-365.542 -408.931)"/><path class="h" d="M532.707,535.186l-11.271,11.548-8.2-6.885L504.9,549.6l5.979,7.949-23.177,23.748-6.884-9.872-7.4,13.457,4.648,6.29-8.8,9.017,21.843,37.529,83.347-86.82Z" transform="translate(-372.218 -415.046)"/><path class="g" d="M419.714,591.167l-6.91,34.322L443.9,643.53l15.251-38.042-32.49-24.068Z" transform="translate(-368.584 -418.022)"/><path class="g" d="M429.582,569.881l32.492,25.459,64.363-66.856-29.71-25.463Z" transform="translate(-369.664 -412.976)"/><path class="g" d="M517.638,485.661l31.536-15.415,25.075,26.86-37.525,25.553-26.463-25Z" transform="translate(-374.856 -410.867)"/><path class="h" d="M490.544,491.149,428.49,550.583l-8.3,34.324,102.8-100.756Z" transform="translate(-369.059 -411.762)"/><path class="g" d="M522.684,523.631l9.724-9.75,4.182,6.95-10.19,8.36Z" transform="translate(-375.656 -413.675)"/><path class="g" d="M446.964,600.627c.462-.464,16.207-15.787,16.207-15.787l-1.837,13.45s-10.186,11.142-10.187,10.678S446.964,600.627,446.964,600.627Z" transform="translate(-370.782 -418.242)"/><path class="i" d="M474.855,542.628c-14.65,14.689-22.578,30.536-17.706,35.395s20.7-3.111,35.347-17.8,22.578-30.536,17.706-35.394S489.506,527.939,474.855,542.628Z" transform="translate(-371.346 -414.288)"/><rect class="g" width="6.543" height="75.894" transform="matrix(1, -0.001, 0.001, 1, 7.089, 0.122)"/><rect class="g" width="6.543" height="75.894" transform="translate(92.145 0.009) rotate(-0.076)"/></g><g transform="translate(1872.548 136.125)"><path class="h" d="M2364.147,489.137l-1.839,11.594-55.569,55.716-1.865-7.88,8.765-33.86Z" transform="translate(-2162.056 -409.729)"/><path class="g" d="M2359.868,485.825l-48.287-48.159-22.257.03-50.94,48.291,62.212,59.269Z" transform="translate(-2157.777 -406.416)"/><path class="h" d="M2193.944,532.976l11.3,11.518,8.179-6.907,8.36,9.726-5.959,7.965,23.24,23.686,6.859-9.89,7.436,13.437-4.63,6.3,8.823,8.993-21.742,37.587-83.578-86.6Z" transform="translate(-2152.232 -412.55)"/><path class="g" d="M2311.134,588.647l7,34.3-31.043,18.125-15.352-38,32.426-24.155Z" transform="translate(-2159.924 -415.507)"/><path class="g" d="M2297.734,567.4l-32.423,25.546-64.542-66.684,29.642-25.542Z" transform="translate(-2155.357 -410.474)"/><path class="g" d="M2211.715,483.406l-31.577-15.331-25,26.927,37.593,25.452,26.4-25.074Z" transform="translate(-2152.419 -408.374)"/><path class="h" d="M2236.149,488.834l62.212,59.269,8.392,34.3L2203.682,481.922Z" transform="translate(-2155.544 -409.265)"/><path class="g" d="M2210.211,521.385l-9.75-9.724-4.163,6.961,10.213,8.333Z" transform="translate(-2155.068 -411.179)"/><path class="g" d="M2285.979,598.18c-.465-.463-16.251-15.744-16.251-15.744l1.873,13.445s10.216,11.114,10.216,10.651S2285.979,598.18,2285.979,598.18Z" transform="translate(-2159.794 -415.733)"/><path class="i" d="M2255.2,540.262c14.69,14.649,22.659,30.475,17.8,35.347s-20.7-3.056-35.394-17.706-22.66-30.476-17.8-35.348S2240.511,525.611,2255.2,540.262Z" transform="translate(-2156.489 -411.787)"/><rect class="g" width="6.543" height="75.894" transform="matrix(-1, 0.001, -0.001, -1, 194.889, 75.894)"/><rect class="g" width="6.543" height="75.894" transform="translate(109.835 76.007) rotate(179.924)"/></g></g><path class="j" d="M1988.6,834.665V941.787a80.437,80.437,0,0,1-18.082,50.9H332.053a80.436,80.436,0,0,1-18.081-50.9V834.665c0-443.832,359.768-803.637,803.6-803.637h67.388C1628.791,31.028,1988.6,390.834,1988.6,834.665Z" transform="translate(-28.189 178.657)"/><path class="k" d="M1886.708,1410.808,336.845,1235.471V776.714c0-399.259,323.658-722.92,722.916-722.92h66.571c399.259,0,722.921,323.662,722.921,722.92Z" transform="translate(35.824 242.367)"/><g transform="translate(308.696 224.682)"><g transform="translate(792.644)"><path class="i" d="M574.482,56.658A22.922,22.922,0,1,1,550.349,35.01,22.918,22.918,0,0,1,574.482,56.658Z" transform="translate(-528.67 -34.976)"/><g transform="translate(3.947 25.619)"><path class="l" d="M544.394,56.12a.979.979,0,0,1-.277-.042,22.919,22.919,0,0,1-14.336-13.044.951.951,0,0,1,1.759-.722,20.97,20.97,0,0,0,13.132,11.947.952.952,0,0,1-.277,1.861Z" transform="translate(-529.709 -41.72)"/></g></g><g transform="translate(641.902 12.582)"><path class="i" d="M534.241,56.015a22.924,22.924,0,1,1-27.525-17.124A22.924,22.924,0,0,1,534.241,56.015Z" transform="translate(-488.987 -38.288)"/><g transform="translate(4.859 28.697)"><path class="l" d="M506.912,57.665a.574.574,0,0,1-.114-.008A22.921,22.921,0,0,1,490.414,47.3a.949.949,0,1,1,1.6-1.018,20.991,20.991,0,0,0,15.009,9.489.949.949,0,0,1-.114,1.892Z" transform="translate(-490.266 -45.843)"/></g></g><g transform="translate(490.256 52.152)"><path class="i" d="M493.079,62.638A22.923,22.923,0,1,1,463,50.551,22.922,22.922,0,0,1,493.079,62.638Z" transform="translate(-449.065 -48.705)"/><g transform="translate(6.291 31.571)"><path class="l" d="M467.753,65.988a22.92,22.92,0,0,1-16.782-7.381.949.949,0,1,1,1.4-1.28A21.034,21.034,0,0,0,468.8,64.062a.935.935,0,0,1,1,.9.95.95,0,0,1-.9,1C468.516,65.976,468.133,65.988,467.753,65.988Z" transform="translate(-450.722 -57.016)"/></g></g><g transform="translate(356.82 121.396)"><circle class="i" cx="22.923" cy="22.923" r="22.923" transform="translate(0 45.75) rotate(-86.312)"/><g transform="translate(9.612 35.571)"><path class="l" d="M430.757,82.694A22.932,22.932,0,0,1,416.839,78,.951.951,0,1,1,418,76.5a20.987,20.987,0,0,0,17.348,3.783.934.934,0,0,1,1.14.71.952.952,0,0,1-.71,1.14A22.39,22.39,0,0,1,430.757,82.694Z" transform="translate(-416.469 -76.298)"/></g></g><g transform="translate(238.305 211.399)"><path class="i" d="M422.394,97.885A22.923,22.923,0,1,1,390,96.814,22.92,22.92,0,0,1,422.394,97.885Z" transform="translate(-382.738 -90.627)"/><g transform="translate(10.507 36.355)"><path class="l" d="M396.542,104.544a22.811,22.811,0,0,1-10.53-2.556.947.947,0,0,1-.4-1.28.96.96,0,0,1,1.284-.4,21,21,0,0,0,17.743.714.941.941,0,0,1,1.246.5.955.955,0,0,1-.505,1.246A22.708,22.708,0,0,1,396.542,104.544Z" transform="translate(-385.504 -100.198)"/></g></g><g transform="translate(128.185 326.379)"><circle class="i" cx="22.923" cy="22.923" r="22.923" transform="translate(0 43.46) rotate(-71.438)"/><g transform="translate(19.286 41.743)"><path class="l" d="M366.279,137.267a22.423,22.423,0,0,1-6.788-1.041.948.948,0,1,1,.57-1.808,21.01,21.01,0,0,0,17.6-2.382.956.956,0,0,1,1.314.281.944.944,0,0,1-.285,1.31A22.844,22.844,0,0,1,366.279,137.267Z" transform="translate(-358.826 -131.885)"/></g></g><g transform="translate(57.551 479.323)"><path class="i" d="M368.451,163.642a22.923,22.923,0,1,1-30.814,10.078A22.921,22.921,0,0,1,368.451,163.642Z" transform="translate(-335.155 -161.159)"/><g transform="translate(16.123 33.767)"><path class="l" d="M343.145,177.777a22.874,22.874,0,0,1-2.921-.19.952.952,0,0,1,.251-1.888,20.981,20.981,0,0,0,16.915-5.4.95.95,0,1,1,1.3,1.39A22.94,22.94,0,0,1,343.145,177.777Z" transform="translate(-339.399 -170.049)"/></g></g><g transform="translate(12.985 635.644)"><path class="i" d="M353.013,203.306a22.922,22.922,0,1,1-28.6,15.274A22.922,22.922,0,0,1,353.013,203.306Z" transform="translate(-323.422 -202.311)"/><g transform="translate(19.239 31.532)"><path class="l" d="M329.437,221.145a.95.95,0,0,1-.038-1.9,21.01,21.01,0,0,0,15.723-8.254.949.949,0,1,1,1.516,1.143,22.938,22.938,0,0,1-17.158,9.01Z" transform="translate(-328.487 -210.612)"/></g></g><g transform="translate(0 796.681)"><path class="i" d="M345.679,244.873a22.923,22.923,0,1,1-25.508,20.007A22.922,22.922,0,0,1,345.679,244.873Z" transform="translate(-320.004 -244.705)"/><g transform="translate(22.439 29.009)"><path class="l" d="M326.857,265.593a.949.949,0,0,1-.2-1.876,20.992,20.992,0,0,0,14.047-10.86.951.951,0,0,1,1.694.862,22.921,22.921,0,0,1-15.331,11.852A1,1,0,0,1,326.857,265.593Z" transform="translate(-325.911 -252.341)"/></g></g><g transform="translate(944.712 12.582)"><path class="i" d="M569.3,56.015A22.924,22.924,0,1,0,596.83,38.891,22.924,22.924,0,0,0,569.3,56.015Z" transform="translate(-568.702 -38.288)"/><g transform="translate(23.402 28.7)"><path class="l" d="M575.813,57.663a.949.949,0,0,1-.114-1.892,20.99,20.99,0,0,0,15.008-9.489.95.95,0,0,1,1.6,1.018,22.921,22.921,0,0,1-16.384,10.355A.575.575,0,0,1,575.813,57.663Z" transform="translate(-574.863 -45.844)"/></g></g><g transform="translate(1096.357 52.152)"><path class="i" d="M610.468,62.638a22.923,22.923,0,1,0,30.081-12.087A22.921,22.921,0,0,0,610.468,62.638Z" transform="translate(-608.623 -48.705)"/><g transform="translate(20.487 31.571)"><path class="l" d="M616.065,65.988c-.38,0-.764-.011-1.147-.03a.949.949,0,0,1-.9-1,.93.93,0,0,1,1-.9,21.038,21.038,0,0,0,16.433-6.735.949.949,0,1,1,1.4,1.28A22.934,22.934,0,0,1,616.065,65.988Z" transform="translate(-614.017 -57.016)"/></g></g><g transform="translate(1228.376 122.82)"><path class="i" d="M647.1,77.714a22.923,22.923,0,1,0,31.722-6.682A22.925,22.925,0,0,0,647.1,77.714Z" transform="translate(-643.378 -67.309)"/><g transform="translate(17.621 34.152)"><path class="l" d="M653.769,82.691a22.389,22.389,0,0,1-5.018-.566.95.95,0,1,1,.429-1.85,20.976,20.976,0,0,0,17.348-3.783A.951.951,0,1,1,667.688,78,22.932,22.932,0,0,1,653.769,82.691Z" transform="translate(-648.017 -76.299)"/></g></g><g transform="translate(1348.321 211.399)"><path class="i" d="M681.143,97.885a22.923,22.923,0,1,0,32.4-1.071A22.919,22.919,0,0,0,681.143,97.885Z" transform="translate(-674.953 -90.627)"/><g transform="translate(14.881 36.354)"><path class="l" d="M688.291,104.544a22.711,22.711,0,0,1-8.84-1.778.952.952,0,0,1-.505-1.246.937.937,0,0,1,1.246-.5,21,21,0,0,0,17.743-.714.951.951,0,0,1,.885,1.683A22.824,22.824,0,0,1,688.291,104.544Z" transform="translate(-678.871 -100.198)"/></g></g><g transform="translate(1452.336 332.483)"><path class="i" d="M711.5,127.1a22.922,22.922,0,1,0,32.095,4.57A22.923,22.923,0,0,0,711.5,127.1Z" transform="translate(-702.336 -122.503)"/><g transform="translate(12.364 35.639)"><path class="l" d="M718.438,137.267a22.813,22.813,0,0,1-12.41-3.639.945.945,0,0,1-.285-1.31.956.956,0,0,1,1.314-.281,21.012,21.012,0,0,0,17.6,2.382.948.948,0,1,1,.57,1.808A22.42,22.42,0,0,1,718.438,137.267Z" transform="translate(-705.591 -131.885)"/></g></g><g transform="translate(1529.066 479.323)"><path class="i" d="M735.092,163.642a22.923,22.923,0,1,0,30.815,10.078A22.924,22.924,0,0,0,735.092,163.642Z" transform="translate(-722.535 -161.159)"/><g transform="translate(10.142 33.766)"><path class="l" d="M741.048,177.778a22.947,22.947,0,0,1-15.54-6.085.952.952,0,0,1,1.3-1.39,20.976,20.976,0,0,0,16.911,5.4.933.933,0,0,1,1.067.817.954.954,0,0,1-.817,1.071A22.882,22.882,0,0,1,741.048,177.778Z" transform="translate(-725.205 -170.048)"/></g></g><g transform="translate(1573.628 635.644)"><path class="i" d="M750.535,203.306a22.922,22.922,0,1,0,28.6,15.274A22.921,22.921,0,0,0,750.535,203.306Z" transform="translate(-734.266 -202.311)"/><g transform="translate(8.28 31.533)"><path class="l" d="M753.833,221.145h-.042a22.91,22.91,0,0,1-17.151-9.01.948.948,0,1,1,1.512-1.143,21.005,21.005,0,0,0,15.723,8.254.95.95,0,0,1-.041,1.9Z" transform="translate(-736.446 -210.612)"/></g></g><g transform="translate(1586.621 796.681)"><path class="i" d="M757.862,244.873A22.923,22.923,0,1,0,783.37,264.88,22.921,22.921,0,0,0,757.862,244.873Z" transform="translate(-737.687 -244.705)"/><g transform="translate(6.824 29.009)"><path class="l" d="M755.122,265.593a.968.968,0,0,1-.205-.023,22.937,22.937,0,0,1-15.331-11.852.95.95,0,0,1,1.694-.862,21.009,21.009,0,0,0,14.048,10.86.949.949,0,0,1-.205,1.876Z" transform="translate(-739.483 -252.341)"/></g></g></g></g><path class="k" d="M1992.528,271.718H333.672c-13.082,0-23.688,128.365-23.688,286.761h0c0,158.4,10.606,286.758,23.688,286.758H1992.528c13.079,0,23.684-128.362,23.684-286.758h0C2016.213,400.083,2005.607,271.718,1992.528,271.718Z" transform="translate(-39.35 834.817)"/><g transform="translate(1895.401 1123.415)"><path class="l" d="M1267.763,271.963a.95.95,0,0,1-.95.95S1267.763,271.439,1267.763,271.963Z" transform="translate(-1266.813 -271.85)"/></g></g></g></g></svg>