<svg xmlns="http://www.w3.org/2000/svg" width="234" height="234" viewBox="0 0 234 234"><defs><style>.a,.i{fill:#fff;}.a{opacity:0;}.b{fill:#ffc131;}.c{fill:#009eef;}.d{fill:#1a5baa;}.e{fill:#34353a;}.f{fill:#515259;}.g{fill:#efaf11;}.h{fill:#1c1c1c;}</style></defs><g transform="translate(2896 -1378)"><rect class="a" width="234" height="234" transform="translate(-2896 1378)"/><circle class="b" cx="80.578" cy="80.578" r="80.578" transform="matrix(0.334, -0.943, 0.943, 0.334, -2882, 1543.912)"/><g transform="translate(-2876.213 1410.57)"><g transform="translate(54.445)"><path class="c" d="M382.886,314a1.865,1.865,0,0,1-1.866-1.866V306.7a2.959,2.959,0,0,0-2.954-2.956H347.419a6.7,6.7,0,0,1-6.689-6.689v-.638a6.7,6.7,0,0,1,6.689-6.689h67.822a2.956,2.956,0,1,0,0-5.912H387.708a6.7,6.7,0,0,1-6.689-6.689v-4.2a1.866,1.866,0,1,1,3.733,0v4.2a2.959,2.959,0,0,0,2.956,2.956h27.533a6.689,6.689,0,1,1,0,13.377H347.419a2.958,2.958,0,0,0-2.954,2.956v.638a2.958,2.958,0,0,0,2.954,2.956h30.646a6.7,6.7,0,0,1,6.687,6.689v5.429A1.865,1.865,0,0,1,382.886,314Z" transform="translate(-340.73 -271.063)"/></g><path class="d" d="M380.717,305.784v-3.85h-2.1v-3.85H368.351v3.85h-2.1v3.85H363.8v7.7h19.367v-7.7Z" transform="translate(-276.883 -260.051)"/><path class="d" d="M451.809,396H346.426a44.375,44.375,0,0,1-44.377-44.376h0a44.378,44.378,0,0,1,44.377-44.377H451.809a44.341,44.341,0,0,1,44.376,44.377h0A44.375,44.375,0,0,1,451.809,396Z" transform="translate(-302.049 -256.314)"/><path class="c" d="M450.727,309.9H345.343a40.643,40.643,0,0,0,0,81.287H450.727a40.643,40.643,0,0,0,0-81.287Z" transform="translate(-300.968 -255.234)"/><g transform="translate(11.731 55.498)"><g transform="translate(0 5.946)"><circle class="e" cx="28.359" cy="28.359" r="28.359" transform="translate(0 55.173) rotate(-76.6)"/><circle class="f" cx="24.981" cy="24.981" r="24.981" transform="matrix(0.926, -0.379, 0.379, 0.926, 1.58, 20.494)"/></g><g transform="translate(96.41)"><path class="d" d="M0,33.509Z" transform="translate(6.597 6.597)"/><circle class="e" cx="28.359" cy="28.359" r="28.359" transform="translate(0 40.105) rotate(-45)"/><circle class="f" cx="24.981" cy="24.981" r="24.981" transform="matrix(0.948, -0.32, 0.32, 0.948, 8.449, 24.422)"/><path class="g" d="M410.57,321.237a25.083,25.083,0,0,0-3.9.335L400.2,333.943h7.146L400.2,347.963H406.8l-7.28,18.471,21.437-25.009h-6.607l8.517-15.294-7.573-.279,2.242-3.609A24.938,24.938,0,0,0,410.57,321.237Z" transform="translate(-370.464 -306.113)"/></g></g><path class="h" d="M355.167,338.046h-9.583v-9.583a2.2,2.2,0,0,0-2.2-2.2h-7.273a2.2,2.2,0,0,0-2.2,2.2v9.583h-9.583a2.2,2.2,0,0,0-2.2,2.2v7.273a2.2,2.2,0,0,0,2.2,2.2h9.583V359.3a2.2,2.2,0,0,0,2.2,2.2h7.273a2.2,2.2,0,0,0,2.2-2.2v-9.583h9.583a2.2,2.2,0,0,0,2.2-2.2v-7.273a2.2,2.2,0,0,0-2.2-2.2Z" transform="translate(-293.862 -248.566)"/><g transform="translate(30.142 79.567)"><path class="i" d="M338.022,340.51l-4.548-4.549H323.8a.332.332,0,0,0-.332.331v7.273a.332.332,0,0,0,.332.331h10.841Z" transform="translate(-323.464 -324.181)"/><path class="i" d="M335.684,342.848l4.082-4.083V327.923a.324.324,0,0,0-.077-.215.329.329,0,0,0-.252-.115h-7.271a.332.332,0,0,0-.332.331V339Z" transform="translate(-320.053 -327.592)"/><path class="i" d="M349.982,336.023a.32.32,0,0,0-.191-.062h-9.912l-4.548,4.549,3.385,3.385h11.075a.319.319,0,0,0,.221-.084.325.325,0,0,0,.108-.246v-7.273A.326.326,0,0,0,349.982,336.023Z" transform="translate(-318.628 -324.181)"/><path class="i" d="M335.684,339.955l-3.851,3.85v9.912a.326.326,0,0,0,.076.213.335.335,0,0,0,.256.118h7.271a.328.328,0,0,0,.329-.331v-9.68Z" transform="translate(-320.053 -322.554)"/></g><g transform="translate(83.728 103.566)"><rect class="d" width="11.229" height="5.894" rx="1.579"/><rect class="i" width="8.238" height="3.995" rx="1.07" transform="translate(1.495 0.949)"/><g transform="translate(15.451)"><rect class="d" width="11.229" height="5.894" rx="1.579"/><rect class="i" width="8.238" height="3.995" rx="1.07" transform="translate(1.495 0.949)"/></g></g></g></g></svg>