<svg xmlns="http://www.w3.org/2000/svg" width="234" height="234" viewBox="0 0 234 234"><defs><style>.a,.e{fill:#fff;}.a{opacity:0;}.b{fill:#ffc131;}.c{fill:#ea2121;}.d{fill:#c11111;}.f{fill:#ff5050;}.g{fill:#1c1c1c;}.h{fill:#009eef;}.i{fill:#afafaf;}</style></defs><g transform="translate(2887 -2091)"><rect class="a" width="234" height="234" transform="translate(-2887 2091)"/><circle class="b" cx="80.579" cy="80.579" r="80.579" transform="translate(-2850.303 2127)"/><g transform="translate(-2872 2135.358)"><g transform="translate(154.616)"><path class="c" d="M217.314,116.35A47.953,47.953,0,0,0,209.344,74.7a40.375,40.375,0,0,1-25.885,44.131,75.137,75.137,0,0,1-14.35,32.79A48.051,48.051,0,0,0,217.314,116.35Z" transform="translate(-169.109 -74.697)"/></g><path class="c" d="M60.99,116.35A47.953,47.953,0,0,1,68.959,74.7a40.375,40.375,0,0,0,25.885,44.131,75.181,75.181,0,0,0,14.35,32.79A48.05,48.05,0,0,1,60.99,116.35Z" transform="translate(-59.26 -74.697)"/><g transform="translate(3.679 21.148)"><path class="c" d="M258.859,176.655l-6.445-46.031a42.98,42.98,0,0,0-.97-6.926l-.013-.09-.008,0a43.2,43.2,0,0,0-63.035-28.263,57.888,57.888,0,0,1-28.062,7.319h0a57.891,57.891,0,0,1-28.062-7.319A43.2,43.2,0,0,0,69.228,123.6l-.008,0-.013.091a43.1,43.1,0,0,0-.97,6.924l-6.206,44.319c-.89,6.359,2.1,15.279,6.638,19.82h0A20.665,20.665,0,0,0,95.1,197.1l40.119-27.955h0l.086-.056a37.807,37.807,0,0,1,20.96-6.555h8.133a37.8,37.8,0,0,1,20.96,6.555l.086.056h0L225.555,197.1a21.319,21.319,0,0,0,23.512.573h0A21.318,21.318,0,0,0,258.859,176.655Z" transform="translate(-61.875 -89.63)"/><g transform="translate(85.256 54.572)"><rect class="d" width="11.229" height="5.894" rx="1.579"/><rect class="e" width="8.238" height="3.995" rx="1.07" transform="translate(1.495 0.949)"/><g transform="translate(15.451)"><rect class="d" width="11.229" height="5.894" rx="1.579"/><rect class="e" width="8.238" height="3.995" rx="1.07" transform="translate(1.495 0.949)"/></g></g><path class="f" d="M62.024,178.006l6.206-44.318a43.1,43.1,0,0,1,.97-6.925l.013-.09.008,0a43.205,43.205,0,0,1,63.035-28.263,57.446,57.446,0,0,0,56.124,0,43.205,43.205,0,0,1,63.035,28.263l.008,0,.013.09a42.958,42.958,0,0,1,.97,6.927l6.445,46.029c.066.476.113.95.146,1.424a21.262,21.262,0,0,0-.146-4.489l-6.445-46.031a42.98,42.98,0,0,0-.97-6.926l-.013-.09-.008,0a43.2,43.2,0,0,0-63.035-28.263,57.455,57.455,0,0,1-56.124,0A43.2,43.2,0,0,0,69.221,123.6l-.008,0-.013.091a43.1,43.1,0,0,0-.97,6.924l-6.206,44.319a18.915,18.915,0,0,0-.056,3.966C61.992,178.611,61.985,178.295,62.024,178.006Z" transform="translate(-61.867 -89.63)"/><path class="g" d="M134.928,129.147a29.392,29.392,0,1,1-29.391-29.391A29.392,29.392,0,0,1,134.928,129.147Z" transform="translate(-56.059 -85.633)"/><circle class="e" cx="26.183" cy="26.183" r="26.183" transform="translate(19.532 21.735) rotate(-8.973)"/><path class="g" d="M145.732,129.147a29.392,29.392,0,1,0,29.391-29.391A29.392,29.392,0,0,0,145.732,129.147Z" transform="translate(-27.699 -85.633)"/><circle class="e" cx="26.183" cy="26.183" r="26.183" transform="matrix(0.997, -0.082, 0.082, 0.997, 119.176, 19.573)"/><g transform="translate(125.252 20.176)"><path class="g" d="M169.134,121.474a8.709,8.709,0,1,0-8.708-8.71A8.72,8.72,0,0,0,169.134,121.474Z" transform="translate(-146.963 -104.056)"/><path class="g" d="M169.134,123.186a8.709,8.709,0,1,0,8.71,8.71A8.72,8.72,0,0,0,169.134,123.186Z" transform="translate(-146.963 -96.26)"/><path class="g" d="M178.7,113.621a8.709,8.709,0,1,0,8.71,8.71A8.719,8.719,0,0,0,178.7,113.621Z" transform="translate(-143.065 -100.158)"/><path class="g" d="M168.279,122.331a8.709,8.709,0,1,0-8.71,8.708A8.72,8.72,0,0,0,168.279,122.331Z" transform="translate(-150.861 -100.158)"/><g transform="translate(2.522 2.524)"><path class="h" d="M168.4,105.849a6.186,6.186,0,1,0,6.186,6.186A6.186,6.186,0,0,0,168.4,105.849Z" transform="translate(-148.755 -105.849)"/><path class="h" d="M168.4,124.978a6.187,6.187,0,1,0,6.186,6.186A6.187,6.187,0,0,0,168.4,124.978Z" transform="translate(-148.755 -98.053)"/><path class="c" d="M177.969,115.413a6.187,6.187,0,1,0,6.186,6.188A6.187,6.187,0,0,0,177.969,115.413Z" transform="translate(-144.857 -101.951)"/><path class="c" d="M158.839,115.413a6.187,6.187,0,1,0,6.186,6.188A6.187,6.187,0,0,0,158.839,115.413Z" transform="translate(-152.653 -101.951)"/></g></g><g transform="translate(28.662 22.699)"><path class="i" d="M98.808,124.533l6.15-6.151V112a6.15,6.15,0,1,0-12.3,0v6.383Z" transform="translate(-77.991 -105.849)"/><path class="i" d="M100.922,122.418l-6.15-6.15H88.389a6.15,6.15,0,1,0,0,12.3h6.383Z" transform="translate(-82.238 -101.603)"/><path class="i" d="M98.808,122.152l-6.15,6.15v6.385a6.15,6.15,0,0,0,12.3,0V128.3Z" transform="translate(-77.991 -99.205)"/><path class="i" d="M111.075,116.268h-6.383l-6.15,6.15,6.15,6.151h6.383a6.15,6.15,0,1,0,0-12.3Z" transform="translate(-75.593 -101.603)"/><path class="h" d="M121.429,126.116a4.263,4.263,0,0,1-4.258,4.258h-5.6l-4.258-4.258,4.258-4.256h5.6A4.262,4.262,0,0,1,121.429,126.116ZM98.248,111.451v5.6l4.258,4.258,4.258-4.258v-5.6a4.258,4.258,0,1,0-8.516,0Zm0,23.731v5.6a4.258,4.258,0,0,0,8.516,0v-5.6l-4.258-4.258ZM93.44,121.86h-5.6a4.257,4.257,0,1,0,0,8.514h5.6l4.258-4.258Z" transform="translate(-81.69 -105.301)"/></g></g></g></g></svg>