<svg xmlns="http://www.w3.org/2000/svg" width="234" height="234" viewBox="0 0 234 234"><defs><style>.a{fill:#fff;opacity:0;}.b{fill:#ffc131;}.c{fill:#939393;}.d{fill:#009eef;}.e{fill:#ffe66c;}.f{fill:#ea2121;}</style></defs><g transform="translate(2887 -1733)"><rect class="a" width="234" height="234" transform="translate(-2887 1733)"/><circle class="b" cx="80.579" cy="80.579" r="80.579" transform="translate(-2884 1849.955) rotate(-45)"/><g transform="translate(-2779.979 1758.681)"><rect class="c" width="16.947" height="102.75" rx="2.17" transform="matrix(0.919, 0.394, -0.394, 0.919, 40.503, 52.564)"/><path class="c" d="M127.4,397.484h0a3.053,3.053,0,0,1-1.6-4.012l38.094-88.816a3.053,3.053,0,0,1,4.011-1.6h0a3.056,3.056,0,0,1,1.6,4.012L131.408,395.88A3.054,3.054,0,0,1,127.4,397.484Z" transform="translate(-124.588 -249.285)"/><circle class="d" cx="31.904" cy="31.904" r="31.904" transform="translate(10.254 31.06) rotate(-29.128)"/></g><rect class="d" width="50.383" height="14.427" rx="2.625" transform="translate(-2795.243 1900.668)"/><rect class="d" width="85.052" height="17.427" rx="2.625" transform="translate(-2812.577 1914.095)"/><path class="e" d="M183.239,356.83H152.27a2.1,2.1,0,0,1-2.1-2.1h0a2.1,2.1,0,0,1,2.1-2.1h30.969a2.1,2.1,0,0,1,2.1,2.1h0A2.1,2.1,0,0,1,183.239,356.83Z" transform="translate(-2894.531 1529.703)"/><path class="e" d="M187.319,347.449H156.351a2.1,2.1,0,0,1-2.1-2.1h0a2.1,2.1,0,0,1,2.1-2.1h30.969a2.1,2.1,0,0,1,2.1,2.1h0A2.1,2.1,0,0,1,187.319,347.449Z" transform="translate(-2892.867 1525.88)"/><path class="e" d="M191.4,338.068H160.433a2.1,2.1,0,0,1-2.1-2.1h0a2.1,2.1,0,0,1,2.1-2.1H191.4a2.1,2.1,0,0,1,2.1,2.1h0A2.1,2.1,0,0,1,191.4,338.068Z" transform="translate(-2891.204 1522.056)"/><g transform="translate(-2823.737 1785.429)"><path class="f" d="M118.514,283.784,96.592,327.418h14.779L95.537,359.7H108.38l-14.6,37.731,48.912-53.119-15.2-.574,18.722-34.615-13.457-1.355,13.457-23.98Z" transform="translate(-93.777 -283.784)"/></g></g></svg>