<svg xmlns="http://www.w3.org/2000/svg" width="78.708" height="78.35" viewBox="0 0 78.708 78.35"><defs><style>.a{fill:#87b326;}.b{fill:#a4d72e;}.c{fill:#fff;stroke:#fff;}</style></defs><g transform="translate(0 0)"><g transform="translate(0)"><path class="a" d="M539.242,599.062,506.1,581.244a8.617,8.617,0,0,1-3.733-10.965l17.748-39.966c2.358-5.309,8.024-7.743,12.59-5.289l39.459,21.211c4.566,2.455,5.606,8.495,2.414,13.354l-24.037,36.586A8.755,8.755,0,0,1,539.242,599.062Z" transform="translate(-497.712 -521.702)"/><path class="b" d="M505.736,578.309,472.59,560.491a8.755,8.755,0,0,1-3.822-11.013l17.255-40.231c2.292-5.344,7.9-7.808,12.47-5.353l39.459,21.211c4.566,2.454,5.661,8.524,2.534,13.419l-23.544,36.851A8.617,8.617,0,0,1,505.736,578.309Z" transform="translate(-468.088 -502.941)"/></g></g><path class="c" d="M44.192,21.362l-5.83-5.83a1.306,1.306,0,1,0-1.847,1.847l3.6,3.6H23.595V4.459l3.6,3.6a1.306,1.306,0,0,0,1.847-1.847L23.212.383a1.306,1.306,0,0,0-1.847,0l-5.83,5.83A1.306,1.306,0,0,0,17.382,8.06l3.6-3.6V20.98H4.462l3.6-3.6a1.306,1.306,0,0,0-1.847-1.847l-5.83,5.83c-.031.03-.059.063-.087.1A1.309,1.309,0,0,0,.386,23.21l5.83,5.83a1.306,1.306,0,0,0,1.847-1.847l-3.6-3.6H20.983V40.113l-3.6-3.6a1.306,1.306,0,0,0-1.847,1.847l5.83,5.83a1.309,1.309,0,0,0,1.847,0l5.83-5.83A1.306,1.306,0,0,0,27.2,36.512l-3.6,3.6V23.592H40.116l-3.6,3.6a1.306,1.306,0,1,0,1.847,1.847l5.83-5.83A1.308,1.308,0,0,0,44.192,21.362Z" transform="translate(15.083 15.789)"/></svg>