<svg xmlns="http://www.w3.org/2000/svg" width="78.708" height="78.35" viewBox="0 0 78.708 78.35"><defs><style>.a{fill:#008beb;}.b{fill:#009eef;}.c{fill:#fff;stroke:#fff;}</style></defs><g transform="translate(0 0)"><path class="a" d="M539.242,599.062,506.1,581.244a8.617,8.617,0,0,1-3.733-10.965l17.748-39.966c2.358-5.309,8.024-7.743,12.59-5.289l39.459,21.211c4.566,2.455,5.606,8.495,2.414,13.354l-24.037,36.586A8.755,8.755,0,0,1,539.242,599.062Z" transform="translate(-497.712 -521.702)"/><path class="b" d="M505.736,578.309,472.59,560.491a8.755,8.755,0,0,1-3.822-11.013l17.255-40.231c2.292-5.344,7.9-7.808,12.47-5.353l39.459,21.211c4.566,2.454,5.661,8.524,2.534,13.419l-23.544,36.851A8.617,8.617,0,0,1,505.736,578.309Z" transform="translate(-468.088 -502.941)"/></g><g transform="translate(17.544 16.842)"><g transform="translate(0)"><g transform="translate(0)"><path class="c" d="M53.815,9.159c-.141-.141-.284-.278-.428-.414l1.391-1.668,2.279,1.9L59.208,6.4,52.071.448l-2.15,2.578,2.279,1.9L50.761,6.654a19.614,19.614,0,0,0-9.273-3.225V0H38.13V3.428A19.809,19.809,0,0,0,25.8,37.173,19.809,19.809,0,1,0,53.815,9.159ZM39.809,39.617A16.451,16.451,0,1,1,56.26,23.166,16.47,16.47,0,0,1,39.809,39.617Z" transform="translate(-20)"/><path class="c" d="M226.231,143.019l-6.349,7.846a3.361,3.361,0,1,0,2.609,2.113l6.35-7.846Z" transform="translate(-199.549 -131.015)"/></g></g></g></svg>